<?xml version="1.0" encoding="utf-8"?>
<!-- Generator: Adobe Illustrator 14.0.0, SVG Export Plug-In . SVG Version: 6.00 Build 43363)  -->
<!DOCTYPE svg PUBLIC "-//W3C//DTD SVG 1.1//EN" "http://www.w3.org/Graphics/SVG/1.1/DTD/svg11.dtd">
<svg version="1.1" xmlns="http://www.w3.org/2000/svg" xmlns:xlink="http://www.w3.org/1999/xlink" x="0px" y="0px" width="50px"
	 height="50px" viewBox="0 0 50 50" enable-background="new 0 0 50 50" xml:space="preserve">
<g id="Capa_1">
	<g>
		<path fill="#068906" d="M38.473,30.127c0,0.648-0.633,1.178-1.413,1.178H12.938c-0.778,0-1.41-0.529-1.41-1.178V2.319
			c0-0.651,0.632-1.18,1.41-1.18H37.06c0.78,0,1.413,0.529,1.413,1.18V30.127z"/>
		<polygon fill="#068906" points="11.527,33.074 38.473,33.074 25,48.861 		"/>
	</g>
</g>
<g id="Capa_2" display="none">
	<g display="inline">
		<circle fill="#0067CE" cx="25" cy="16.844" r="15.677"/>
		<polygon fill="#0067CE" points="40.703,35.271 25,35.271 9.297,35.271 9.331,42.176 25.097,48.834 40.703,42.189 		"/>
	</g>
</g>
<g id="Capa_3" display="none">
	<g display="inline">
		<path fill-rule="evenodd" clip-rule="evenodd" fill="#EF6600" d="M7.09,13.947c0.325-0.564-1.072-1.537-0.494-2.257
			c0.593-0.72,1.891,0.268,2.414-0.382C9.545,10.66,8.177,9.573,8.897,8.91c0.719-0.663,1.609,0.579,2.356,0.056
			c0.734-0.536-0.48-1.792,0.395-2.428c0.875-0.635,1.694,0.959,2.371,0.466c0.692-0.48-0.028-2.018,0.734-2.301
			c0.748-0.297,1.313,1.101,2.202,0.762c0.889-0.324,0.198-1.736,1.031-2.047c0.832-0.31,1.143,1.214,2.088,1.03
			c0.946-0.197,0.551-1.792,1.412-1.876c0.86-0.084,1.03,1.468,1.905,1.383C24.281,3.871,24.056,2.318,25,2.29
			c0.945-0.014,0.777,1.623,1.68,1.666c0.902,0.042,1.016-1.426,1.876-1.285c0.861,0.141,0.649,1.651,1.44,1.792
			c0.803,0.128,1.073-1.383,1.961-0.988c0.889,0.409,0.494,1.693,1.186,2.004c0.692,0.311,1.271-1.101,2.133-0.593
			c0.846,0.508,0.014,1.496,0.846,2.047s1.439-0.776,2.243-0.197c0.819,0.593-0.111,1.693,0.467,2.145
			c0.578,0.466,1.623-0.338,2.217,0.142c0.591,0.465-0.354,1.58,0.168,2.187c0.537,0.607,1.65-0.085,2.063,0.536
			c0.423,0.621-0.607,1.355-0.143,2.118c0.468,0.777,1.778,0.083,2.032,0.931c0.24,0.861-0.847,1.369-0.521,2.062
			c0.31,0.691,1.553,0.438,1.849,1.227c0.295,0.804-1.06,1.087-0.764,2.004c0.283,0.918,1.428,0.451,1.582,1.468
			c0.155,1.016-1.171,0.959-1.114,1.834c0.07,0.874,1.537,1.171,1.537,1.778c-0.014,0.593-1.383,0.762-1.496,1.651
			c-0.128,0.877,1.187,1.172,1.087,1.82c-0.112,0.65-1.439,0.565-1.607,1.412c-0.171,0.861,0.959,1.427,0.731,2.116
			c-0.211,0.68-1.396,0.27-1.805,1.116c-0.396,0.847,0.916,1.382,0.521,2.146c-0.395,0.775-1.467-0.058-2.004,0.804
			c-0.522,0.86,0.592,1.524,0.085,2.257c-0.494,0.735-1.567-0.266-2.174,0.439c-0.607,0.72,0.579,1.468-0.085,2.173
			c-0.663,0.705-1.452-0.578-2.286,0.128c-0.819,0.704,0.154,1.636-0.508,2.259c-0.663,0.606-1.398-0.706-2.174-0.227
			c-0.79,0.466-0.071,1.637-0.847,2.089c-0.762,0.466-1.383-1.002-2.16-0.664c-0.762,0.325-0.423,1.708-1.144,1.878
			c-0.719,0.17-1.298-1.046-1.989-0.889c-0.692,0.154-0.834,1.65-1.481,1.765c-0.664,0.111-1.186-1.328-1.836-1.229
			c-0.635,0.084-1.015,1.512-1.693,1.496c-0.678-0.016-0.833-1.512-1.694-1.539c-0.846-0.041-1.158,1.271-1.792,1.2
			c-0.621-0.086-0.748-1.65-1.439-1.764c-0.678-0.128-1.454,1.087-2.046,0.973c-0.594-0.127-0.466-1.736-1.115-2.003
			c-0.65-0.271-1.496,0.987-2.173,0.577c-0.692-0.409,0.014-1.75-0.762-2.257c-0.763-0.494-1.651,0.959-2.258,0.406
			c-0.593-0.548-0.084-2.072-0.466-2.411c-0.381-0.339-1.736,0.563-2.229,0.07c-0.494-0.493,0.465-1.792-0.029-2.398
			c-0.479-0.609-1.792,0.339-2.314-0.325s0.748-1.512,0.353-2.344c-0.395-0.846-1.638,0.113-2.216-0.678
			c-0.58-0.805,1.101-1.537,0.804-2.271c-0.311-0.748-1.877-0.213-2.16-1.029c-0.282-0.806,1.243-1.356,1.087-2.133
			c-0.17-0.776-1.624-0.762-1.821-1.369c-0.212-0.606,1.454-0.875,1.383-1.904c-0.071-1.017-1.68-0.635-1.722-1.624
			C2.22,23.913,3.9,24.265,3.957,23.277c0.057-0.974-1.651-1.129-1.454-1.976c0.198-0.861,1.778-0.437,1.99-1.354
			c0.212-0.904-1.426-1.143-1.115-2.019c0.325-0.875,1.835-0.056,2.216-1.016c0.381-0.96-1.468-1.397-0.861-2.343
			C5.339,13.624,6.398,15.049,7.09,13.947L7.09,13.947z"/>
	</g>
</g>
</svg>
