<?xml version="1.0" encoding="utf-8"?>
<!-- Generator: Adobe Illustrator 14.0.0, SVG Export Plug-In . SVG Version: 6.00 Build 43363)  -->
<!DOCTYPE svg PUBLIC "-//W3C//DTD SVG 1.1//EN" "http://www.w3.org/Graphics/SVG/1.1/DTD/svg11.dtd">
<svg version="1.1" id="Capa_1" xmlns="http://www.w3.org/2000/svg" xmlns:xlink="http://www.w3.org/1999/xlink" x="0px" y="0px"
	 width="150px" height="150px" viewBox="0 0 150 150" enable-background="new 0 0 150 150" xml:space="preserve">
<g>
	<polygon fill="#E5352E" points="38.095,47.788 38.095,99.912 86.388,131.342 86.388,18.659 	"/>
	<path fill="#E5352E" d="M92.044,45.104v10.617c0,0,16.766,18.44,0,38.558v10.615C92.044,104.895,127.248,76.396,92.044,45.104z"/>
	<path fill="#E5352E" d="M104.625,36.556v13.699c0,0,21.632,23.796,0,49.757v13.699C104.625,113.711,150.053,76.936,104.625,36.556z
		"/>
	<path fill="#E5352E" d="M120.216,26.458V43.56c0,0,27.005,29.706,0,62.114v17.102C120.216,122.775,176.927,76.867,120.216,26.458z"
		/>
	<rect x="4.58" y="47.788" fill="#E5352E" width="28.916" height="53.181"/>
</g>
</svg>
