<?xml version="1.0" encoding="utf-8"?>
<!-- Generator: Adobe Illustrator 14.0.0, SVG Export Plug-In . SVG Version: 6.00 Build 43363)  -->
<!DOCTYPE svg PUBLIC "-//W3C//DTD SVG 1.1//EN" "http://www.w3.org/Graphics/SVG/1.1/DTD/svg11.dtd">
<svg version="1.1" id="Capa_1" xmlns="http://www.w3.org/2000/svg" xmlns:xlink="http://www.w3.org/1999/xlink" x="0px" y="0px"
	 width="498.648px" height="174.546px" viewBox="0 0 498.648 174.546" enable-background="new 0 0 498.648 174.546"
	 xml:space="preserve">
<g>
	<g>
		<path fill="#0069B3" d="M251.935,101.458v-71.72h14.649c5.874,0,10.418,1.628,13.624,4.89c3.203,3.257,4.803,7.864,4.803,13.816
			c0,3.572-0.631,6.706-1.884,9.407c-1.259,2.69-3.19,5.018-5.802,6.967c2.934,1.687,5.105,3.945,6.508,6.769
			c1.404,2.825,2.104,6.385,2.104,10.683c0,6.545-1.435,11.377-4.307,14.5c-2.87,3.123-7.322,4.687-13.36,4.687H251.935z
			 M262.905,59.609h4.475c2.021,0,3.592-0.86,4.716-2.579c1.129-1.724,1.692-4.138,1.692-7.244c0-3.401-0.57-5.868-1.714-7.389
			c-1.145-1.521-3.008-2.279-5.592-2.279h-3.577V59.609z M262.905,91.075h4.772c2.37,0,4.108-0.822,5.216-2.472
			c1.103-1.655,1.654-4.244,1.654-7.773c0-3.897-0.621-6.679-1.856-8.344c-1.235-1.666-3.308-2.499-6.209-2.499h-3.577V91.075z"/>
		<path fill="#941B80" d="M290.735,46.305c0-5.648,1.538-10.074,4.61-13.277c3.073-3.208,7.322-4.81,12.74-4.81
			c5.121,0,9.179,1.644,12.168,4.933c2.993,3.289,4.486,7.773,4.486,13.454v36.73c0,6.284-1.479,11.126-4.436,14.532
			c-2.957,3.406-7.161,5.109-12.615,5.109c-5.518,0-9.725-1.692-12.615-5.082c-2.892-3.39-4.339-8.339-4.339-14.852V46.305z
			 M313.351,85.619V45.61c0-2.477-0.481-4.34-1.438-5.579c-0.957-1.238-2.374-1.857-4.258-1.857s-3.303,0.619-4.258,1.857
			c-0.959,1.239-1.436,3.102-1.436,5.579v40.008c0,2.478,0.477,4.346,1.436,5.601c0.955,1.254,2.374,1.885,4.258,1.885
			s3.301-0.63,4.258-1.885C312.869,89.964,313.351,88.096,313.351,85.619z"/>
		<path fill="#DE7A0D" d="M332.755,83.062V46.353c0-5.665,1.538-10.102,4.611-13.315c3.074-3.214,7.323-4.821,12.747-4.821
			c5.221,0,9.188,1.559,11.9,4.671c2.711,3.118,4.066,7.704,4.066,13.758v6.631h-10.632v-7.624c0-2.493-0.481-4.362-1.446-5.605
			c-0.964-1.25-2.394-1.874-4.29-1.874c-1.894,0-3.328,0.625-4.291,1.874c-0.963,1.244-1.446,3.112-1.446,5.605v39.981
			c0,2.472,0.483,4.335,1.446,5.59c0.963,1.249,2.397,1.879,4.291,1.879c1.896,0,3.326-0.63,4.29-1.879
			c0.965-1.254,1.446-3.118,1.446-5.59V74.456h-6.73v-9.113h17.362v36.116h-5.29l-2.126-4.981c-1.224,2.216-2.696,3.854-4.416,4.912
			c-1.725,1.052-3.806,1.585-6.254,1.585c-4.935,0-8.706-1.697-11.319-5.104C334.06,94.471,332.755,89.538,332.755,83.062z"/>
		<path fill="#E20613" d="M372.517,46.305c0-5.648,1.536-10.074,4.611-13.277c3.07-3.208,7.318-4.81,12.736-4.81
			c5.123,0,9.18,1.644,12.168,4.933c2.989,3.289,4.484,7.773,4.484,13.454v36.73c0,6.284-1.477,11.126-4.436,14.532
			c-2.959,3.406-7.159,5.109-12.613,5.109c-5.518,0-9.724-1.692-12.613-5.082c-2.894-3.39-4.338-8.339-4.338-14.852V46.305z
			 M395.128,85.619V45.61c0-2.477-0.479-4.34-1.435-5.579c-0.959-1.238-2.378-1.857-4.26-1.857c-1.884,0-3.305,0.619-4.262,1.857
			c-0.956,1.239-1.432,3.102-1.432,5.579v40.008c0,2.478,0.476,4.346,1.432,5.601c0.957,1.254,2.378,1.885,4.262,1.885
			c1.882,0,3.301-0.63,4.26-1.885C394.648,89.964,395.128,88.096,395.128,85.619z"/>
		<path fill="#308A2C" d="M410.358,40.117V29.739h34.007v10.378h-11.477v61.341h-11.054V40.117H410.358z"/>
		<path fill="#E5007E" d="M444.365,101.458l11.812-71.72h14.427l11.727,71.72H471l-2.229-15.439h-11.155l-2.38,15.439H444.365z
			 M465.632,26.108h-8.021l4.801-10.965h12.579L465.632,26.108z M459.005,75.806h8.426l-3.766-29.987h-0.698L459.005,75.806z"/>
		<path fill="#1D1D1B" d="M366.013,104.662c-4.43,0-9.517,1.469-12.964,3.74c-3.277,2.157-6.202,5.189-8.506,8.809
			c-3.25-4.007-8.225-5.178-13.723-3.118c-4.795,1.799-7.862,4.447-9.111,7.872c-2.45,6.719,2.253,15.077,6.404,22.452
			c0.802,1.425,1.576,2.805,2.266,4.113c0.227,0.433,0.766,0.945,2.043,0.945c1.676,0,4.391-0.977,5.057-2.077
			c0.297-0.495,0.17-0.899,0.063-1.099c-0.818-1.555-1.883-3.252-3.014-5.049c-4.213-6.703-9.457-15.042-4.781-21.552
			c1.268-1.764,2.563-2.659,3.848-2.659c3.12,0,6.162,5.494,6.969,9.434c0.089,0.438,0.467,1.169,1.962,1.169
			c1.565,0,4.873-1.015,5.284-2.405c1.339-4.505,3.742-8.785,6.956-12.378c2.206-2.456,5.464-3.982,8.504-3.982
			c2.115,0,4.043,0.729,5.573,2.101c2.257,2.023,1.332,6.14,0.271,9.503c-1.827,5.809-5.333,11.137-8.728,16.288l-0.798,1.215
			c-2.563,3.902-5.176,8.214-7.995,13.175c-0.396,0.702-0.838,1.431-1.292,2.181c-1.674,2.777-3.57,5.924-4.189,9.018
			c-0.072,0.363,0.011,0.712,0.233,0.987c0.346,0.419,0.995,0.633,1.931,0.633c1.555,0,4.741-0.706,5.07-2.339
			c0.753-3.772,3.272-7.775,5.494-11.31c0.719-1.148,1.419-2.259,2.036-3.319c1.858-3.2,3.896-6.363,5.867-9.423
			c0.984-1.524,1.967-3.051,2.932-4.586l0.563-0.886c3.808-5.998,10.895-17.159,5.759-23.461
			C373.874,106.045,370.419,104.662,366.013,104.662z"/>
		<polygon fill="#1D1D1B" points="274.007,122.993 258.448,122.993 258.448,106.72 251.935,106.72 251.935,147.3 258.448,147.3 
			258.448,129.292 274.007,129.292 274.007,147.3 280.556,147.3 280.556,106.72 274.007,106.72 		"/>
		<path fill="#1D1D1B" d="M308.723,131.804c0,3.241-0.684,5.734-2.035,7.416c-1.329,1.655-3.205,2.458-5.742,2.458
			c-2.532,0-4.405-0.803-5.726-2.458c-1.343-1.679-2.023-4.172-2.023-7.416V106.72h-6.544v25.329c0,4.81,1.307,8.703,3.886,11.567
			c2.595,2.893,6.097,4.361,10.407,4.361s7.819-1.468,10.422-4.359c2.589-2.864,3.901-6.756,3.901-11.569V106.72h-6.546V131.804z"/>
		<path fill="#1D1D1B" d="M396.037,106.08c-4.31,0-7.813,1.462-10.409,4.351c-2.577,2.864-3.884,6.764-3.884,11.598V147.3h6.544
			v-17.976h15.524V147.3h6.546v-25.271c0-4.834-1.313-8.737-3.898-11.601C403.849,107.542,400.344,106.08,396.037,106.08z
			 M388.288,122.136c0-3.254,0.679-5.755,2.021-7.434c1.317-1.655,3.193-2.461,5.728-2.461c2.537,0,4.413,0.806,5.741,2.464
			c1.349,1.682,2.034,4.18,2.034,7.432v0.894h-15.524V122.136z"/>
		<path fill="#1D1D1B" d="M441.709,137.284l-12.867-26.707c-0.689-1.398-1.468-2.466-2.323-3.176
			c-0.896-0.731-1.918-1.103-3.037-1.103c-1.59,0-2.832,0.587-3.7,1.743c-0.825,1.097-1.245,2.659-1.245,4.645V147.3h6.265v-30.636
			l12.916,26.88c0.66,1.396,1.447,2.464,2.34,3.177c0.93,0.739,1.999,1.112,3.174,1.112c1.519,0,2.726-0.598,3.585-1.777
			c0.814-1.116,1.229-2.658,1.229-4.583V106.72h-6.335V137.284z"/>
		<path fill="#1D1D1B" d="M479.77,110.431c-2.608-2.889-6.113-4.351-10.422-4.351c-4.308,0-7.811,1.462-10.407,4.351
			c-2.579,2.861-3.886,6.764-3.886,11.598V147.3h6.546v-17.976h15.521V147.3h6.547v-25.271
			C483.669,117.194,482.355,113.292,479.77,110.431z M461.601,122.136c0-3.254,0.679-5.755,2.021-7.434
			c1.32-1.655,3.19-2.461,5.726-2.461c2.537,0,4.417,0.806,5.745,2.464c1.345,1.679,2.029,4.18,2.029,7.432v0.894h-15.521V122.136z"
			/>
	</g>
	<g>
		<rect x="204.948" y="15.624" fill="#1D1D1B" width="2.733" height="149.212"/>
	</g>
	<g>
		<g>
			<g>
				<g>
					<g>
						<path fill="#1D1D1B" d="M23.491,144.075h-2.797l-1.101-2.897h-5.102l-1.055,2.897H10.71l4.955-12.734H18.4L23.491,144.075z
							 M18.754,139.019l-1.753-4.699l-1.716,4.699H18.754z"/>
					</g>
				</g>
				<g>
					<g>
						<polygon fill="#1D1D1B" points="24.179,144.072 24.179,131.448 26.754,131.448 26.754,141.918 33.138,141.918 33.138,144.072 
													"/>
					</g>
				</g>
				<g>
					<g>
						<path fill="#1D1D1B" d="M42.382,139.367l2.49,0.798c-0.381,1.392-1.019,2.424-1.903,3.113
							c-0.894,0.672-2.021,1.007-3.386,1.007c-1.692,0-3.081-0.574-4.173-1.728c-1.093-1.153-1.634-2.738-1.634-4.739
							c0-2.117,0.541-3.753,1.642-4.931c1.098-1.169,2.535-1.76,4.318-1.76c1.562,0,2.829,0.462,3.806,1.383
							c0.569,0.537,1.01,1.33,1.303,2.345l-2.553,0.61c-0.144-0.658-0.458-1.186-0.937-1.561c-0.48-0.386-1.064-0.577-1.737-0.577
							c-0.953,0-1.717,0.343-2.312,1.021c-0.587,0.672-0.884,1.766-0.884,3.28c0,1.611,0.292,2.751,0.874,3.437
							c0.579,0.68,1.33,1.024,2.259,1.024c0.683,0,1.277-0.221,1.764-0.658C41.81,140.997,42.163,140.309,42.382,139.367"/>
					</g>
				</g>
				<g>
					<g>
						<path fill="#1D1D1B" d="M57.818,144.075h-2.8l-1.11-2.897h-5.089l-1.061,2.897h-2.729l4.96-12.734h2.73L57.818,144.075z
							 M53.078,139.019l-1.755-4.699l-1.722,4.699H53.078z"/>
					</g>
				</g>
				<g>
					<g>
						<polygon fill="#1D1D1B" points="58.499,144.072 58.499,131.448 61.07,131.448 61.07,141.918 67.461,141.918 67.461,144.072 
													"/>
					</g>
				</g>
				<g>
					<g>
						<path fill="#1D1D1B" d="M68.536,131.341h4.699c1.06,0,1.871,0.082,2.428,0.243c0.74,0.215,1.381,0.616,1.913,1.176
							c0.541,0.557,0.941,1.25,1.22,2.055c0.279,0.818,0.416,1.819,0.416,3.013c0,1.048-0.128,1.953-0.388,2.713
							c-0.318,0.93-0.776,1.673-1.366,2.247c-0.446,0.44-1.05,0.777-1.807,1.015c-0.569,0.181-1.331,0.27-2.275,0.27h-4.84V131.341z
							 M71.114,133.504v8.414h1.916c0.727,0,1.234-0.04,1.556-0.128c0.425-0.097,0.765-0.271,1.044-0.519
							c0.276-0.258,0.496-0.665,0.672-1.231c0.165-0.575,0.258-1.34,0.258-2.325c0-0.984-0.093-1.736-0.258-2.264
							c-0.177-0.522-0.416-0.937-0.727-1.235c-0.321-0.286-0.713-0.488-1.192-0.601c-0.367-0.071-1.067-0.11-2.113-0.11H71.114z"/>
					</g>
				</g>
				<g>
					<g>
						<path fill="#1D1D1B" d="M81.215,130.173l1.192-2.593h2.735l-2.379,2.593H81.215z M80.574,131.341h2.573v12.731h-2.573V131.341
							z"/>
					</g>
				</g>
				<g>
					<g>
						<path fill="#1D1D1B" d="M96.332,144.075h-2.797l-1.11-2.897h-5.092l-1.057,2.897h-2.729l4.959-12.734h2.74L96.332,144.075z
							 M91.6,139.019l-1.758-4.699l-1.721,4.699H91.6z"/>
					</g>
				</g>
				<g>
					<g>
						<polygon fill="#1D1D1B" points="100.446,144.072 100.446,131.341 104.296,131.341 106.599,140.029 108.886,131.341 
							112.738,131.341 112.738,144.072 110.352,144.072 110.349,134.053 107.819,144.072 105.341,144.072 102.837,134.053 
							102.826,144.072 						"/>
					</g>
				</g>
				<g>
					<g>
						<path fill="#1D1D1B" d="M126.044,144.075h-2.794l-1.118-2.897h-5.091l-1.063,2.897h-2.723l4.951-12.734h2.744L126.044,144.075
							z M121.308,139.019l-1.761-4.699l-1.726,4.699H121.308z"/>
					</g>
				</g>
				<g>
					<g>
						<polygon fill="#1D1D1B" points="128.357,144.072 128.357,138.718 123.697,131.341 126.709,131.341 129.722,136.388 
							132.657,131.341 135.613,131.341 130.938,138.731 130.938,144.072 						"/>
					</g>
				</g>
				<g>
					<g>
						<path fill="#1D1D1B" d="M135.613,137.789c0-1.299,0.202-2.388,0.58-3.262c0.296-0.656,0.689-1.238,1.181-1.742
							c0.504-0.521,1.064-0.905,1.653-1.155c0.788-0.334,1.707-0.501,2.746-0.501c1.87,0,3.375,0.583,4.505,1.744
							c1.122,1.164,1.675,2.786,1.675,4.856c0,2.052-0.554,3.668-1.661,4.816c-1.119,1.167-2.621,1.741-4.485,1.741
							c-1.903,0-3.394-0.574-4.526-1.728C136.171,141.406,135.613,139.813,135.613,137.789 M138.268,137.704
							c0,1.436,0.333,2.533,0.999,3.269c0.657,0.745,1.517,1.118,2.541,1.118c1.013,0,1.862-0.374,2.513-1.109
							c0.66-0.732,0.987-1.841,0.987-3.318c0-1.453-0.308-2.542-0.959-3.26c-0.637-0.714-1.494-1.074-2.541-1.074
							c-1.059,0-1.923,0.368-2.567,1.089C138.589,135.146,138.268,136.238,138.268,137.704z"/>
					</g>
				</g>
				<g>
					<g>
						<path fill="#1D1D1B" d="M149.234,144.072v-12.731h5.409c1.36,0,2.354,0.115,2.97,0.345c0.618,0.224,1.119,0.632,1.474,1.218
							c0.378,0.591,0.564,1.257,0.564,2.018c0,0.954-0.281,1.732-0.837,2.362c-0.565,0.618-1.394,1.016-2.507,1.175
							c0.549,0.321,1.011,0.677,1.366,1.069c0.368,0.384,0.848,1.067,1.454,2.062l1.569,2.482h-3.088l-1.841-2.771
							c-0.667-0.99-1.124-1.608-1.354-1.875c-0.254-0.255-0.503-0.425-0.771-0.527c-0.291-0.089-0.721-0.136-1.307-0.136h-0.517
							v5.308H149.234z M151.818,136.73h1.895c1.238,0,1.992-0.056,2.299-0.151c0.325-0.105,0.552-0.29,0.728-0.545
							c0.176-0.253,0.256-0.577,0.256-0.951c0-0.425-0.106-0.77-0.345-1.038c-0.223-0.262-0.532-0.438-0.961-0.5
							c-0.194-0.024-0.822-0.038-1.866-0.038h-2.005V136.73z"/>
					</g>
				</g>
			</g>
			<g>
				<g>
					<g>
						<rect x="134.128" y="162.26" fill="#1D1D1B" width="2.393" height="2.397"/>
					</g>
				</g>
				<g>
					<g>
						<path fill="#1D1D1B" d="M18.866,152.11h4.622c1.044,0,1.83,0.081,2.382,0.24c0.731,0.217,1.357,0.604,1.888,1.149
							c0.523,0.552,0.921,1.229,1.191,2.032c0.278,0.8,0.409,1.784,0.409,2.949c0,1.043-0.127,1.928-0.379,2.671
							c-0.314,0.91-0.76,1.644-1.336,2.206c-0.442,0.433-1.041,0.767-1.783,0.999c-0.558,0.185-1.301,0.27-2.231,0.27h-4.762V152.11
							z M21.397,154.235v8.265h1.893c0.709,0,1.217-0.038,1.531-0.115c0.408-0.102,0.748-0.278,1.019-0.52
							c0.27-0.245,0.487-0.65,0.663-1.201c0.17-0.559,0.258-1.333,0.258-2.291c0-0.967-0.088-1.709-0.258-2.221
							c-0.176-0.52-0.41-0.923-0.717-1.213c-0.306-0.289-0.699-0.481-1.172-0.584c-0.35-0.073-1.043-0.12-2.078-0.12H21.397z"/>
					</g>
				</g>
				<g>
					<g>
						<polygon fill="#1D1D1B" points="30.777,164.625 30.777,152.11 40.049,152.11 40.049,154.235 33.312,154.235 33.312,157 
							39.574,157 39.574,159.123 33.312,159.123 33.312,162.5 40.292,162.5 40.292,164.625 						"/>
					</g>
				</g>
				<g>
					<g>
						<path fill="#1D1D1B" d="M45.83,152.112h5.008c0.98,0,1.715,0.042,2.208,0.126c0.482,0.084,0.918,0.247,1.303,0.514
							c0.387,0.257,0.704,0.611,0.961,1.035c0.254,0.441,0.38,0.928,0.38,1.466c0,0.588-0.151,1.127-0.466,1.614
							c-0.314,0.495-0.747,0.855-1.279,1.099c0.761,0.229,1.339,0.608,1.748,1.131c0.417,0.544,0.62,1.166,0.62,1.895
							c0,0.57-0.132,1.125-0.398,1.662c-0.265,0.538-0.631,0.965-1.078,1.288c-0.465,0.325-1.033,0.524-1.703,0.603
							c-0.418,0.039-1.441,0.065-3.045,0.076h-4.26V152.112z M48.364,154.188v2.892h1.649c0.985,0,1.59-0.017,1.835-0.041
							c0.427-0.049,0.764-0.206,1.015-0.45c0.249-0.242,0.374-0.569,0.374-0.974c0-0.386-0.111-0.701-0.322-0.945
							c-0.208-0.243-0.531-0.383-0.953-0.432c-0.244-0.032-0.964-0.051-2.156-0.051H48.364z M48.364,159.165v3.333h2.333
							c0.908,0,1.493-0.019,1.741-0.072c0.372-0.069,0.681-0.239,0.921-0.495c0.234-0.266,0.353-0.62,0.353-1.063
							c0-0.377-0.092-0.7-0.273-0.957c-0.187-0.263-0.448-0.447-0.789-0.571c-0.353-0.123-1.096-0.176-2.246-0.176H48.364z"/>
					</g>
				</g>
				<g>
					<g>
						<path fill="#1D1D1B" d="M57.196,158.439c0-1.271,0.191-2.332,0.563-3.203c0.29-0.634,0.682-1.205,1.171-1.72
							c0.487-0.497,1.027-0.874,1.622-1.118c0.777-0.331,1.669-0.499,2.696-0.499c1.846,0,3.316,0.57,4.418,1.721
							c1.111,1.136,1.66,2.727,1.66,4.77c0,2.011-0.543,3.597-1.644,4.728c-1.098,1.144-2.565,1.716-4.405,1.716
							c-1.858,0-3.338-0.573-4.43-1.697C57.743,162.003,57.196,160.433,57.196,158.439 M59.802,158.359
							c0,1.415,0.329,2.485,0.982,3.212c0.653,0.738,1.487,1.101,2.491,1.101c1.006,0,1.833-0.363,2.483-1.085
							c0.642-0.724,0.963-1.813,0.963-3.263c0-1.428-0.313-2.498-0.94-3.204c-0.627-0.704-1.468-1.056-2.506-1.056
							c-1.039,0-1.879,0.36-2.515,1.07C60.123,155.85,59.802,156.919,59.802,158.359z"/>
					</g>
				</g>
				<g>
					<g>
						<path fill="#1D1D1B" d="M76.395,160.048v-2.126h5.446v4.973c-0.534,0.507-1.294,0.963-2.302,1.355
							c-1.004,0.39-2.023,0.585-3.05,0.585c-1.314,0-2.446-0.273-3.42-0.832c-0.971-0.538-1.703-1.328-2.195-2.346
							c-0.481-1.022-0.737-2.13-0.737-3.331c0-1.305,0.281-2.463,0.829-3.466c0.542-1.022,1.342-1.794,2.393-2.337
							c0.801-0.414,1.8-0.624,2.996-0.624c1.553,0,2.765,0.329,3.644,0.972c0.871,0.652,1.429,1.552,1.682,2.706l-2.509,0.477
							c-0.177-0.617-0.51-1.099-0.993-1.457c-0.492-0.359-1.09-0.535-1.824-0.535c-1.099,0-1.975,0.35-2.624,1.05
							c-0.651,0.704-0.981,1.733-0.981,3.111c0,1.477,0.331,2.595,0.992,3.329c0.657,0.747,1.517,1.118,2.586,1.118
							c0.53,0,1.065-0.106,1.591-0.307c0.535-0.209,0.981-0.452,1.365-0.754v-1.563H76.395z"/>
					</g>
				</g>
				<g>
					<g>
						<path fill="#1D1D1B" d="M82.925,158.439c0-1.271,0.186-2.332,0.569-3.203c0.282-0.634,0.674-1.205,1.167-1.72
							c0.495-0.497,1.029-0.874,1.618-1.118c0.783-0.331,1.673-0.499,2.698-0.499c1.826,0,3.314,0.57,4.433,1.721
							c1.087,1.136,1.645,2.727,1.645,4.77c0,2.011-0.555,3.597-1.636,4.728c-1.099,1.144-2.566,1.716-4.411,1.716
							c-1.863,0-3.343-0.573-4.437-1.697C83.471,162.003,82.925,160.433,82.925,158.439 M85.534,158.359
							c0,1.415,0.319,2.485,0.976,3.212c0.654,0.738,1.489,1.101,2.487,1.101c1.007,0,1.83-0.363,2.495-1.085
							c0.647-0.724,0.962-1.813,0.962-3.263c0-1.428-0.304-2.498-0.932-3.204c-0.638-0.704-1.478-1.056-2.524-1.056
							c-1.039,0-1.875,0.36-2.51,1.07C85.847,155.85,85.534,156.919,85.534,158.359z"/>
					</g>
				</g>
				<g>
					<g>
						<polygon fill="#1D1D1B" points="99.132,164.625 99.132,154.235 95.422,154.235 95.422,152.11 105.369,152.11 105.369,154.235 
							101.662,154.235 101.662,164.625 						"/>
					</g>
				</g>
				<g>
					<g>
						<path fill="#1D1D1B" d="M117.544,164.625h-2.757l-1.089-2.849h-5.005l-1.027,2.849h-2.686l4.868-12.516h2.686L117.544,164.625
							z M112.884,159.653l-1.733-4.625l-1.673,4.625H112.884z M110.275,150.966l1.174-2.55h2.681l-2.339,2.55H110.275z"/>
					</g>
				</g>
				<g>
					<g>
						<path fill="#1D1D1B" d="M122.249,152.11h4.631c1.03,0,1.831,0.081,2.379,0.24c0.728,0.217,1.364,0.604,1.887,1.149
							c0.512,0.552,0.921,1.229,1.195,2.032c0.27,0.8,0.403,1.786,0.403,2.949c0,1.043-0.125,1.928-0.381,2.671
							c-0.311,0.91-0.769,1.644-1.343,2.206c-0.435,0.433-1.03,0.767-1.77,0.999c-0.564,0.185-1.316,0.27-2.243,0.27h-4.76V152.11z
							 M124.78,154.235v8.265h1.887c0.714,0,1.215-0.038,1.533-0.115c0.413-0.102,0.749-0.278,1.027-0.52
							c0.265-0.245,0.482-0.65,0.658-1.201c0.17-0.559,0.25-1.333,0.25-2.291c0-0.967-0.079-1.709-0.25-2.221
							c-0.176-0.52-0.411-0.923-0.729-1.213c-0.297-0.289-0.694-0.481-1.159-0.584c-0.354-0.073-1.046-0.12-2.077-0.12H124.78z"/>
					</g>
				</g>
				<g>
					<g>
						<path fill="#1D1D1B" d="M146.292,160.001l2.44,0.778c-0.381,1.369-0.998,2.393-1.863,3.058
							c-0.876,0.659-1.984,0.998-3.332,0.998c-1.665,0-3.021-0.568-4.089-1.697c-1.082-1.136-1.617-2.688-1.617-4.663
							c0-2.079,0.541-3.697,1.619-4.841c1.076-1.158,2.496-1.735,4.24-1.735c1.53,0,2.783,0.456,3.736,1.364
							c0.571,0.524,1.001,1.307,1.284,2.308l-2.502,0.596c-0.142-0.649-0.466-1.164-0.93-1.537
							c-0.467-0.375-1.042-0.567-1.699-0.567c-0.947,0-1.698,0.331-2.274,0.997c-0.58,0.668-0.862,1.742-0.862,3.233
							c0,1.577,0.279,2.703,0.854,3.372c0.563,0.674,1.297,1.007,2.213,1.007c0.681,0,1.26-0.219,1.736-0.645
							C145.733,161.601,146.087,160.924,146.292,160.001"/>
					</g>
				</g>
				<g>
					<g>
						<rect x="150.138" y="162.292" fill="#1D1D1B" width="2.401" height="2.393"/>
					</g>
				</g>
			</g>
		</g>
		<g>
			<g>
				<path fill-rule="evenodd" clip-rule="evenodd" fill="#004993" d="M40.644,15.624c13.869,7.356,30.848,7.384,44.753,0.104
					c14.011,7.207,30.805,7.293,44.75-0.104v80.203c0,9.814-8.2,17.606-18.202,17.606c-9.68,0-18.216,1.436-26.548,6.68
					c-8.333-5.331-16.954-6.68-26.65-6.68c-10.02,0-18.104-7.792-18.104-17.606V15.624z"/>
			</g>
			<g>
				<path fill-rule="evenodd" clip-rule="evenodd" fill="#FFD400" d="M55.906,87.625c0,6.405,4.898,11.647,11.659,11.647
					c6.597,0,12.022,0.717,17.752,4.307c5.688-3.559,11.081-4.307,17.633-4.307c6.755,0,12.494-5.242,12.494-11.647l0.063-53.925
					c-7.272,3.785-22.866,1.298-29.828-2.327c-6.888,3.586-22.651,6.168-29.829,2.327"/>
			</g>
			<g>
				<path fill-rule="evenodd" clip-rule="evenodd" fill="#E10714" d="M92.577,85.855c-0.128,1.315,0.222,2.633,1.258,3.73
					c0.901,1.101,2.154,1.648,3.408,1.648c0.105-1.313-0.333-2.745-1.254-3.837C94.955,86.405,93.709,85.855,92.577,85.855
					 M109.885,75.639c0.336-0.546,1.817-0.983,2.502,0l0.23-0.22c0,0-0.558-1.532-1.708-1.32c0,0,0.689-1.859,0.338-2.08
					c-0.338-0.114-1.696,1.313-1.696,1.313c-0.353-1.092-2.068-1.092-2.068-1.092v0.436c1.149,0.111,1.377,1.646,1.027,2.198
					C108.405,75.203,109.651,75.965,109.885,75.639z M108.511,80.477c1.251-1.982,1.251-4.175,0.228-4.722
					c-1.021-0.552-2.951,0.435-4.203,2.415c-1.366,1.866-1.036,3.514,0,4.061C105.546,82.891,107.15,82.45,108.511,80.477z
					 M78.222,85.855c0.116,1.315-0.223,2.633-1.25,3.73c-0.913,1.101-2.165,1.648-3.42,1.648c-0.111-1.313,0.347-2.745,1.255-3.837
					C75.834,86.405,77.086,85.855,78.222,85.855z M60.912,75.639c-0.339-0.546-1.826-0.983-2.508,0l-0.219-0.22
					c0,0,0.561-1.532,1.706-1.32c0,0-0.682-1.859-0.343-2.08c0.343-0.114,1.703,1.313,1.703,1.313
					c0.344-1.092,2.057-1.092,2.057-1.092v0.436c-1.142,0.111-1.368,1.646-1.026,2.198C62.395,75.203,61.14,75.965,60.912,75.639z
					 M62.281,80.477c-1.252-1.982-1.252-4.175-0.226-4.722c1.021-0.552,2.951,0.435,4.208,2.415c1.37,1.866,1.029,3.514,0,4.061
					C65.243,82.891,63.646,82.45,62.281,80.477z M71.504,94.97c-0.448-2.158,0.748-6.958-4.705-10.77
					c-3.12,3.588-4.518,0.887-4.518,0.887c0.833-0.3,2.829-0.787,3.85-2.312c-2.523,1.402-5.275,1.008-6.472-0.876
					c-1.255-1.974-0.223-4.833,2.281-6.365c2.506-1.543,5.571-1.213,6.826,0.767c1.216,1.915,0.294,4.544-2.036,6.107
					c1.679,0.145,3.864-2.154,3.864-2.154c0.956,1.771-0.79,2.765-2.158,3.249c5.344,3.636,5.36,10.002,5.685,11.576L71.504,94.97z
					 M99.286,94.97c0.449-2.158-0.751-6.958,4.721-10.77c3.102,3.588,4.504,0.887,4.504,0.887c-0.832-0.3-2.814-0.787-3.844-2.312
					c2.524,1.402,5.273,1.008,6.471-0.876c1.25-1.974,0.233-4.833-2.277-6.365c-2.504-1.543-5.583-1.213-6.829,0.767
					c-1.218,1.915-0.304,4.544,2.043,6.107c-1.694,0.145-3.875-2.154-3.875-2.154c-0.956,1.771,0.794,2.765,2.151,3.249
					c-5.326,3.636-5.338,10.002-5.686,11.576L99.286,94.97z"/>
			</g>
			<g>
				<path fill-rule="evenodd" clip-rule="evenodd" fill="#1D1D1B" d="M82.632,43.905c0-0.66,0.455-1.102,1.13-1.102
					c0.574,0,1.026,0.442,1.026,1.102c0,0.545-0.452,0.983-1.026,0.983C83.086,44.888,82.632,44.451,82.632,43.905 M87.87,40.609
					l2.28-3.518l-3.535,1.326l-1.257-3.181l-1.366,3.181l-3.642-1.326l2.392,3.518H87.87z M89.185,72.729
					c-1.884-1.441,0.23-2.072,0.731-1.59c4.673,3.955,8.887,1.215,8.887,1.215c-3.309-1.11-4.895-4.841-4.895-4.841
					c6.831,3.957,12.064-0.542,12.064-0.542c-4.544,0.767-8.084-3.518-8.084-3.518c7.06,1.647,11.951-3.072,11.951-3.072
					c-2.617,0.213-9.1-2.527-9.1-2.527c10.361-0.326,11.272-7.695,11.385-7.695c-2.853,1.874-10.479,0.991-10.479,0.991
					c10.824-3.84,10.021-12.73,10.021-12.73c-2.29,3.4-12.744,6.695-12.744,6.695c-2.851,0.873-5.127,3.41-5.127,6.366
					c-0.123,1.21-1.252,2.198-2.501,2.198c-2.789,0-2.746-4.027-2.746-5.933c0-2.855-0.109-6.142-2.163-6.142h-4.098
					c-0.743,0-2.012-0.082-2.539,0.551c-1.064,1.231-0.899,4.486-0.423,3.833c0,0,1.596-0.438,2.618,0
					c1.32,0.383,0.344,4.489,0.344,5.387c0,1.207-1.138,2.304-2.507,2.304c-1.252,0-2.39-0.988-2.51-2.198
					c0-2.956-2.273-5.493-5.006-6.366c0,0-10.703-3.295-12.977-6.695c0,0-0.801,8.996,10.128,12.955c0,0-7.74,0.658-10.585-1.216
					c0.111,0,1.474,7.695,11.837,8.026c0,0-6.828,2.303-9.33,1.973c0,0,4.888,5.603,12.183,3.956c0,0-3.989,3.624-8.549,2.857
					c0,0,5.133,4.6,12.081,0.767c0,0-1.485,3.507-4.788,4.617c0,0,4.212,2.74,8.993-1.215c0.609-0.678,2.556,0.105,0.609,1.594
					c-2.604,1.985-6.311,2.467-7.893,5.762l1.917,0.376c-2.156,2.181-5.036,5.263-5.335,5.337c0,0-0.679-0.986-2.844,0.11
					c-1.142,0.549-1.709,1.973-0.911,2.528c0,0-0.341,1.757,1.708,1.643c0,0,0.796,1.432,2.506,0.331
					c1.597-1.101-0.116-0.767-0.347-1.203c-0.223-0.338,0.118-0.219,0.118-0.219c0.795-0.119,1.826-0.992,1.133-1.757
					c-0.074-0.144,3.707-2.498,6.481-4.193l0.356,1.775c0.959-1.286,2.356-2.151,3.96-2.632c-1.713,2.343-2.754,5.03-2.136,8.784
					c0,0,0.449-1.428,2.733-1.656c0,0-3.191,3.85,1.933,11.317c5.121-7.467,2.168-11.317,2.168-11.317
					c2.271,0.228,2.842,1.656,2.842,1.656c0.516-3.792-0.47-6.5-2.276-8.856c1.648,0.459,2.97,1.353,3.986,2.704l0.362-1.819
					c2.746,1.703,6.541,4.093,6.474,4.237c-0.695,0.765,0.443,1.638,1.129,1.757c0,0,0.233-0.119,0.123,0.219
					c-0.233,0.437-1.946,0.102-0.347,1.203c1.602,1.101,2.503-0.331,2.503-0.331c2.047,0.114,1.719-1.643,1.719-1.643
					c0.788-0.555,0.222-1.979-1.032-2.528c-2.158-1.096-2.843-0.11-2.843-0.11c-0.228-0.075-3.079-3.161-5.196-5.343l1.883-0.371
					C95.366,75.337,91.681,74.645,89.185,72.729z"/>
			</g>
			<g>
				<g>
					<path fill="#FFD400" d="M47.883,38.037c-1.544,0.548-3.167-0.074-4.076-0.272c0,0-0.298,2.532,3.563,1.721
						c-0.194,2.002,1.023,3.491,1.559,5.464c-0.274-0.338-0.615-0.639-1.024-0.925c-1.142-0.656-2.504-0.873-3.754-0.656
						c0.105,0.99,0.678,2.082,1.819,2.748c0.97,0.652,2.099,0.908,3.189,0.829c-0.039,0.962-0.296,2.054-0.915,3.344l1.825,1.426
						c0.912-1.758,1.139-5.821-0.227-8.674c-0.929-1.953-1.113-2.705-1-3.446c1.244,0.448,3.736,1.068,4.072-1.063
						c0,0-2.788,0.451-4.081-0.433c2.527-0.074,4.667-1.559,4.878-3.52c0.117-2.088-1.94-3.952-4.67-4.06
						c-2.728-0.222-5.122,1.32-5.353,3.4C43.583,35.885,45.39,37.654,47.883,38.037z M49.042,30.627
						c1.028,0.111,1.823,1.864,1.708,4.063c-0.113,2.089-1.253,3.187-2.275,3.074c-1.138-0.106-2.049-1.318-1.938-3.405
						C46.653,32.166,47.906,30.52,49.042,30.627z"/>
					<path fill="#FFD400" d="M89.344,28.319c-0.683,0.765,0.12,1.98,0.12,1.98h0.332c-0.332-1.096,0.692-1.98,1.378-1.98
						c0.33,0,0.33-1.318,0-1.318c-0.578,0-1.71-0.879-1.145-1.863l-0.344-0.115c0,0-0.91,1.207-0.222,1.978
						c0,0-1.941,0.33-1.941,0.656C87.522,27.992,89.344,28.319,89.344,28.319z"/>
					<path fill="#FFD400" d="M48.357,29.751c0,0.327,1.375,0.439,1.485,0.105c0-0.545,1.021-1.533,2.044-1.099l0.118-0.215
						c0,0-1.141-0.995-2.055-0.335c0,0-0.217-1.754-0.569-1.754c-0.339-0.109-0.907,1.648-0.907,1.648
						c-0.688-0.66-2.049,0.106-2.049,0.106l0.111,0.335C47.564,28.103,48.357,29.204,48.357,29.751z"/>
					<path fill="#FFD400" d="M121.508,29.857c0,0.334,1.479,0.222,1.479-0.105c-0.105-0.548,0.8-1.649,1.828-1.208l0.116-0.335
						c0,0-1.372-0.766-2.049-0.106c0,0-0.572-1.757-0.908-1.648c-0.347,0-0.586,1.754-0.586,1.754
						c-0.899-0.66-2.045,0.335-2.045,0.335l0.122,0.215C120.49,28.324,121.508,29.312,121.508,29.857z"/>
					<path fill="#FFD400" d="M123.156,62.142c0-0.555,1.019-1.542,2.042-1.101l0.128-0.33c0,0-1.152-0.881-2.057-0.224
						c0,0-0.225-1.752-0.578-1.752c-0.327-0.112-0.913,1.642-0.913,1.642c-0.669-0.653-2.031,0.111-2.031,0.111l0.11,0.33
						c1.01-0.441,1.921,0.664,1.813,1.206C121.671,62.358,123.156,62.468,123.156,62.142z"/>
					<path fill="#FFD400" d="M122.518,38.099c-1.294,0.884-4.077,0.433-4.077,0.433c0.335,2.123,2.819,1.512,4.065,1.063
						c0.102,0.742-0.068,1.493-0.999,3.446c-1.48,2.853-1.129,6.916-0.225,8.674l1.821-1.426c-0.639-1.29-0.91-2.386-0.967-3.344
						c1.102,0.089,2.254-0.164,3.258-0.829c1.007-0.666,1.699-1.757,1.815-2.748c-1.258-0.217-2.623,0-3.759,0.656
						c-0.484,0.325-0.862,0.681-1.149,1.068c0.495-2.039,1.801-3.556,1.645-5.611c3.915,0.823,3.6-1.718,3.6-1.718
						c-0.9,0.199-2.536,0.823-4.072,0.277c2.488-0.383,4.289-2.157,4.18-4.122c-0.22-2.08-2.616-3.622-5.344-3.4
						c-2.74,0.108-4.786,1.972-4.675,4.06C117.864,36.54,119.986,38.03,122.518,38.099z M122.311,30.627
						c1.141-0.108,2.396,1.539,2.505,3.732c0.116,2.087-0.917,3.299-1.933,3.405c-1.146,0.113-2.288-0.985-2.393-3.074
						C120.379,32.492,121.283,30.738,122.311,30.627z"/>
					<path fill="#FFD400" d="M51.468,60.818l0.107-0.33c0,0-1.362-0.764-2.046-0.111c0,0-0.569-1.753-0.91-1.642
						c-0.338,0-0.568,1.752-0.568,1.752c-0.914-0.658-2.046,0.224-2.046,0.224l0.112,0.33c1.021-0.441,2.054,0.546,2.054,1.101
						c0.111,0.326,1.468,0.216,1.468-0.118C49.529,61.482,50.439,60.377,51.468,60.818z"/>
					<path fill="#FFD400" d="M80.006,28.319c0.686,0,1.707,0.884,1.371,1.98h0.336c0,0,0.8-1.216,0.123-1.98
						c0,0,1.813-0.328,1.813-0.662c0-0.326-1.936-0.656-1.936-0.656c0.684-0.771-0.23-1.978-0.23-1.978l-0.341,0.115
						c0.571,0.984-0.56,1.863-1.135,1.863C79.667,27.001,79.667,28.319,80.006,28.319z"/>
					<path fill="#FFD400" d="M47.937,83.988l1.827-1.419c-2.621-5.449,1.193-7.381,0.865-10.803c3.872,0.812,3.575-1.72,3.575-1.72
						c-0.945,0.199-2.672,0.875-4.272,0.199c2.585-0.228,4.488-2.03,4.382-4.041c-0.229-2.092-2.618-3.626-5.353-3.523
						c-2.736,0.223-4.78,2.091-4.672,4.179c0.223,1.998,2.425,3.491,5.011,3.426c-1.229,1.006-4.208,0.524-4.208,0.524
						c0.339,2.125,2.823,1.513,4.075,1.066c0.103,0.74-0.08,1.492-0.997,3.441c-0.169,0.343-0.305,0.692-0.421,1.057
						c-0.106-0.707-0.49-1.415-1.184-1.93c-0.903-0.886-2.157-1.329-3.412-1.215c-0.226,0.988,0.113,2.088,1.027,2.969
						c0.854,0.819,2.106,1.256,3.286,1.214C46.94,79.9,47.236,82.637,47.937,83.988z M47.257,66.972
						c-0.121-2.199,0.679-3.953,1.703-4.067c1.14-0.106,2.395,1.538,2.508,3.737c0.107,2.086-0.794,3.293-1.939,3.404
						C48.508,70.154,47.367,69.054,47.257,66.972z"/>
					<path fill="#FFD400" d="M48.234,94.321c0.11,0.228,1.362-0.543,1.136-0.763c-0.343-0.551-0.117-1.871,1.03-2.092l-0.117-0.327
						c0,0-1.477,0-1.825,0.986c0,0-1.25-1.313-1.593-1.096c-0.343,0.223,0.459,1.868,0.459,1.868
						c-1.139-0.221-1.711,1.21-1.711,1.21l0.227,0.213C46.521,93.334,47.891,93.778,48.234,94.321z"/>
					<path fill="#FFD400" d="M124.029,92.898c0,0,0.697-1.645,0.461-1.868c-0.342-0.216-1.59,1.096-1.59,1.096
						c-0.356-0.986-1.828-0.986-1.828-0.986l-0.111,0.327c1.133,0.221,1.261,1.542,0.905,2.092c-0.113,0.22,1.141,0.991,1.258,0.763
						c0.344-0.543,1.712-0.987,2.282,0l0.335-0.213C125.742,94.108,125.162,92.677,124.029,92.898z"/>
					<path fill="#FFD400" d="M113.718,30.521l-1.377-1.869c-1.378,0.507-2.53,0.662-3.526,0.627c0.188-0.99,0.026-2.118-0.563-3.157
						c-0.575-1.099-1.608-1.759-2.727-1.974c-0.352,1.21-0.248,2.528,0.447,3.623c0.242,0.462,0.555,0.857,0.925,1.176
						c-1.998-0.631-3.428-1.942-5.466-2.019c1.011-3.648-1.617-3.555-1.617-3.555c0.112,0.817,0.706,2.556-0.104,4.031
						c-0.045-2.471-1.693-4.465-3.765-4.465c-2.271,0-4.089,2.084-4.089,4.718c-0.111,2.643,1.587,4.835,3.756,4.835
						c2.2,0,3.975-1.957,4.089-4.475c0.93,1.26,0.23,4.037,0.23,4.037c2.094-0.081,1.715-2.604,1.431-3.793
						c0.712,0.026,1.54,0.287,3.358,1.265C107.563,31.173,111.792,31.173,113.718,30.521z M95.945,29.746
						c-2.156-0.11-3.867-0.988-3.972-2.089c0-0.981,1.815-2.085,4.085-2.085c2.166,0.116,3.313,1.209,3.313,2.199
						C99.479,28.873,98.225,29.86,95.945,29.746z"/>
					<path fill="#FFD400" d="M128.274,73.229c-1.368-0.113-2.608,0.33-3.52,1.215c-0.611,0.506-1.015,1.216-1.146,1.917
						c-0.13-0.36-0.281-0.706-0.452-1.044c-0.923-1.95-1.11-2.701-1.007-3.441c1.248,0.447,3.73,1.064,4.078-1.066
						c0,0-2.982,0.482-4.209-0.524c2.584,0.065,4.792-1.428,5.009-3.426c0.111-2.088-1.938-3.956-4.661-4.179
						c-2.744-0.104-5.124,1.431-5.361,3.523c-0.116,2.01,1.792,3.813,4.38,4.041c-1.597,0.676-3.312,0-4.143-0.199
						c0,0-0.413,2.541,3.468,1.716c-0.236,3.426,3.574,5.354,0.856,10.807l1.807,1.419c0.708-1.351,1.076-4.088,0.521-6.575
						c1.179,0.029,2.408-0.408,3.244-1.214C128.052,75.318,128.383,74.217,128.274,73.229z M119.858,66.642
						c0.108-2.2,1.357-3.843,2.507-3.737c1.007,0.114,1.931,1.868,1.81,4.067c-0.105,2.082-1.244,3.183-2.396,3.074
						C120.766,69.935,119.748,68.728,119.858,66.642z"/>
					<path fill="#FFD400" d="M122.223,94.435c-2.285-1.427-5.133-1.207-6.269,0.547c-1.21,1.696-0.41,4.197,1.682,5.653
						c-1.577,0.064-3.625-1.918-3.625-1.918c-1.024,1.818,1.361,2.766,2.61,3.125c-0.384,0.676-1.016,1.173-2.954,2.15
						c-2.951,1.428-5.228,4.833-5.688,6.803l2.395-0.105c0.287-1.375,0.754-2.382,1.307-3.17c0.833,0.677,1.84,1.098,3.022,1.193
						c1.356,0.112,2.503-0.438,3.295-1.213c-0.908-0.872-2.043-1.531-3.418-1.531c-0.538-0.046-1.041-0.005-1.514,0.118
						c1.662-1.269,3.588-1.75,4.777-3.472c2.609,2.838,3.911,0.609,3.911,0.609c-0.823-0.297-2.607-0.787-3.523-2.208
						c2.307,1.292,4.843,0.915,6.035-0.758C125.407,98.505,124.491,95.861,122.223,94.435z M121.754,98.938
						c-1.25,1.761-2.74,2.197-3.646,1.646c-1.019-0.546-1.252-2.078,0-3.84c1.255-1.762,3.081-2.635,3.987-2.088
						C123.007,95.201,123.007,97.181,121.754,98.938z"/>
					<path fill="#FFD400" d="M57.686,103.992c-1.934-0.978-2.565-1.475-2.946-2.15c1.236-0.359,3.631-1.307,2.605-3.125
						c0,0-2.136,2.056-3.719,1.91c2.191-1.453,2.982-3.949,1.783-5.645c-1.142-1.753-3.985-1.974-6.262-0.547
						c-2.282,1.426-3.192,4.071-2.053,5.823c1.218,1.714,3.846,2.067,6.094,0.659c-0.893,1.494-2.735,2-3.591,2.307
						c0,0,1.307,2.229,3.93-0.609c1.172,1.722,3.115,2.203,4.75,3.465c-0.458-0.116-0.957-0.157-1.501-0.111
						c-1.366,0-2.62,0.66-3.416,1.531c0.682,0.774,1.929,1.325,3.304,1.213c1.072-0.095,2.149-0.518,3.01-1.197
						c0.558,0.784,1.018,1.795,1.311,3.174l2.393,0.105C62.928,108.825,60.644,105.42,57.686,103.992z M53.245,100.583
						c-0.908,0.551-2.393,0.115-3.649-1.646c-1.252-1.756-1.252-3.737-0.343-4.282c0.919-0.547,2.738,0.326,3.992,2.088
						C54.381,98.505,54.155,100.037,53.245,100.583z"/>
					<path fill="#FFD400" d="M75.567,32.493c2.16,0,3.872-2.193,3.761-4.835c0-2.634-1.826-4.718-4.106-4.718
						c-2.062,0-3.706,1.995-3.758,4.465c-0.804-1.476-0.219-3.214-0.111-4.031c0,0-2.615-0.093-1.606,3.555
						c-2.05,0.077-3.469,1.388-5.464,2.019c0.369-0.318,0.687-0.713,0.917-1.176c0.69-1.095,0.798-2.413,0.458-3.623
						c-1.139,0.215-2.163,0.875-2.734,1.974c-0.591,1.039-0.75,2.167-0.569,3.157c-0.991,0.035-2.138-0.12-3.529-0.627l-1.362,1.869
						c1.932,0.652,6.143,0.652,8.989-0.995c1.811-0.978,2.647-1.239,3.359-1.265c-0.293,1.189-0.662,3.712,1.429,3.793
						c0,0-0.691-2.777,0.23-4.037C71.584,30.536,73.359,32.493,75.567,32.493z M71.81,27.771c0-0.99,1.134-2.083,3.299-2.199
						c2.273,0,4.099,1.104,4.099,2.085c-0.111,1.101-1.826,1.979-3.986,2.089C72.944,29.86,71.69,28.873,71.81,27.771z"/>
					<path fill="#FFD400" d="M89.176,109.703c-2.026,0.561-2.86,0.589-3.625,0.392c0.606-1.094,1.551-3.327-0.586-3.909
						c0,0,0.091,2.725-1.067,3.739c0.353-2.459-0.876-4.648-2.925-5.167c-2.16-0.439-4.324,1.319-4.895,3.954
						c-0.453,2.524,0.797,4.94,2.96,5.487c2.09,0.426,4.171-1.193,4.729-3.577c0.417,1.593-0.546,3.109-0.856,3.908
						c0,0,2.594,0.767,2.361-2.997c2.066,0.393,3.802-0.566,5.896-0.8c-0.43,0.209-0.845,0.483-1.189,0.83
						c-0.802,0.991-1.261,2.313-1.261,3.523c1.132,0,2.282-0.445,3.19-1.434c0.776-0.747,1.218-1.821,1.263-2.873
						c0.996,0.166,2.058,0.565,3.289,1.336l1.824-1.538C96.566,109.482,92.362,108.713,89.176,109.703z M83.593,110.144
						c-0.224,1.093-1.709,1.867-3.872,1.42c-2.165-0.434-3.643-1.861-3.415-2.851c0.23-0.991,2.163-1.539,4.439-1.213
						C82.911,107.95,83.82,109.155,83.593,110.144z"/>
					<path fill="#FFD400" d="M75.626,107.833c-0.571-0.112-1.485-1.205-0.796-2.085l-0.347-0.222c0,0-1.132,0.986-0.567,1.974
						c0,0-1.817,0-1.941,0.222c-0.108,0.33,1.711,1.103,1.711,1.103c-0.91,0.658-0.335,1.97-0.335,1.97h0.335
						c-0.229-1.092,1.024-1.761,1.704-1.64C75.626,109.264,75.962,107.95,75.626,107.833z"/>
				</g>
			</g>
		</g>
	</g>
</g>
</svg>
