<?xml version="1.0" encoding="utf-8"?>
<!-- Generator: Adobe Illustrator 14.0.0, SVG Export Plug-In . SVG Version: 6.00 Build 43363)  -->
<!DOCTYPE svg PUBLIC "-//W3C//DTD SVG 1.1//EN" "http://www.w3.org/Graphics/SVG/1.1/DTD/svg11.dtd">
<svg version="1.1" id="Capa_1" xmlns="http://www.w3.org/2000/svg" xmlns:xlink="http://www.w3.org/1999/xlink" x="0px" y="0px"
	 width="150px" height="150px" viewBox="0 0 150 150" enable-background="new 0 0 150 150" xml:space="preserve">
<g>
	<path fill="#E5352E" d="M99.484,92.075c0,8.541-6.924,15.465-15.464,15.465H20.23c-8.54,0-15.464-6.924-15.464-15.465V28.285
		c0-8.54,6.924-15.464,15.464-15.464h63.79c8.54,0,15.464,6.924,15.464,15.464V92.075z"/>
	<polygon fill="#E5352E" points="104.64,37.306 104.64,81.121 145.233,107.54 145.233,12.82 	"/>
</g>
<g>
	<path fill="#E5352E" d="M41.503,117.17h4.45l-7.066,20.786h-4.806L27.03,117.17h4.45l3.91,12.369
		c0.218,0.73,0.443,1.581,0.675,2.553s0.377,1.646,0.434,2.025c0.104-0.872,0.459-2.397,1.066-4.578L41.503,117.17z"/>
	<path fill="#E5352E" d="M48.043,117.952c0-1.412,0.787-2.118,2.36-2.118c1.573,0,2.36,0.706,2.36,2.118
		c0,0.673-0.197,1.196-0.59,1.571c-0.394,0.374-0.983,0.562-1.77,0.562C48.83,120.085,48.043,119.374,48.043,117.952z
		 M52.565,137.956h-4.336v-15.896h4.336V137.956z"/>
	<path fill="#E5352E" d="M62.147,138.24c-1.867,0-3.334-0.725-4.4-2.175c-1.066-1.45-1.6-3.46-1.6-6.028
		c0-2.606,0.542-4.638,1.628-6.093c1.085-1.454,2.581-2.182,4.485-2.182c2,0,3.526,0.777,4.578,2.331h0.142
		c-0.218-1.185-0.327-2.241-0.327-3.17v-5.09h4.35v22.122h-3.327l-0.839-2.062h-0.185C65.668,137.458,64.166,138.24,62.147,138.24z
		 M63.668,134.785c1.109,0,1.921-0.321,2.438-0.967c0.516-0.644,0.798-1.739,0.846-3.284v-0.469c0-1.706-0.263-2.929-0.789-3.668
		s-1.381-1.109-2.566-1.109c-0.967,0-1.718,0.41-2.253,1.23c-0.536,0.819-0.803,2.012-0.803,3.575c0,1.564,0.27,2.737,0.811,3.519
		C61.891,134.395,62.664,134.785,63.668,134.785z"/>
	<path fill="#E5352E" d="M82.734,138.24c-2.56,0-4.56-0.706-6-2.118c-1.441-1.412-2.161-3.412-2.161-6
		c0-2.663,0.666-4.723,1.997-6.178c1.332-1.454,3.174-2.182,5.523-2.182c2.246,0,3.996,0.64,5.246,1.919
		c1.252,1.279,1.877,3.048,1.877,5.303v2.104h-10.25c0.047,1.232,0.412,2.194,1.094,2.887c0.684,0.691,1.641,1.037,2.873,1.037
		c0.957,0,1.861-0.1,2.715-0.298c0.854-0.199,1.744-0.517,2.673-0.953v3.355c-0.759,0.379-1.569,0.661-2.431,0.846
		C85.027,138.148,83.976,138.24,82.734,138.24z M82.123,124.848c-0.92,0-1.641,0.291-2.162,0.874s-0.819,1.41-0.895,2.481h6.084
		c-0.019-1.071-0.298-1.898-0.838-2.481C83.771,125.139,83.042,124.848,82.123,124.848z"/>
	<path fill="#E5352E" d="M107.188,129.98c0,2.587-0.682,4.611-2.047,6.07c-1.365,1.46-3.266,2.189-5.701,2.189
		c-1.526,0-2.872-0.334-4.037-1.002c-1.166-0.668-2.063-1.628-2.688-2.879c-0.626-1.252-0.938-2.711-0.938-4.379
		c0-2.598,0.677-4.616,2.033-6.057c1.354-1.441,3.261-2.161,5.716-2.161c1.525,0,2.871,0.332,4.037,0.995s2.062,1.616,2.688,2.857
		C106.875,126.857,107.188,128.312,107.188,129.98z M96.197,129.98c0,1.573,0.259,2.763,0.775,3.568s1.357,1.208,2.523,1.208
		c1.156,0,1.988-0.4,2.496-1.201c0.506-0.801,0.76-1.992,0.76-3.575c0-1.573-0.256-2.754-0.768-3.541
		c-0.512-0.786-1.351-1.18-2.517-1.18c-1.156,0-1.99,0.391-2.502,1.173C96.453,127.215,96.197,128.397,96.197,129.98z"/>
	<path fill="#E5352E" d="M121.86,133.236c0,1.63-0.566,2.871-1.698,3.725c-1.133,0.853-2.828,1.279-5.084,1.279
		c-1.156,0-2.142-0.078-2.957-0.234c-0.814-0.156-1.578-0.386-2.289-0.689v-3.583c0.807,0.379,1.714,0.696,2.723,0.953
		c1.01,0.256,1.898,0.384,2.666,0.384c1.574,0,2.36-0.455,2.36-1.365c0-0.341-0.104-0.618-0.313-0.832
		c-0.208-0.213-0.568-0.455-1.08-0.725c-0.512-0.271-1.193-0.585-2.047-0.945c-1.223-0.512-2.121-0.986-2.694-1.422
		c-0.573-0.437-0.991-0.937-1.251-1.5c-0.262-0.564-0.391-1.259-0.391-2.083c0-1.412,0.547-2.505,1.642-3.277
		s2.646-1.158,4.656-1.158c1.915,0,3.776,0.417,5.587,1.251l-1.308,3.128c-0.796-0.342-1.54-0.621-2.231-0.839
		c-0.693-0.218-1.398-0.327-2.119-0.327c-1.279,0-1.92,0.346-1.92,1.038c0,0.389,0.207,0.725,0.619,1.009
		c0.412,0.285,1.314,0.707,2.709,1.266c1.241,0.503,2.15,0.972,2.729,1.407c0.578,0.437,1.006,0.938,1.28,1.508
		C121.723,131.771,121.86,132.449,121.86,133.236z"/>
</g>
</svg>
