<?xml version="1.0" encoding="utf-8"?>
<!-- Generator: Adobe Illustrator 14.0.0, SVG Export Plug-In . SVG Version: 6.00 Build 43363)  -->
<!DOCTYPE svg PUBLIC "-//W3C//DTD SVG 1.1//EN" "http://www.w3.org/Graphics/SVG/1.1/DTD/svg11.dtd">
<svg version="1.1" xmlns="http://www.w3.org/2000/svg" xmlns:xlink="http://www.w3.org/1999/xlink" x="0px" y="0px" width="150px"
	 height="150px" viewBox="0 0 150 150" enable-background="new 0 0 150 150" xml:space="preserve">
<g id="Capa_1">
	<g>
		<path fill="#E5352E" d="M40.821,137.956l-1.507-4.947h-7.578l-1.507,4.947H25.48l7.336-20.871h5.388l7.365,20.871H40.821z
			 M38.262,129.312c-1.394-4.482-2.178-7.019-2.353-7.606c-0.176-0.587-0.301-1.052-0.377-1.393
			c-0.313,1.213-1.208,4.213-2.687,8.999H38.262z"/>
		<path fill="#E5352E" d="M59.105,137.956l-0.583-2.033h-0.228c-0.464,0.739-1.123,1.311-1.976,1.713
			c-0.853,0.403-1.825,0.604-2.915,0.604c-1.868,0-3.275-0.5-4.223-1.5s-1.422-2.438-1.422-4.314v-10.365h4.336v9.284
			c0,1.147,0.204,2.007,0.611,2.581c0.407,0.573,1.057,0.859,1.948,0.859c1.213,0,2.09-0.405,2.63-1.215
			c0.54-0.811,0.81-2.154,0.81-4.031v-7.479h4.336v15.896H59.105z"/>
		<path fill="#E5352E" d="M72.014,138.24c-1.867,0-3.334-0.725-4.4-2.175c-1.066-1.45-1.6-3.46-1.6-6.028
			c0-2.606,0.542-4.638,1.628-6.093c1.085-1.454,2.581-2.182,4.485-2.182c2,0,3.526,0.777,4.578,2.331h0.142
			c-0.218-1.185-0.326-2.241-0.326-3.17v-5.09h4.35v22.122h-3.326l-0.839-2.062h-0.185C75.535,137.458,74.033,138.24,72.014,138.24z
			 M73.536,134.785c1.109,0,1.921-0.321,2.438-0.967c0.516-0.644,0.798-1.739,0.846-3.284v-0.469c0-1.706-0.264-2.929-0.789-3.668
			c-0.526-0.739-1.382-1.109-2.567-1.109c-0.967,0-1.718,0.41-2.253,1.23c-0.536,0.819-0.803,2.012-0.803,3.575
			c0,1.564,0.27,2.737,0.811,3.519C71.758,134.395,72.531,134.785,73.536,134.785z"/>
		<path fill="#E5352E" d="M85.223,117.952c0-1.412,0.786-2.118,2.359-2.118c1.574,0,2.36,0.706,2.36,2.118
			c0,0.673-0.196,1.196-0.59,1.571c-0.394,0.374-0.983,0.562-1.771,0.562C86.009,120.085,85.223,119.374,85.223,117.952z
			 M89.744,137.956h-4.337v-15.896h4.337V137.956z"/>
		<path fill="#E5352E" d="M108.738,129.98c0,2.587-0.684,4.611-2.048,6.07c-1.364,1.46-3.265,2.189-5.701,2.189
			c-1.526,0-2.872-0.334-4.038-1.002s-2.061-1.628-2.687-2.879c-0.626-1.252-0.938-2.711-0.938-4.379
			c0-2.598,0.678-4.616,2.033-6.057c1.355-1.441,3.26-2.161,5.715-2.161c1.526,0,2.872,0.332,4.038,0.995s2.062,1.616,2.687,2.857
			C108.425,126.857,108.738,128.312,108.738,129.98z M97.748,129.98c0,1.573,0.258,2.763,0.774,3.568s1.358,1.208,2.524,1.208
			c1.156,0,1.987-0.4,2.494-1.201c0.508-0.801,0.761-1.992,0.761-3.575c0-1.573-0.256-2.754-0.768-3.541
			c-0.512-0.786-1.351-1.18-2.517-1.18c-1.156,0-1.99,0.391-2.502,1.173S97.748,128.397,97.748,129.98z"/>
		<path fill="#E5352E" d="M123.41,133.236c0,1.63-0.566,2.871-1.699,3.725c-1.133,0.853-2.826,1.279-5.082,1.279
			c-1.156,0-2.143-0.078-2.957-0.234c-0.816-0.156-1.578-0.386-2.289-0.689v-3.583c0.805,0.379,1.713,0.696,2.723,0.953
			c1.009,0.256,1.897,0.384,2.666,0.384c1.572,0,2.359-0.455,2.359-1.365c0-0.341-0.104-0.618-0.313-0.832
			c-0.209-0.213-0.568-0.455-1.081-0.725c-0.512-0.271-1.194-0.585-2.047-0.945c-1.224-0.512-2.121-0.986-2.694-1.422
			c-0.574-0.437-0.99-0.937-1.251-1.5c-0.261-0.564-0.392-1.259-0.392-2.083c0-1.412,0.548-2.505,1.643-3.277
			s2.646-1.158,4.656-1.158c1.914,0,3.777,0.417,5.588,1.251l-1.309,3.128c-0.796-0.342-1.541-0.621-2.232-0.839
			s-1.398-0.327-2.118-0.327c-1.279,0-1.919,0.346-1.919,1.038c0,0.389,0.206,0.725,0.618,1.009
			c0.412,0.285,1.315,0.707,2.708,1.266c1.242,0.503,2.152,0.972,2.73,1.407c0.578,0.437,1.004,0.938,1.279,1.508
			C123.273,131.771,123.41,132.449,123.41,133.236z"/>
	</g>
	<g>
		<polygon fill="#E5352E" points="43.772,37.334 43.772,81.44 84.635,108.033 84.635,12.687 		"/>
		<path fill="#E5352E" d="M89.422,35.064v8.983c0,0,14.185,15.604,0,32.625v8.983C89.422,85.656,119.21,61.542,89.422,35.064z"/>
		<path fill="#E5352E" d="M100.066,27.831v11.591c0,0,18.303,20.135,0,42.102v11.592C100.066,93.115,138.505,61.998,100.066,27.831z
			"/>
		<path fill="#E5352E" d="M113.259,19.286v14.471c0,0,22.85,25.135,0,52.558v14.472C113.259,100.786,161.246,61.94,113.259,19.286z"
			/>
		<rect x="15.413" y="37.334" fill="#E5352E" width="24.467" height="44.999"/>
	</g>
</g>
<g id="Capa_2" display="none">
	
		<text transform="matrix(1 0 0 1 33.4805 80.9561)" display="inline" fill="#E5352E" font-family="'OpenSans-Bold'" font-size="29.1174">Audios</text>
</g>
</svg>
