<?xml version="1.0" encoding="utf-8"?>
<!-- Generator: Adobe Illustrator 14.0.0, SVG Export Plug-In . SVG Version: 6.00 Build 43363)  -->
<!DOCTYPE svg PUBLIC "-//W3C//DTD SVG 1.1//EN" "http://www.w3.org/Graphics/SVG/1.1/DTD/svg11.dtd">
<svg version="1.1" id="Capa_1" xmlns="http://www.w3.org/2000/svg" xmlns:xlink="http://www.w3.org/1999/xlink" x="0px" y="0px"
	 width="178.667px" height="150px" viewBox="0 0 178.667 150" enable-background="new 0 0 178.667 150" xml:space="preserve">
<g>
	<path fill="#E5352E" d="M16.704,137.956h-4.408v-17.118H6.652v-3.668h15.696v3.668h-5.644V137.956z"/>
	<path fill="#E5352E" d="M39.65,129.98c0,2.587-0.683,4.611-2.047,6.07c-1.365,1.46-3.265,2.189-5.701,2.189
		c-1.526,0-2.872-0.334-4.038-1.002c-1.166-0.668-2.062-1.628-2.687-2.879c-0.626-1.252-0.938-2.711-0.938-4.379
		c0-2.598,0.677-4.616,2.033-6.057c1.355-1.441,3.26-2.161,5.715-2.161c1.526,0,2.872,0.332,4.038,0.995s2.062,1.616,2.687,2.857
		C39.337,126.857,39.65,128.312,39.65,129.98z M28.66,129.98c0,1.573,0.258,2.763,0.775,3.568s1.358,1.208,2.524,1.208
		c1.156,0,1.988-0.4,2.495-1.201c0.507-0.801,0.76-1.992,0.76-3.575c0-1.573-0.256-2.754-0.768-3.541
		c-0.512-0.786-1.351-1.18-2.517-1.18c-1.156,0-1.99,0.391-2.502,1.173C28.916,127.215,28.66,128.397,28.66,129.98z"/>
	<path fill="#E5352E" d="M57.465,137.956h-4.336v-9.284c0-1.146-0.192-2.007-0.576-2.58s-0.988-0.86-1.813-0.86
		c-1.109,0-1.915,0.407-2.417,1.223c-0.502,0.815-0.753,2.156-0.753,4.023v7.479h-4.336v-15.896h3.313l0.583,2.033h0.242
		c0.426-0.729,1.042-1.301,1.848-1.713s1.729-0.618,2.772-0.618c2.379,0,3.99,0.777,4.834,2.331h0.384
		c0.427-0.739,1.054-1.313,1.884-1.72c0.83-0.408,1.765-0.611,2.808-0.611c1.801,0,3.163,0.462,4.087,1.386s1.386,2.405,1.386,4.443
		v10.364h-4.351v-9.284c0-1.146-0.192-2.007-0.576-2.58s-0.988-0.86-1.813-0.86c-1.062,0-1.855,0.379-2.381,1.138
		c-0.526,0.758-0.789,1.962-0.789,3.611V137.956z"/>
	<path fill="#E5352E" d="M81.919,137.956l-0.839-2.161h-0.114c-0.73,0.92-1.481,1.557-2.253,1.912s-1.78,0.533-3.021,0.533
		c-1.526,0-2.728-0.436-3.604-1.308c-0.876-0.872-1.315-2.113-1.315-3.726c0-1.687,0.59-2.931,1.77-3.731s2.959-1.244,5.339-1.329
		l2.758-0.086v-0.696c0-1.611-0.825-2.417-2.474-2.417c-1.27,0-2.763,0.384-4.479,1.151l-1.436-2.929
		c1.829-0.957,3.858-1.436,6.085-1.436c2.132,0,3.768,0.464,4.905,1.393c1.137,0.93,1.706,2.342,1.706,4.237v10.592H81.919z
		 M80.64,130.592l-1.678,0.057c-1.261,0.038-2.199,0.266-2.815,0.683s-0.924,1.052-0.924,1.905c0,1.223,0.701,1.834,2.104,1.834
		c1.005,0,1.808-0.289,2.41-0.867c0.602-0.578,0.903-1.347,0.903-2.304V130.592z"/>
	<path fill="#E5352E" d="M98.283,121.763c0.588,0,1.076,0.042,1.465,0.128l-0.328,4.065c-0.35-0.094-0.777-0.142-1.279-0.142
		c-1.384,0-2.461,0.355-3.234,1.066c-0.772,0.711-1.158,1.706-1.158,2.985v8.09h-4.336v-15.896h3.284l0.641,2.673h0.213
		c0.492-0.891,1.158-1.608,1.998-2.153C96.385,122.035,97.297,121.763,98.283,121.763z"/>
	<path fill="#E5352E" d="M114.875,137.956h-4.336V117.17h11.914v3.611h-7.578v5.36h7.052v3.597h-7.052V137.956z"/>
	<path fill="#E5352E" d="M140.623,129.98c0,2.587-0.684,4.611-2.048,6.07c-1.364,1.46-3.265,2.189-5.701,2.189
		c-1.526,0-2.872-0.334-4.038-1.002s-2.061-1.628-2.687-2.879c-0.626-1.252-0.938-2.711-0.938-4.379
		c0-2.598,0.678-4.616,2.033-6.057c1.355-1.441,3.26-2.161,5.715-2.161c1.526,0,2.872,0.332,4.038,0.995s2.062,1.616,2.687,2.857
		C140.31,126.857,140.623,128.312,140.623,129.98z M129.633,129.98c0,1.573,0.258,2.763,0.774,3.568s1.358,1.208,2.524,1.208
		c1.156,0,1.987-0.4,2.494-1.201c0.508-0.801,0.761-1.992,0.761-3.575c0-1.573-0.256-2.754-0.768-3.541
		c-0.512-0.786-1.351-1.18-2.517-1.18c-1.156,0-1.99,0.391-2.502,1.173S129.633,128.397,129.633,129.98z"/>
	<path fill="#E5352E" d="M150.902,134.785c0.758,0,1.668-0.165,2.729-0.497v3.228c-1.08,0.483-2.406,0.725-3.98,0.725
		c-1.734,0-2.997-0.438-3.789-1.315c-0.791-0.876-1.187-2.191-1.187-3.945v-7.663H142.6v-1.834l2.388-1.45l1.251-3.355h2.772v3.384
		h4.45v3.256h-4.45v7.663c0,0.616,0.173,1.071,0.519,1.365C149.876,134.639,150.333,134.785,150.902,134.785z"/>
	<path fill="#E5352E" d="M171.289,129.98c0,2.587-0.682,4.611-2.047,6.07c-1.365,1.46-3.266,2.189-5.701,2.189
		c-1.525,0-2.871-0.334-4.037-1.002s-2.063-1.628-2.688-2.879c-0.625-1.252-0.939-2.711-0.939-4.379
		c0-2.598,0.678-4.616,2.033-6.057c1.355-1.441,3.262-2.161,5.717-2.161c1.525,0,2.871,0.332,4.037,0.995s2.063,1.616,2.688,2.857
		C170.977,126.857,171.289,128.312,171.289,129.98z M160.299,129.98c0,1.573,0.258,2.763,0.775,3.568
		c0.516,0.806,1.357,1.208,2.523,1.208c1.156,0,1.988-0.4,2.496-1.201c0.506-0.801,0.76-1.992,0.76-3.575
		c0-1.573-0.256-2.754-0.768-3.541c-0.512-0.786-1.352-1.18-2.516-1.18c-1.158,0-1.992,0.391-2.504,1.173
		S160.299,128.397,160.299,129.98z"/>
</g>
<rect x="19.192" y="10" fill="#E5352E" width="140.283" height="94.667"/>
<rect x="29.071" y="16.333" fill="#FFFFFF" width="120.525" height="81.333"/>
<polygon fill="#E5352E" points="40.666,95.701 149.333,95.701 128.666,60.67 105.333,74.003 77.999,38.67 "/>
</svg>
