<?xml version="1.0" encoding="utf-8"?>
<!-- Generator: Adobe Illustrator 14.0.0, SVG Export Plug-In . SVG Version: 6.00 Build 43363)  -->
<!DOCTYPE svg PUBLIC "-//W3C//DTD SVG 1.1//EN" "http://www.w3.org/Graphics/SVG/1.1/DTD/svg11.dtd">
<svg version="1.1" id="Capa_1" xmlns="http://www.w3.org/2000/svg" xmlns:xlink="http://www.w3.org/1999/xlink" x="0px" y="0px"
	 width="150px" height="150px" viewBox="0 0 150 150" enable-background="new 0 0 150 150" xml:space="preserve">
<text transform="matrix(1 0 0 1 25.4805 137.9561)" fill="#E5352E" font-family="'OpenSans-Bold'" font-size="29.1174">Audios</text>
<g>
	<polygon fill="#E5352E" points="43.772,37.334 43.772,81.44 84.635,108.033 84.635,12.687 	"/>
	<path fill="#E5352E" d="M89.422,35.064v8.983c0,0,14.185,15.604,0,32.625v8.983C89.422,85.656,119.21,61.542,89.422,35.064z"/>
	<path fill="#E5352E" d="M100.066,27.831v11.591c0,0,18.303,20.135,0,42.102v11.592C100.066,93.115,138.505,61.998,100.066,27.831z"
		/>
	<path fill="#E5352E" d="M113.259,19.286v14.471c0,0,22.85,25.135,0,52.558v14.472C113.259,100.786,161.246,61.94,113.259,19.286z"
		/>
	<rect x="15.413" y="37.334" fill="#E5352E" width="24.467" height="44.999"/>
</g>
</svg>
