<?xml version="1.0" encoding="utf-8"?>
<!-- Generator: Adobe Illustrator 14.0.0, SVG Export Plug-In . SVG Version: 6.00 Build 43363)  -->
<!DOCTYPE svg PUBLIC "-//W3C//DTD SVG 1.1//EN" "http://www.w3.org/Graphics/SVG/1.1/DTD/svg11.dtd">
<svg version="1.1" id="Capa_1" xmlns="http://www.w3.org/2000/svg" xmlns:xlink="http://www.w3.org/1999/xlink" x="0px" y="0px"
	 width="150px" height="150px" viewBox="0 0 150 150" enable-background="new 0 0 150 150" xml:space="preserve">
<text transform="matrix(1 0 0 1 4.8584 137.9561)" fill="#E5352E" font-family="'OpenSans-Bold'" font-size="29.1174">Imágenes</text>
<g>
	<path fill="#E5352E" d="M141.401,93.329c0,3.886-3.15,7.036-7.036,7.036H15.635c-3.887,0-7.036-3.15-7.036-7.036V26.163
		c0-3.886,3.149-7.036,7.036-7.036h118.73c3.886,0,7.036,3.15,7.036,7.036V93.329z M75,28.001
		c-17.532,0-31.744,14.211-31.744,31.744S57.468,91.489,75,91.489c17.531,0,31.744-14.212,31.744-31.744S92.531,28.001,75,28.001z
		 M38.794,26.033H15.341v9.38h23.453V26.033z"/>
	<path fill="#E5352E" d="M104.022,59.746c0,16.029-12.994,29.022-29.022,29.022c-16.029,0-29.023-12.993-29.023-29.022
		S58.971,30.723,75,30.723C91.028,30.723,104.022,43.717,104.022,59.746z M75,39.957c-10.929,0-19.789,8.859-19.789,19.789
		c0,10.929,8.86,19.789,19.789,19.789c10.928,0,19.788-8.86,19.788-19.789C94.788,48.816,85.928,39.957,75,39.957z"/>
</g>
</svg>
