<?xml version="1.0" encoding="utf-8"?>
<!-- Generator: Adobe Illustrator 14.0.0, SVG Export Plug-In . SVG Version: 6.00 Build 43363)  -->
<!DOCTYPE svg PUBLIC "-//W3C//DTD SVG 1.1//EN" "http://www.w3.org/Graphics/SVG/1.1/DTD/svg11.dtd">
<svg version="1.1" id="Capa_1" xmlns="http://www.w3.org/2000/svg" xmlns:xlink="http://www.w3.org/1999/xlink" x="0px" y="0px"
	 width="150px" height="150px" viewBox="0 0 150 150" enable-background="new 0 0 150 150" xml:space="preserve">
<g>
	<path fill="#E5352E" d="M7.475,137.956V117.17h4.407v20.786H7.475z"/>
	<path fill="#E5352E" d="M31.004,137.956h-4.336v-9.284c0-1.146-0.192-2.007-0.576-2.58s-0.988-0.86-1.813-0.86
		c-1.109,0-1.915,0.407-2.417,1.223c-0.502,0.815-0.753,2.156-0.753,4.023v7.479h-4.336v-15.896h3.313l0.583,2.033h0.242
		c0.426-0.729,1.042-1.301,1.848-1.713s1.729-0.618,2.772-0.618c2.379,0,3.99,0.777,4.834,2.331h0.384
		c0.427-0.739,1.054-1.313,1.884-1.72c0.83-0.408,1.765-0.611,2.808-0.611c1.801,0,3.163,0.462,4.087,1.386s1.386,2.405,1.386,4.443
		v10.364h-4.351v-9.284c0-1.146-0.192-2.007-0.576-2.58s-0.988-0.86-1.813-0.86c-1.062,0-1.855,0.379-2.381,1.138
		c-0.526,0.758-0.789,1.962-0.789,3.611V137.956z"/>
	<path fill="#E5352E" d="M55.458,137.956l-0.839-2.161h-0.114c-0.73,0.92-1.481,1.557-2.253,1.912s-1.78,0.533-3.021,0.533
		c-1.526,0-2.728-0.436-3.604-1.308c-0.876-0.872-1.315-2.113-1.315-3.726c0-1.687,0.59-2.931,1.77-3.731s2.959-1.244,5.339-1.329
		l2.758-0.086v-0.696c0-1.611-0.825-2.417-2.474-2.417c-1.27,0-2.763,0.384-4.479,1.151l-1.436-2.929
		c1.829-0.957,3.858-1.436,6.085-1.436c2.132,0,3.768,0.464,4.905,1.393c1.137,0.93,1.706,2.342,1.706,4.237v10.592H55.458z
		 M54.179,130.592l-1.678,0.057c-1.261,0.038-2.199,0.266-2.815,0.683s-0.924,1.052-0.924,1.905c0,1.223,0.701,1.834,2.104,1.834
		c1.005,0,1.808-0.289,2.41-0.867c0.602-0.578,0.903-1.347,0.903-2.304V130.592z M49.359,120.313v-0.384
		c1.63-1.896,2.744-3.322,3.341-4.28h4.862v0.299c-0.493,0.493-1.334,1.226-2.523,2.196c-1.189,0.972-2.121,1.694-2.793,2.169
		H49.359z"/>
	<path fill="#E5352E" d="M76.785,122.061v2.204l-2.489,0.64c0.455,0.711,0.683,1.507,0.683,2.389c0,1.706-0.595,3.035-1.784,3.988
		c-1.189,0.952-2.841,1.429-4.955,1.429l-0.782-0.043l-0.64-0.071c-0.446,0.342-0.668,0.721-0.668,1.138
		c0,0.626,0.796,0.938,2.389,0.938h2.701c1.744,0,3.073,0.374,3.988,1.123c0.915,0.749,1.372,1.849,1.372,3.299
		c0,1.857-0.774,3.298-2.324,4.322c-1.55,1.023-3.775,1.535-6.675,1.535c-2.218,0-3.912-0.387-5.083-1.159
		c-1.171-0.772-1.756-1.855-1.756-3.248c0-0.958,0.298-1.759,0.896-2.403s1.474-1.104,2.63-1.379
		c-0.446-0.189-0.834-0.5-1.166-0.932c-0.332-0.431-0.498-0.888-0.498-1.371c0-0.606,0.175-1.111,0.526-1.515
		c0.351-0.402,0.858-0.798,1.521-1.188c-0.834-0.359-1.495-0.938-1.983-1.734c-0.488-0.796-0.732-1.734-0.732-2.814
		c0-1.735,0.563-3.076,1.692-4.023c1.127-0.948,2.739-1.422,4.833-1.422c0.446,0,0.974,0.04,1.585,0.12
		c0.611,0.081,1.002,0.141,1.173,0.178H76.785z M64.515,140.202c0,0.598,0.287,1.066,0.86,1.408c0.574,0.341,1.377,0.512,2.41,0.512
		c1.554,0,2.772-0.214,3.654-0.64c0.881-0.427,1.322-1.01,1.322-1.749c0-0.598-0.261-1.01-0.782-1.237
		c-0.521-0.228-1.327-0.341-2.417-0.341h-2.246c-0.796,0-1.462,0.187-1.998,0.562C64.783,139.091,64.515,139.586,64.515,140.202z
		 M66.093,127.265c0,0.862,0.196,1.545,0.59,2.047c0.393,0.503,0.993,0.754,1.798,0.754c0.815,0,1.413-0.251,1.792-0.754
		c0.379-0.502,0.569-1.185,0.569-2.047c0-1.915-0.787-2.872-2.36-2.872C66.889,124.393,66.093,125.35,66.093,127.265z"/>
	<path fill="#E5352E" d="M86.594,138.24c-2.559,0-4.559-0.706-5.999-2.118s-2.161-3.412-2.161-6c0-2.663,0.666-4.723,1.998-6.178
		c1.331-1.454,3.172-2.182,5.523-2.182c2.246,0,3.994,0.64,5.246,1.919c1.251,1.279,1.877,3.048,1.877,5.303v2.104H82.826
		c0.048,1.232,0.412,2.194,1.096,2.887c0.682,0.691,1.639,1.037,2.871,1.037c0.957,0,1.863-0.1,2.716-0.298
		c0.853-0.199,1.744-0.517,2.673-0.953v3.355c-0.758,0.379-1.568,0.661-2.432,0.846C88.889,138.148,87.836,138.24,86.594,138.24z
		 M85.982,124.848c-0.919,0-1.639,0.291-2.16,0.874s-0.82,1.41-0.896,2.481h6.086c-0.02-1.071-0.299-1.898-0.84-2.481
		C87.633,125.139,86.902,124.848,85.982,124.848z"/>
	<path fill="#E5352E" d="M111.275,137.956h-4.336v-9.284c0-1.146-0.204-2.007-0.611-2.58c-0.408-0.573-1.057-0.86-1.947-0.86
		c-1.214,0-2.09,0.405-2.631,1.216c-0.54,0.811-0.811,2.153-0.811,4.03v7.479h-4.336v-15.896h3.313l0.583,2.033h0.241
		c0.484-0.768,1.149-1.348,1.998-1.741c0.848-0.394,1.813-0.59,2.893-0.59c1.85,0,3.252,0.5,4.209,1.5s1.436,2.442,1.436,4.329
		V137.956z"/>
	<path fill="#E5352E" d="M122.934,138.24c-2.559,0-4.559-0.706-5.999-2.118s-2.161-3.412-2.161-6c0-2.663,0.666-4.723,1.998-6.178
		c1.331-1.454,3.172-2.182,5.523-2.182c2.246,0,3.994,0.64,5.246,1.919c1.251,1.279,1.877,3.048,1.877,5.303v2.104h-10.252
		c0.048,1.232,0.412,2.194,1.096,2.887c0.682,0.691,1.639,1.037,2.871,1.037c0.957,0,1.863-0.1,2.716-0.298
		c0.853-0.199,1.744-0.517,2.673-0.953v3.355c-0.758,0.379-1.568,0.661-2.432,0.846C125.229,138.148,124.176,138.24,122.934,138.24z
		 M122.322,124.848c-0.919,0-1.639,0.291-2.16,0.874s-0.82,1.41-0.896,2.481h6.086c-0.02-1.071-0.299-1.898-0.84-2.481
		C123.973,125.139,123.242,124.848,122.322,124.848z"/>
	<path fill="#E5352E" d="M144.033,133.236c0,1.63-0.566,2.871-1.699,3.725c-1.133,0.853-2.827,1.279-5.083,1.279
		c-1.156,0-2.142-0.078-2.957-0.234s-1.578-0.386-2.289-0.689v-3.583c0.806,0.379,1.714,0.696,2.723,0.953
		c1.009,0.256,1.897,0.384,2.666,0.384c1.573,0,2.359-0.455,2.359-1.365c0-0.341-0.104-0.618-0.313-0.832
		c-0.208-0.213-0.568-0.455-1.08-0.725c-0.512-0.271-1.194-0.585-2.048-0.945c-1.223-0.512-2.121-0.986-2.693-1.422
		c-0.574-0.437-0.991-0.937-1.252-1.5c-0.261-0.564-0.391-1.259-0.391-2.083c0-1.412,0.547-2.505,1.643-3.277
		c1.094-0.772,2.646-1.158,4.655-1.158c1.915,0,3.777,0.417,5.588,1.251l-1.308,3.128c-0.797-0.342-1.541-0.621-2.232-0.839
		c-0.692-0.218-1.398-0.327-2.118-0.327c-1.28,0-1.92,0.346-1.92,1.038c0,0.389,0.206,0.725,0.618,1.009
		c0.412,0.285,1.315,0.707,2.709,1.266c1.241,0.503,2.151,0.972,2.729,1.407c0.578,0.437,1.005,0.938,1.279,1.508
		C143.896,131.771,144.033,132.449,144.033,133.236z"/>
</g>
<g>
	<path fill="#E5352E" d="M141.401,93.329c0,3.886-3.15,7.036-7.036,7.036H15.635c-3.887,0-7.036-3.15-7.036-7.036V26.163
		c0-3.886,3.149-7.036,7.036-7.036h118.73c3.886,0,7.036,3.15,7.036,7.036V93.329z M75,28.001
		c-17.532,0-31.744,14.211-31.744,31.744S57.468,91.489,75,91.489c17.531,0,31.744-14.212,31.744-31.744S92.531,28.001,75,28.001z
		 M38.794,26.033H15.341v9.38h23.453V26.033z"/>
	<path fill="#E5352E" d="M104.022,59.746c0,16.029-12.994,29.022-29.022,29.022c-16.029,0-29.023-12.993-29.023-29.022
		S58.971,30.723,75,30.723C91.028,30.723,104.022,43.717,104.022,59.746z M75,39.957c-10.929,0-19.789,8.859-19.789,19.789
		c0,10.929,8.86,19.789,19.789,19.789c10.928,0,19.788-8.86,19.788-19.789C94.788,48.816,85.928,39.957,75,39.957z"/>
</g>
</svg>
