<?xml version="1.0" encoding="utf-8"?>
<!-- Generator: Adobe Illustrator 14.0.0, SVG Export Plug-In . SVG Version: 6.00 Build 43363)  -->
<!DOCTYPE svg PUBLIC "-//W3C//DTD SVG 1.1//EN" "http://www.w3.org/Graphics/SVG/1.1/DTD/svg11.dtd">
<svg version="1.1" id="Capa_1" xmlns="http://www.w3.org/2000/svg" xmlns:xlink="http://www.w3.org/1999/xlink" x="0px" y="0px"
	 width="1920px" height="1080px" viewBox="0 0 1920 1080" enable-background="new 0 0 1920 1080" xml:space="preserve">
<linearGradient id="SVGID_1_" gradientUnits="userSpaceOnUse" x1="956.9902" y1="14.3647" x2="962.0518" y2="898.557">
	<stop  offset="0" style="stop-color:#F4F3F3"/>
	<stop  offset="1" style="stop-color:#DFDFDF"/>
</linearGradient>
<rect x="0.385" fill="url(#SVGID_1_)" width="1919.229" height="1080"/>
<path fill="#B2B2B2" d="M480.651,271.295l215.208-69.385h31.754l74.087-24.695c0,0,42.333,5.883,47.04,14.114l47.041,2.354
	l42.333,9.406l42.339,21.166c0,0,39.981,23.521,58.801,22.345l38.806,4.705c0,0,41.164-14.114,74.087,0
	c0,0,48.216-41.161,98.782-27.05h32.93h17.644l51.741-14.111l44.689-27.046l22.339-5.883c0,0,72.188-21.167,100.187-21.167
	l63.279,17.64l37.631,19.994c0,0,29.403,24.695,65.859,32.93c0,0,8.234,4.701,14.111,11.76c5.883,7.052,35.286,27.046,45.864,27.046
	c10.585,0,41.157-22.345,41.157-22.345s49.392-36.456,95.256,37.631l27.193,71.736L1880.09,749.93L413.624,734.641L480.651,271.295z
	"/>
<polygon fill="#F4F4F4" points="654.842,195.544 654.842,175.772 659.035,175.772 659.035,154.806 665.925,154.806 665.925,175.175 
	670.42,175.175 670.42,195.544 680.605,198.537 680.605,208.721 693.483,208.721 693.483,224.299 709.062,224.299 713.852,230.291 
	715.053,256.651 552.998,256.651 552.998,211.119 557.19,211.421 559.287,203.931 579.656,203.632 607.516,204.229 606.915,196.742 
	"/>
<path fill="#A0A0A0" d="M1922.482,245.888c0,0-97.594,17.345-119.278,45.541h-28.189c0,0-201.682,101.924-214.693,95.418
	s-88.915,47.71-88.915,47.71l-153.972,93.249c0,0-160.477,21.052-214.692,56.069c-54.217,35.014-546.492,487.936-546.492,487.936
	h1366.232V245.888z"/>
<path fill="#A0A0A0" d="M0,1080V225.888c0,0,136.623,2.167,203.851-49.88c0,0,78.07-47.708,175.658,0
	c0,0,240.716,65.059,292.763,65.059s108.43,34.699,156.141,47.71c47.707,13.012,80.236-13.008,140.959,17.348
	c60.719,30.363,101.927,190.839,101.927,190.839s132.283,158.313,201.682,169.152c0,0,45.541,6.506,91.082,119.271
	C1409.604,898.16,1481.168,1080,1481.168,1080H0z"/>
<polygon fill="#B2B2B2" points="173.447,1071.811 173.447,808.647 251.517,739.253 299.228,739.253 299.228,799.972 310.07,799.972 
	310.07,779.371 345.852,778.288 345.852,801.059 403.321,801.059 403.321,1014.665 419.586,1013.582 419.586,865.03 
	453.199,866.117 453.199,859.611 460.791,859.611 460.791,850.936 470.55,850.936 470.55,860.694 479.222,860.694 479.222,850.936 
	495.487,849.853 495.487,857.441 500.909,857.441 500.909,866.117 532.355,871.536 532.355,1040.688 589.821,1039.605 
	589.821,867.2 602.833,861.777 602.833,849.853 641.868,852.019 641.868,859.611 653.797,859.611 653.797,1071.811 "/>
<polygon fill="#C4C4C4" points="0,924.184 48.797,924.184 48.797,992.495 70.484,992.495 70.484,980.566 153.974,978.4 
	153.974,1019.602 173.492,1019.602 173.492,906.836 197.349,906.836 197.349,892.737 236.383,892.737 236.383,900.33 
	250.479,902.496 250.479,964.302 275.418,963.219 275.418,993.578 296.02,993.578 296.02,981.653 342.644,979.483 342.644,966.472 
	362.161,966.472 362.161,978.4 380.596,978.4 380.596,991.412 390.354,991.412 390.354,956.17 412.038,956.17 412.038,942.618 
	422.88,942.618 422.88,937.195 445.651,937.195 445.651,942.618 465.168,941.531 465.168,932.859 493.361,933.942 493.361,943.701 
	533.48,942.618 646.252,943.701 646.252,919.848 674.442,918.761 674.442,906.836 713.477,906.836 713.477,912.255 776.369,911.172 
	776.369,919.848 803.473,919.848 803.473,912.255 828.416,912.255 828.416,892.737 880.463,892.737 880.463,886.231 
	890.222,886.231 890.222,828.766 953.107,828.766 953.107,868.884 959.616,868.884 959.616,894.907 973.711,894.907 
	973.711,979.483 997.565,978.4 997.565,1003.337 1017.082,1003.337 1017.082,990.325 1037.687,989.242 1037.687,874.307 
	1113.587,873.22 1113.587,861.295 1124.429,860.208 1124.429,849.366 1145.033,848.283 1145.033,860.208 1152.622,860.208 
	1152.622,935.025 1168.887,935.025 1168.887,950.207 1178.646,951.29 1178.646,930.689 1217.681,931.772 1217.681,828.766 
	1226.356,828.766 1226.356,816.837 1248.04,816.837 1248.04,807.078 1269.728,807.078 1269.728,822.26 1280.569,821.173 
	1280.569,826.596 1293.581,826.596 1293.581,853.702 1345.628,850.449 1345.628,715.996 1380.327,715.996 1380.327,704.068 
	1403.098,704.068 1403.098,720.332 1438.88,714.913 1438.88,856.955 1494.18,854.789 1494.18,866.714 1502.855,867.801 
	1502.855,949.124 1502.855,987.072 1528.878,987.072 1528.878,842.86 1538.637,841.777 1538.637,834.185 1585.265,834.185 
	1585.265,843.943 1604.782,842.86 1604.782,910.089 1622.13,907.919 1622.13,899.243 1662.248,898.16 1662.248,916.595 
	1680.683,932.859 1680.683,911.172 1695.864,909.002 1695.864,900.33 1712.129,900.33 1712.129,910.089 1726.224,910.089 
	1726.224,904.666 1739.235,901.413 1739.235,909.002 1748.994,911.172 1748.994,904.666 1766.342,903.583 1766.342,912.255 
	1780.44,913.342 1780.44,1039.119 1869.353,1039.119 1869.353,833.102 1884.533,832.019 1884.533,735.514 1919.229,735.514 
	1919.229,1080 0,1080 "/>
<polygon fill="#D3D3D3" points="1195.698,1076.747 1195.698,957.793 1239.612,957.793 1239.612,939.901 1268.889,939.901 
	1268.889,956.166 1277.021,956.166 1277.021,946.407 1296.539,949.66 1306.298,957.793 1322.563,957.793 1350.212,957.793 
	1350.212,939.901 1379.488,939.901 1379.488,951.287 1392.5,948.034 1392.5,957.793 1457.559,961.046 1470.57,956.166 
	1470.57,948.034 1530.749,946.407 1530.749,957.793 1555.146,961.046 1555.146,996.828 1595.808,995.201 1595.808,978.937 
	1639.723,980.563 1639.723,993.575 1668.999,995.201 1668.999,987.069 1701.528,983.816 1701.528,991.948 1743.816,991.948 
	1743.816,939.901 1755.201,939.901 1755.201,926.89 1795.863,926.89 1795.863,943.154 1849.536,944.781 1849.536,926.89 
	1912.968,926.89 1912.968,944.781 1921.101,946.407 1921.101,1076.747 "/>
<linearGradient id="SVGID_2_" gradientUnits="userSpaceOnUse" x1="956.606" y1="14.3643" x2="961.6675" y2="898.5573">
	<stop  offset="0" style="stop-color:#F4F3F3"/>
	<stop  offset="1" style="stop-color:#DFDFDF"/>
</linearGradient>
<rect x="0" y="-0.001" opacity="0.63" fill="url(#SVGID_2_)" width="1919.23" height="1080.001"/>
</svg>
