<?xml version="1.0" encoding="utf-8"?>
<!-- Generator: Adobe Illustrator 14.0.0, SVG Export Plug-In . SVG Version: 6.00 Build 43363)  -->
<!DOCTYPE svg PUBLIC "-//W3C//DTD SVG 1.1//EN" "http://www.w3.org/Graphics/SVG/1.1/DTD/svg11.dtd">
<svg version="1.1" id="Capa_1" xmlns="http://www.w3.org/2000/svg" xmlns:xlink="http://www.w3.org/1999/xlink" x="0px" y="0px"
	 width="2806.74px" height="2029.626px" viewBox="0 0 2806.74 2029.626" enable-background="new 0 0 2806.74 2029.626"
	 xml:space="preserve">
<linearGradient id="SVGID_1_" gradientUnits="userSpaceOnUse" x1="1393.2471" y1="28.0874" x2="1402.9055" y2="1715.3157">
	<stop  offset="0" style="stop-color:#F4F3F3"/>
	<stop  offset="1" style="stop-color:#DFDFDF"/>
</linearGradient>
<rect x="-1.869" y="-1.787" fill="url(#SVGID_1_)" width="2801.717" height="2065.798"/>
<path fill="#B2B2B2" d="M695.194,868.187l319.51-103.013h47.145l109.995-36.665c0,0,62.849,8.735,69.837,20.954l69.839,3.496
	l62.849,13.963l62.86,31.424c0,0,59.357,34.923,87.299,33.177l57.612,6.983c0,0,61.115-20.952,109.996,0
	c0,0,71.582-61.108,146.655-40.16h48.891h26.195l76.816-20.948l66.349-40.154l33.168-8.735c0,0,107.174-31.424,148.743-31.424
	l93.946,26.188l55.871,29.686c0,0,43.654,36.665,97.779,48.889c0,0,12.224,6.979,20.949,17.459
	c8.733,10.469,52.391,40.153,68.092,40.153c15.717,0,61.104-33.173,61.104-33.173s73.331-54.124,141.425,55.871l40.372,106.501
	l-45.609,590.14L595.68,1556.097L695.194,868.187z"/>
<polygon fill="#F4F4F4" points="953.808,755.722 953.808,726.366 960.032,726.366 960.032,695.239 970.264,695.239 970.264,725.482 
	976.937,725.482 976.937,755.722 992.057,760.165 992.057,775.284 1011.18,775.284 1011.18,798.413 1034.307,798.413 
	1041.419,807.31 1043.2,846.444 802.605,846.444 802.605,778.846 808.83,779.295 811.942,768.173 842.183,767.727 883.545,768.616 
	882.653,757.501 "/>
<path fill="#A0A0A0" d="M2835.824,830.468c0,0-144.893,25.747-177.087,67.612h-41.852c0,0-299.429,151.321-318.748,141.664
	c-19.317-9.66-132.008,70.833-132.008,70.833l-228.597,138.442c0,0-238.252,31.252-318.745,83.242
	c-80.495,51.982-811.354,724.419-811.354,724.419h2028.391V830.468z"/>
<path fill="#A0A0A0" d="M-18.41,2068.84V800.773c0,0,202.838,3.217,302.65-74.056c0,0,115.907-70.832,260.793,0
	c0,0,357.382,96.591,434.654,96.591c77.272,0,160.981,51.515,231.816,70.83c70.828,19.319,119.124-19.313,209.275,25.758
	c90.147,45.079,151.327,283.332,151.327,283.332s196.396,235.041,299.43,251.134c0,0,67.611,9.66,135.225,177.075
	c67.614,167.433,173.861,437.402,173.861,437.402H-18.41z"/>
<polygon fill="#B2B2B2" points="239.101,2056.681 239.101,1665.974 355.007,1562.945 425.843,1562.945 425.843,1653.093 
	441.938,1653.093 441.938,1622.507 495.063,1620.9 495.063,1654.706 580.385,1654.706 580.385,1971.841 604.533,1970.23 
	604.533,1749.684 654.436,1751.297 654.436,1741.637 665.709,1741.637 665.709,1728.758 680.197,1728.758 680.197,1743.243 
	693.072,1743.243 693.072,1728.758 717.22,1727.148 717.22,1738.414 725.271,1738.414 725.271,1751.297 771.958,1759.342 
	771.958,2010.475 857.275,2008.866 857.275,1752.902 876.593,1744.854 876.593,1727.148 934.547,1730.365 934.547,1741.637 
	952.256,1741.637 952.256,2056.681 "/>
<polygon fill="#C4C4C4" points="-18.41,1837.504 54.037,1837.504 54.037,1938.926 86.235,1938.926 86.235,1921.214 
	210.188,1917.997 210.188,1979.17 239.166,1979.17 239.166,1811.75 274.585,1811.75 274.585,1790.816 332.539,1790.816 
	332.539,1802.091 353.466,1805.306 353.466,1897.065 390.493,1895.459 390.493,1940.532 421.078,1940.532 421.078,1922.828 
	490.3,1919.607 490.3,1900.288 519.277,1900.288 519.277,1917.997 546.645,1917.997 546.645,1937.316 561.134,1937.316 
	561.134,1884.995 593.328,1884.995 593.328,1864.875 609.424,1864.875 609.424,1856.821 643.23,1856.821 643.23,1864.875 
	672.208,1863.26 672.208,1850.385 714.064,1851.994 714.064,1866.482 773.627,1864.875 941.055,1866.482 941.055,1831.067 
	982.907,1829.453 982.907,1811.75 1040.862,1811.75 1040.862,1819.795 1134.234,1818.188 1134.234,1831.067 1174.474,1831.067 
	1174.474,1819.795 1211.505,1819.795 1211.505,1790.816 1288.778,1790.816 1288.778,1781.157 1303.269,1781.157 1303.269,1695.841 
	1396.631,1695.841 1396.631,1755.403 1406.295,1755.403 1406.295,1794.038 1427.222,1794.038 1427.222,1919.607 1462.638,1917.997 
	1462.638,1955.021 1491.612,1955.021 1491.612,1935.703 1522.204,1934.093 1522.204,1763.453 1634.889,1761.843 1634.889,1744.137 
	1650.988,1742.523 1650.988,1726.425 1681.574,1724.818 1681.574,1742.523 1692.844,1742.523 1692.844,1853.601 1716.989,1853.601 
	1716.989,1876.141 1731.48,1877.749 1731.48,1847.164 1789.436,1848.771 1789.436,1695.841 1802.313,1695.841 1802.313,1678.132 
	1834.508,1678.132 1834.508,1663.644 1866.706,1663.644 1866.706,1686.182 1882.802,1684.568 1882.802,1692.622 1902.119,1692.622 
	1902.119,1732.864 1979.393,1728.035 1979.393,1528.416 2030.908,1528.416 2030.908,1510.708 2064.715,1510.708 2064.715,1534.855 
	2117.841,1526.809 2117.841,1737.694 2199.939,1734.478 2199.939,1752.182 2212.821,1753.795 2212.821,1874.534 2212.821,1930.873 
	2251.457,1930.873 2251.457,1716.77 2265.943,1715.159 2265.943,1703.887 2335.172,1703.887 2335.172,1718.376 2364.149,1716.77 
	2364.149,1816.578 2389.905,1813.356 2389.905,1800.477 2449.464,1798.87 2449.464,1826.239 2476.835,1850.385 2476.835,1818.188 
	2499.375,1814.964 2499.375,1802.091 2523.52,1802.091 2523.52,1816.578 2544.449,1816.578 2544.449,1808.527 2563.768,1803.697 
	2563.768,1814.964 2578.252,1818.188 2578.252,1808.527 2604.008,1806.92 2604.008,1819.795 2624.94,1821.41 2624.94,2008.145 
	2756.946,2008.145 2756.946,1702.279 2779.481,1700.67 2779.481,1557.393 2830.996,1557.393 2830.996,2068.84 -18.41,2068.84 "/>
<polygon fill="#D3D3D3" points="1756.797,2064.011 1756.797,1887.403 1821.994,1887.403 1821.994,1860.84 1865.458,1860.84 
	1865.458,1884.987 1877.533,1884.987 1877.533,1870.502 1906.511,1875.329 1921.001,1887.403 1945.146,1887.403 1986.197,1887.403 
	1986.197,1860.84 2029.663,1860.84 2029.663,1877.743 2048.979,1872.915 2048.979,1887.403 2145.569,1892.231 2164.889,1884.987 
	2164.889,1872.915 2254.234,1870.502 2254.234,1887.403 2290.453,1892.231 2290.453,1945.357 2350.825,1942.941 2350.825,1918.793 
	2416.021,1921.209 2416.021,1940.527 2459.488,1942.941 2459.488,1930.868 2507.783,1926.041 2507.783,1938.111 2570.565,1938.111 
	2570.565,1860.84 2587.468,1860.84 2587.468,1841.523 2647.84,1841.523 2647.84,1865.672 2727.524,1868.085 2727.524,1841.523 
	2821.701,1841.523 2821.701,1868.085 2833.775,1870.502 2833.775,2064.011 "/>
<linearGradient id="SVGID_2_" gradientUnits="userSpaceOnUse" x1="1401.9126" y1="18.229" x2="1411.6183" y2="1713.7147">
	<stop  offset="0" style="stop-color:#F4F3F3"/>
	<stop  offset="1" style="stop-color:#DFDFDF"/>
</linearGradient>
<rect x="-18.41" y="-11.687" opacity="0.63" fill="url(#SVGID_2_)" width="2852.186" height="2075.698"/>
</svg>
