<?xml version="1.0" encoding="utf-8"?>
<!-- Generator: Adobe Illustrator 14.0.0, SVG Export Plug-In . SVG Version: 6.00 Build 43363)  -->
<!DOCTYPE svg PUBLIC "-//W3C//DTD SVG 1.1//EN" "http://www.w3.org/Graphics/SVG/1.1/DTD/svg11.dtd">
<svg version="1.1" id="Capa_1" xmlns="http://www.w3.org/2000/svg" xmlns:xlink="http://www.w3.org/1999/xlink" x="0px" y="0px"
	 width="1080px" height="1920px" viewBox="0 0 1080 1920" enable-background="new 0 0 1080 1920" xml:space="preserve">
<linearGradient id="SVGID_1_" gradientUnits="userSpaceOnUse" x1="535.8457" y1="24.3247" x2="542.8335" y2="1245.0127">
	<stop  offset="0" style="stop-color:#F4F3F3"/>
	<stop  offset="1" style="stop-color:#DFDFDF"/>
</linearGradient>
<rect fill="url(#SVGID_1_)" width="1080" height="1500"/>
<path fill="#B2B2B2" d="M268.505,1468.21l123.076-39.681h18.16l42.37-14.123c0,0,24.209,3.364,26.901,8.071l26.902,1.347
	l24.209,5.379l24.214,12.104c0,0,22.864,13.452,33.628,12.779l22.192,2.69c0,0,23.541-8.071,42.37,0c0,0,27.573-23.539,56.492-15.47
	h18.832h10.091l29.59-8.069l25.558-15.468l12.776-3.364c0,0,41.283-12.104,57.296-12.104l36.188,10.088l21.521,11.435
	c0,0,16.815,14.123,37.664,18.832c0,0,4.709,2.688,8.07,6.726c3.364,4.032,20.181,15.467,26.229,15.467
	c6.054,0,23.537-12.778,23.537-12.778s28.247-20.849,54.477,21.521l15.552,41.024l-17.568,227.322l-838.662-8.744L268.505,1468.21z"
	/>
<polygon fill="#F4F4F4" points="368.123,1424.889 368.123,1413.581 370.521,1413.581 370.521,1401.591 374.462,1401.591 
	374.462,1413.24 377.033,1413.24 377.033,1424.889 382.857,1426.601 382.857,1432.424 390.223,1432.424 390.223,1441.333 
	399.131,1441.333 401.871,1444.76 402.557,1459.835 309.879,1459.835 309.879,1433.796 312.277,1433.969 313.476,1429.685 
	325.125,1429.514 341.058,1429.855 340.714,1425.574 "/>
<path fill="#A0A0A0" d="M1093.078,1453.681c0,0-55.813,9.918-68.214,26.044h-16.121c0,0-115.341,58.29-122.782,54.569
	s-50.85,27.285-50.85,27.285l-88.056,53.328c0,0-91.775,12.039-122.781,32.065c-31.007,20.023-312.535,279.047-312.535,279.047
	h781.338V1453.681z"/>
<path fill="#A0A0A0" d="M-6.376,1930.703v-488.461c0,0,78.134,1.239,116.581-28.526c0,0,44.648-27.284,100.458,0
	c0,0,137.664,37.207,167.429,37.207c29.766,0,62.01,19.844,89.296,27.284c27.283,7.441,45.887-7.439,80.613,9.922
	c34.725,17.364,58.291,109.14,58.291,109.14s75.652,90.538,115.341,96.737c0,0,26.044,3.721,52.089,68.21
	c26.045,64.494,66.972,168.487,66.972,168.487H-6.376z"/>
<polygon fill="#B2B2B2" points="92.817,1926.02 92.817,1775.519 137.464,1735.832 164.75,1735.832 164.75,1770.557 170.95,1770.557 
	170.95,1758.775 191.414,1758.156 191.414,1771.179 224.28,1771.179 224.28,1893.339 233.582,1892.719 233.582,1807.764 
	252.805,1808.385 252.805,1804.664 257.147,1804.664 257.147,1799.703 262.728,1799.703 262.728,1805.283 267.688,1805.283 
	267.688,1799.703 276.989,1799.083 276.989,1803.423 280.09,1803.423 280.09,1808.385 298.074,1811.484 298.074,1908.221 
	330.938,1907.602 330.938,1809.004 338.38,1805.903 338.38,1799.083 360.704,1800.322 360.704,1804.664 367.525,1804.664 
	367.525,1926.02 "/>
<polygon fill="#C4C4C4" points="-6.376,1841.593 21.53,1841.593 21.53,1880.66 33.933,1880.66 33.933,1873.838 81.68,1872.599 
	81.68,1896.162 92.842,1896.162 92.842,1831.672 106.486,1831.672 106.486,1823.608 128.81,1823.608 128.81,1827.951 
	136.871,1829.189 136.871,1864.536 151.134,1863.917 151.134,1881.279 162.915,1881.279 162.915,1874.459 189.579,1873.219 
	189.579,1865.777 200.741,1865.777 200.741,1872.599 211.284,1872.599 211.284,1880.04 216.865,1880.04 216.865,1859.886 
	229.266,1859.886 229.266,1852.136 235.466,1852.136 235.466,1849.034 248.488,1849.034 248.488,1852.136 259.65,1851.514 
	259.65,1846.555 275.773,1847.174 275.773,1852.755 298.717,1852.136 363.21,1852.755 363.21,1839.113 379.333,1838.491 
	379.333,1831.672 401.656,1831.672 401.656,1834.771 437.624,1834.151 437.624,1839.113 453.124,1839.113 453.124,1834.771 
	467.389,1834.771 467.389,1823.608 497.154,1823.608 497.154,1819.888 502.736,1819.888 502.736,1787.023 538.699,1787.023 
	538.699,1809.967 542.422,1809.967 542.422,1824.85 550.482,1824.85 550.482,1873.219 564.125,1872.599 564.125,1886.86 
	575.286,1886.86 575.286,1879.419 587.07,1878.799 587.07,1813.068 630.477,1812.447 630.477,1805.627 636.678,1805.006 
	636.678,1798.805 648.46,1798.186 648.46,1805.006 652.801,1805.006 652.801,1847.793 662.102,1847.793 662.102,1856.476 
	667.684,1857.095 667.684,1845.313 690.008,1845.933 690.008,1787.023 694.969,1787.023 694.969,1780.202 707.37,1780.202 
	707.37,1774.621 719.772,1774.621 719.772,1783.303 725.973,1782.682 725.973,1785.783 733.414,1785.783 733.414,1801.285 
	763.18,1799.425 763.18,1722.531 783.023,1722.531 783.023,1715.71 796.046,1715.71 796.046,1725.012 816.51,1721.912 
	816.51,1803.146 848.135,1801.906 848.135,1808.727 853.097,1809.348 853.097,1855.856 853.097,1877.559 867.979,1877.559 
	867.979,1795.085 873.56,1794.465 873.56,1790.123 900.227,1790.123 900.227,1795.704 911.389,1795.085 911.389,1833.532 
	921.31,1832.291 921.31,1827.329 944.252,1826.71 944.252,1837.253 954.795,1846.555 954.795,1834.151 963.478,1832.91 
	963.478,1827.951 972.778,1827.951 972.778,1833.532 980.84,1833.532 980.84,1830.431 988.281,1828.57 988.281,1832.91 
	993.861,1834.151 993.861,1830.431 1003.782,1829.812 1003.782,1834.771 1011.846,1835.393 1011.846,1907.323 1062.694,1907.323 
	1062.694,1789.504 1071.375,1788.884 1071.375,1733.693 1091.219,1733.693 1091.219,1930.703 -6.376,1930.703 "/>
<polygon fill="#D3D3D3" points="677.436,1928.843 677.436,1860.813 702.55,1860.813 702.55,1850.582 719.292,1850.582 
	719.292,1859.883 723.943,1859.883 723.943,1854.303 735.105,1856.163 740.688,1860.813 749.988,1860.813 765.801,1860.813 
	765.801,1850.582 782.544,1850.582 782.544,1857.093 789.984,1855.232 789.984,1860.813 827.191,1862.674 834.633,1859.883 
	834.633,1855.232 869.049,1854.303 869.049,1860.813 883.001,1862.674 883.001,1883.138 906.256,1882.207 906.256,1872.905 
	931.37,1873.836 931.37,1881.277 948.113,1882.207 948.113,1877.557 966.717,1875.696 966.717,1880.347 990.9,1880.347 
	990.9,1850.582 997.411,1850.582 997.411,1843.141 1020.666,1843.141 1020.666,1852.442 1051.361,1853.372 1051.361,1843.141 
	1087.638,1843.141 1087.638,1853.372 1092.289,1854.303 1092.289,1928.843 "/>
<linearGradient id="SVGID_2_" gradientUnits="userSpaceOnUse" x1="537.9829" y1="23.0264" x2="547.0123" y2="1600.3682">
	<stop  offset="0" style="stop-color:#F4F3F3"/>
	<stop  offset="1" style="stop-color:#DFDFDF"/>
</linearGradient>
<rect x="-6.376" y="-9.252" opacity="0.63" fill="url(#SVGID_2_)" width="1099.455" height="1939.956"/>
</svg>
