<?xml version="1.0" encoding="utf-8"?>
<!-- Generator: Adobe Illustrator 14.0.0, SVG Export Plug-In . SVG Version: 6.00 Build 43363)  -->
<!DOCTYPE svg PUBLIC "-//W3C//DTD SVG 1.1//EN" "http://www.w3.org/Graphics/SVG/1.1/DTD/svg11.dtd">
<svg version="1.1" id="Capa_1" xmlns="http://www.w3.org/2000/svg" xmlns:xlink="http://www.w3.org/1999/xlink" x="0px" y="0px"
	 width="60px" height="60px" viewBox="0 0 60 60" enable-background="new 0 0 60 60" xml:space="preserve">
<g>
	<path fill="#363636" d="M33.035,34.455h-6.504c-0.017-0.936-0.026-1.504-0.026-1.709c0-2.11,0.349-3.843,1.046-5.204
		c0.697-1.361,2.092-2.892,4.183-4.592c2.092-1.7,3.342-2.813,3.75-3.341c0.629-0.833,0.943-1.751,0.943-2.755
		c0-1.395-0.557-2.588-1.67-3.583c-1.115-0.995-2.615-1.492-4.503-1.492c-1.818,0-3.341,0.519-4.566,1.555
		c-1.224,1.039-2.065,2.62-2.526,4.746l-6.581-0.816c0.187-3.044,1.484-5.628,3.891-7.754c2.406-2.126,5.564-3.189,9.476-3.189
		c4.115,0,7.388,1.076,9.82,3.227c2.432,2.151,3.648,4.655,3.648,7.513c0,1.582-0.447,3.078-1.34,4.489s-2.803,3.333-5.729,5.765
		c-1.512,1.258-2.451,2.27-2.816,3.034C33.168,31.113,33.002,32.482,33.035,34.455z M26.494,37.531h6.408
		c0,0-1.281,1.385-2.906,8.473C29.997,46.004,28.092,39.146,26.494,37.531z"/>
	<ellipse fill="#363636" cx="30" cy="50.504" rx="8.941" ry="3.178"/>
</g>
</svg>
