<?xml version="1.0" encoding="utf-8"?>
<!-- Generator: Adobe Illustrator 14.0.0, SVG Export Plug-In . SVG Version: 6.00 Build 43363)  -->
<!DOCTYPE svg PUBLIC "-//W3C//DTD SVG 1.1//EN" "http://www.w3.org/Graphics/SVG/1.1/DTD/svg11.dtd">
<svg version="1.1" id="Capa_1" xmlns="http://www.w3.org/2000/svg" xmlns:xlink="http://www.w3.org/1999/xlink" x="0px" y="0px"
	 width="150px" height="150px" viewBox="0 0 150 150" enable-background="new 0 0 150 150" xml:space="preserve">
<g>
	<path fill="#FFFFFF" d="M83.953,83.816H73.039c-0.027-1.57-0.042-2.525-0.042-2.867c0-3.539,0.585-6.449,1.754-8.73
		c1.171-2.283,3.511-4.852,7.02-7.706c3.51-2.854,5.606-4.722,6.292-5.607c1.056-1.398,1.584-2.938,1.584-4.622
		c0-2.34-0.936-4.344-2.804-6.014c-1.869-1.668-4.388-2.503-7.554-2.503c-3.054,0-5.608,0.869-7.663,2.61
		c-2.054,1.74-3.467,4.394-4.237,7.962l-11.042-1.37c0.313-5.108,2.49-9.445,6.527-13.012c4.037-3.567,9.337-5.351,15.901-5.351
		c6.904,0,12.397,1.804,16.477,5.415c4.081,3.609,6.121,7.811,6.121,12.604c0,2.654-0.748,5.166-2.246,7.534
		s-4.702,5.592-9.609,9.672c-2.539,2.113-4.115,3.809-4.729,5.094C84.175,78.209,83.896,80.506,83.953,83.816z M84.521,95.416
		c0,3.504-2.842,6.346-6.347,6.346c-3.505,0-6.347-2.842-6.347-6.346c0-3.506,2.842-6.346,6.347-6.346
		C81.68,89.07,84.521,91.91,84.521,95.416z"/>
	<path fill="#FFFFFF" d="M16.144,45.095c0,0,4.375,0.034,9.613,0s4.564-6.277,4.564-6.277V21.781c0,0-0.5-12,15.5-12s75,0,75,0
		s13-1.5,13,13s0,92,0,92s1.5,15-15.5,15s-54.5,0-54.5,0l0.094,10.482l-13.162-20.572l13.279-18.42l-0.005,9.514l41.793-0.004
		c0,0,10.479,0.123,10.5-9c0.027-12-0.339-67.375-0.339-67.375s0.339-7.104-7.161-7.104s-54,0-54,0s-8-0.5-8,6.5
		c0,2.079-0.073,18.158-0.073,18.158c-0.392,8.044-6.92,8.631-6.92,8.631L16.144,60.69V45.095z"/>
</g>
</svg>
