<?xml version="1.0" encoding="utf-8"?>
<!-- Generator: Adobe Illustrator 14.0.0, SVG Export Plug-In . SVG Version: 6.00 Build 43363)  -->
<!DOCTYPE svg PUBLIC "-//W3C//DTD SVG 1.1//EN" "http://www.w3.org/Graphics/SVG/1.1/DTD/svg11.dtd">
<svg version="1.1" id="Capa_1" xmlns="http://www.w3.org/2000/svg" xmlns:xlink="http://www.w3.org/1999/xlink" x="0px" y="0px"
	 width="60px" height="60px" viewBox="45 45 60 60" enable-background="new 45 45 60 60" xml:space="preserve">
<g>
	<path fill="#FFFFFF" d="M94.925,77.203c-6.033,6.322-16.05,6.558-22.372,0.524c-6.323-6.032-6.559-16.049-0.526-22.372
		s16.049-6.559,22.372-0.526C100.723,60.862,100.958,70.879,94.925,77.203z M92.443,56.879c-5.192-4.952-13.415-4.759-18.367,0.432
		c-4.953,5.191-4.76,13.414,0.431,18.367c5.191,4.953,13.415,4.76,18.367-0.431C97.828,70.056,97.636,61.832,92.443,56.879z"/>
	<path fill="#FFFFFF" d="M58.531,98.87c-0.832,0.872-2.214,0.903-3.086,0.072l-4.07-3.884c-0.872-0.831-0.904-2.214-0.072-3.085
		l14.636-15.341c0.832-0.872,2.214-0.904,3.086-0.072l4.07,3.882c0.872,0.833,0.905,2.214,0.073,3.086L58.531,98.87z"/>
</g>
</svg>
