<?xml version="1.0" encoding="utf-8"?>
<!-- Generator: Adobe Illustrator 14.0.0, SVG Export Plug-In . SVG Version: 6.00 Build 43363)  -->
<!DOCTYPE svg PUBLIC "-//W3C//DTD SVG 1.1//EN" "http://www.w3.org/Graphics/SVG/1.1/DTD/svg11.dtd">
<svg version="1.1" id="Capa_2" xmlns="http://www.w3.org/2000/svg" xmlns:xlink="http://www.w3.org/1999/xlink" x="0px" y="0px"
	 width="595.28px" height="386px" viewBox="0 0 595.28 386" enable-background="new 0 0 595.28 386" xml:space="preserve">
<symbol  id="LogoDignifcar" viewBox="-257.696 -157.267 515.392 314.532">
	<g>
		
			<linearGradient id="SVGID_1_" gradientUnits="userSpaceOnUse" x1="16830.875" y1="146.2383" x2="16877.8984" y2="146.2383" gradientTransform="matrix(-1 0 0 1 16837.334 0)">
			<stop  offset="0" style="stop-color:#FFEC00"/>
			<stop  offset="0.3091" style="stop-color:#FCC200"/>
			<stop  offset="0.8545" style="stop-color:#825F01"/>
		</linearGradient>
		<polygon fill="url(#SVGID_1_)" points="-40.563,142.767 6.46,149.635 -35.491,149.711 		"/>
		
			<linearGradient id="SVGID_2_" gradientUnits="userSpaceOnUse" x1="16732.7363" y1="122.0195" x2="16809.4629" y2="122.0195" gradientTransform="matrix(-1 0 0 1 16837.334 0)">
			<stop  offset="0" style="stop-color:#FFEC00"/>
			<stop  offset="0.3091" style="stop-color:#FCC200"/>
			<stop  offset="0.8545" style="stop-color:#825F01"/>
		</linearGradient>
		<polygon fill="url(#SVGID_2_)" points="125.731,99.017 49.007,86.774 58.019,157.266 		"/>
		
			<linearGradient id="SVGID_3_" gradientUnits="userSpaceOnUse" x1="16825.0156" y1="156.7617" x2="16835.582" y2="124.0048" gradientTransform="matrix(-1 0 0 1 16837.334 0)">
			<stop  offset="0" style="stop-color:#FFEC00"/>
			<stop  offset="0.3091" style="stop-color:#FCC200"/>
			<stop  offset="0.8545" style="stop-color:#825F01"/>
		</linearGradient>
		<polygon fill="url(#SVGID_3_)" points="-35.491,149.711 -5.804,121.612 58.019,157.266 		"/>
		
			<linearGradient id="SVGID_4_" gradientUnits="userSpaceOnUse" x1="16767.2676" y1="119.8643" x2="16868.707" y2="133.0724" gradientTransform="matrix(-1 0 0 1 16837.334 0)">
			<stop  offset="0" style="stop-color:#FFEC00"/>
			<stop  offset="0.3091" style="stop-color:#FCC200"/>
			<stop  offset="0.8545" style="stop-color:#825F01"/>
		</linearGradient>
		<polygon fill="url(#SVGID_4_)" points="-5.804,121.612 49.007,86.774 58.019,157.266 		"/>
		
			<linearGradient id="SVGID_5_" gradientUnits="userSpaceOnUse" x1="16682.4102" y1="135.5176" x2="16706.7168" y2="135.5176" gradientTransform="matrix(-1 0 0 1 16837.334 0)">
			<stop  offset="0" style="stop-color:#FFEC00"/>
			<stop  offset="0.3091" style="stop-color:#FCC200"/>
			<stop  offset="0.8545" style="stop-color:#825F01"/>
		</linearGradient>
		<polygon fill="url(#SVGID_5_)" points="154.923,136.427 121.361,121.752 134.875,149.282 		"/>
		
			<linearGradient id="SVGID_6_" gradientUnits="userSpaceOnUse" x1="16704.0156" y1="116.8867" x2="16746.8125" y2="109.4896" gradientTransform="matrix(-1 0 0 1 16837.334 0)">
			<stop  offset="0" style="stop-color:#FFEC00"/>
			<stop  offset="0.3091" style="stop-color:#FCC200"/>
			<stop  offset="0.8545" style="stop-color:#825F01"/>
		</linearGradient>
		<polygon fill="url(#SVGID_6_)" points="134.875,149.282 123.303,83.03 80.989,119.005 		"/>
		
			<linearGradient id="SVGID_7_" gradientUnits="userSpaceOnUse" x1="16762.166" y1="33.1016" x2="16747.1074" y2="91.7477" gradientTransform="matrix(-1 0 0 1 16837.334 0)">
			<stop  offset="0" style="stop-color:#FFEC00"/>
			<stop  offset="0.3091" style="stop-color:#FCC200"/>
			<stop  offset="0.8545" style="stop-color:#825F01"/>
		</linearGradient>
		<polygon fill="url(#SVGID_7_)" points="125.463,98.979 122.958,76.355 46.612,31.684 52.159,86.368 93.807,117.761 		"/>
		
			<linearGradient id="SVGID_8_" gradientUnits="userSpaceOnUse" x1="16826.1387" y1="-7.0537" x2="16788.7637" y2="68.6289" gradientTransform="matrix(-1 0 0 1 16837.334 0)">
			<stop  offset="0" style="stop-color:#FFEC00"/>
			<stop  offset="0.3091" style="stop-color:#FCC200"/>
			<stop  offset="0.8545" style="stop-color:#825F01"/>
		</linearGradient>
		<polygon fill="url(#SVGID_8_)" points="-5.759,5.464 51.176,76.126 46.612,17.814 		"/>
		
			<linearGradient id="SVGID_9_" gradientUnits="userSpaceOnUse" x1="16711.8711" y1="111.7422" x2="16787.0117" y2="111.7422" gradientTransform="matrix(-1 0 0 1 16837.334 0)">
			<stop  offset="0" style="stop-color:#FFEC00"/>
			<stop  offset="0.3091" style="stop-color:#FCC200"/>
			<stop  offset="0.8545" style="stop-color:#825F01"/>
		</linearGradient>
		<polygon fill="url(#SVGID_9_)" points="125.463,98.979 51.176,76.212 50.322,147.272 		"/>
		
			<linearGradient id="SVGID_10_" gradientUnits="userSpaceOnUse" x1="16810.2598" y1="125.1914" x2="16901.8184" y2="125.1914" gradientTransform="matrix(-1 0 0 1 16837.334 0)">
			<stop  offset="0" style="stop-color:#FFEC00"/>
			<stop  offset="0.3091" style="stop-color:#FCC200"/>
			<stop  offset="0.8545" style="stop-color:#825F01"/>
		</linearGradient>
		<polygon fill="url(#SVGID_10_)" points="-41.236,126.818 -7.935,103.11 50.322,147.272 		"/>
		
			<linearGradient id="SVGID_11_" gradientUnits="userSpaceOnUse" x1="16870.2188" y1="124.209" x2="16911.2305" y2="124.209" gradientTransform="matrix(-1 0 0 1 16837.334 0)">
			<stop  offset="0" style="stop-color:#FFEC00"/>
			<stop  offset="0.3091" style="stop-color:#FCC200"/>
			<stop  offset="0.8545" style="stop-color:#825F01"/>
		</linearGradient>
		<polygon fill="url(#SVGID_11_)" points="-46.902,113.709 -5.891,134.71 -41.236,126.818 		"/>
		
			<linearGradient id="SVGID_12_" gradientUnits="userSpaceOnUse" x1="16770.6875" y1="109.584" x2="16844.6523" y2="119.6223" gradientTransform="matrix(-1 0 0 1 16837.334 0)">
			<stop  offset="0" style="stop-color:#FFEC00"/>
			<stop  offset="0.3091" style="stop-color:#FCC200"/>
			<stop  offset="0.8545" style="stop-color:#825F01"/>
		</linearGradient>
		<polygon fill="url(#SVGID_12_)" points="-7.935,103.11 51.176,76.212 50.322,147.272 		"/>
		
			<linearGradient id="SVGID_13_" gradientUnits="userSpaceOnUse" x1="16711.1055" y1="106.9971" x2="16764.998" y2="64.7287" gradientTransform="matrix(-1 0 0 1 16837.334 0)">
			<stop  offset="0" style="stop-color:#FFEC00"/>
			<stop  offset="0.3091" style="stop-color:#FCC200"/>
			<stop  offset="0.8545" style="stop-color:#825F01"/>
		</linearGradient>
		<polygon fill="url(#SVGID_13_)" points="122.958,76.355 51.176,76.212 125.463,98.979 		"/>
	</g>
	
		<linearGradient id="SVGID_14_" gradientUnits="userSpaceOnUse" x1="17044.2422" y1="60.1758" x2="17088.9961" y2="60.1758" gradientTransform="matrix(-1 0 0 1 16837.334 0)">
		<stop  offset="0" style="stop-color:#DE0A1A"/>
		<stop  offset="0.3091" style="stop-color:#B9111D"/>
		<stop  offset="0.8545" style="stop-color:#94141B"/>
	</linearGradient>
	<polygon fill="url(#SVGID_14_)" points="-251.663,56.87 -206.907,63.407 -246.835,63.48 	"/>
	
		<linearGradient id="SVGID_15_" gradientUnits="userSpaceOnUse" x1="16927.9082" y1="36.6436" x2="16997.9316" y2="36.6436" gradientTransform="matrix(-1 0 0 1 16837.334 0)">
		<stop  offset="0" style="stop-color:#DE0A1A"/>
		<stop  offset="0.3091" style="stop-color:#B9111D"/>
		<stop  offset="0.8545" style="stop-color:#94141B"/>
	</linearGradient>
	<polygon fill="url(#SVGID_15_)" points="-71.287,14.75 -141.312,3.098 -135.734,70.189 	"/>
	
		<linearGradient id="SVGID_16_" gradientUnits="userSpaceOnUse" x1="17038.666" y1="70.1895" x2="17048.7227" y2="39.0121" gradientTransform="matrix(-1 0 0 1 16837.334 0)">
		<stop  offset="0" style="stop-color:#DE0A1A"/>
		<stop  offset="0.3091" style="stop-color:#B9111D"/>
		<stop  offset="0.8545" style="stop-color:#94141B"/>
	</linearGradient>
	<polygon fill="url(#SVGID_16_)" points="-246.835,63.48 -218.58,36.735 -157.836,70.67 	"/>
	
		<linearGradient id="SVGID_17_" gradientUnits="userSpaceOnUse" x1="16983.7031" y1="35.0723" x2="17080.248" y2="47.6431" gradientTransform="matrix(-1 0 0 1 16837.334 0)">
		<stop  offset="0" style="stop-color:#DE0A1A"/>
		<stop  offset="0.3091" style="stop-color:#B9111D"/>
		<stop  offset="0.8545" style="stop-color:#94141B"/>
	</linearGradient>
	<polygon fill="url(#SVGID_17_)" points="-218.58,36.735 -166.413,3.578 -157.836,70.67 	"/>
	
		<linearGradient id="SVGID_18_" gradientUnits="userSpaceOnUse" x1="16880.8379" y1="49.4902" x2="16903.9707" y2="49.4902" gradientTransform="matrix(-1 0 0 1 16837.334 0)">
		<stop  offset="0" style="stop-color:#DE0A1A"/>
		<stop  offset="0.3091" style="stop-color:#B9111D"/>
		<stop  offset="0.8545" style="stop-color:#94141B"/>
	</linearGradient>
	<polygon fill="url(#SVGID_18_)" points="-43.504,50.355 -75.446,36.389 -62.584,62.591 	"/>
	
		<linearGradient id="SVGID_19_" gradientUnits="userSpaceOnUse" x1="16901.3984" y1="31.7578" x2="16942.1289" y2="24.7178" gradientTransform="matrix(-1 0 0 1 16837.334 0)">
		<stop  offset="0" style="stop-color:#DE0A1A"/>
		<stop  offset="0.3091" style="stop-color:#B9111D"/>
		<stop  offset="0.8545" style="stop-color:#94141B"/>
	</linearGradient>
	<polygon fill="url(#SVGID_19_)" points="-62.584,62.591 -73.599,-0.466 -113.87,33.774 	"/>
	
		<linearGradient id="SVGID_20_" gradientUnits="userSpaceOnUse" x1="16956.748" y1="-47.9863" x2="16942.416" y2="7.8313" gradientTransform="matrix(-1 0 0 1 16837.334 0)">
		<stop  offset="0" style="stop-color:#DE0A1A"/>
		<stop  offset="0.3091" style="stop-color:#B9111D"/>
		<stop  offset="0.8545" style="stop-color:#94141B"/>
	</linearGradient>
	<polygon fill="url(#SVGID_20_)" points="-71.542,14.714 -73.926,-6.818 -146.59,-49.336 -141.31,2.712 -101.672,32.59 	"/>
	
		<linearGradient id="SVGID_21_" gradientUnits="userSpaceOnUse" x1="17039.7344" y1="-85.7246" x2="17004.1621" y2="-13.6925" gradientTransform="matrix(-1 0 0 1 16837.334 0)">
		<stop  offset="0" style="stop-color:#DE0A1A"/>
		<stop  offset="0.3091" style="stop-color:#B9111D"/>
		<stop  offset="0.8545" style="stop-color:#94141B"/>
	</linearGradient>
	<polygon fill="url(#SVGID_21_)" points="-218.537,-73.811 -164.348,-6.557 -168.691,-62.056 	"/>
	
		<linearGradient id="SVGID_22_" gradientUnits="userSpaceOnUse" x1="16908.877" y1="26.8613" x2="16979.5801" y2="26.8613" gradientTransform="matrix(-1 0 0 1 16837.334 0)">
		<stop  offset="0" style="stop-color:#DE0A1A"/>
		<stop  offset="0.3091" style="stop-color:#B9111D"/>
		<stop  offset="0.8545" style="stop-color:#94141B"/>
	</linearGradient>
	<polygon fill="url(#SVGID_22_)" points="-71.542,14.714 -142.246,-6.955 -137.058,60.678 	"/>
	
		<linearGradient id="SVGID_23_" gradientUnits="userSpaceOnUse" x1="17024.6211" y1="40.1426" x2="17111.7637" y2="40.1426" gradientTransform="matrix(-1 0 0 1 16837.334 0)">
		<stop  offset="0" style="stop-color:#DE0A1A"/>
		<stop  offset="0.3091" style="stop-color:#B9111D"/>
		<stop  offset="0.8545" style="stop-color:#94141B"/>
	</linearGradient>
	<polygon fill="url(#SVGID_23_)" points="-252.304,41.692 -220.608,19.127 -165.16,61.159 	"/>
	
		<linearGradient id="SVGID_24_" gradientUnits="userSpaceOnUse" x1="17081.6895" y1="39.208" x2="17120.7227" y2="39.208" gradientTransform="matrix(-1 0 0 1 16837.334 0)">
		<stop  offset="0" style="stop-color:#DE0A1A"/>
		<stop  offset="0.3091" style="stop-color:#B9111D"/>
		<stop  offset="0.8545" style="stop-color:#94141B"/>
	</linearGradient>
	<polygon fill="url(#SVGID_24_)" points="-257.696,29.214 -218.662,49.202 -252.304,41.692 	"/>
	
		<linearGradient id="SVGID_25_" gradientUnits="userSpaceOnUse" x1="16986.957" y1="25.2891" x2="17057.3535" y2="34.8431" gradientTransform="matrix(-1 0 0 1 16837.334 0)">
		<stop  offset="0" style="stop-color:#DE0A1A"/>
		<stop  offset="0.3091" style="stop-color:#B9111D"/>
		<stop  offset="0.8545" style="stop-color:#94141B"/>
	</linearGradient>
	<polygon fill="url(#SVGID_25_)" points="-220.608,19.127 -164.348,-6.475 -165.16,61.159 	"/>
	
		<linearGradient id="SVGID_26_" gradientUnits="userSpaceOnUse" x1="16908.1484" y1="22.3457" x2="16959.4414" y2="-17.8839" gradientTransform="matrix(-1 0 0 1 16837.334 0)">
		<stop  offset="0" style="stop-color:#DE0A1A"/>
		<stop  offset="0.3091" style="stop-color:#B9111D"/>
		<stop  offset="0.8545" style="stop-color:#94141B"/>
	</linearGradient>
	<polygon fill="url(#SVGID_26_)" points="-73.926,-6.818 -142.246,-6.955 -71.542,14.714 	"/>
	<path d="M-57.656-44.135v40.559h21.878c7.381,0,12.675-1.99,15.908-5.959c2.607-3.34,3.914-8.241,3.914-14.717
		c0-5.303-1.227-9.708-3.689-13.236c-3.146-4.433-7.837-6.646-14.093-6.646H-57.656z M-49.14-9.946v-27.824h11.993
		c8.452,0,12.687,4.628,12.687,13.866c0,5.747-1.594,9.722-4.783,11.912c-1.969,1.369-4.755,2.046-8.357,2.046H-49.14z"/>
	<g>
		<polygon points="-3.185,-44.131 -3.185,-11.33 -10.082,-11.33 -10.082,-44.131 		"/>
	</g>
	<path d="M38.488-26.146v-17.988h-4.047l-0.962,4.27c-1.354-1.623-3.122-2.887-5.328-3.813c-2.197-0.923-4.591-1.388-7.157-1.388
		c-6.511,0-11.458,1.739-14.82,5.197c-2.972,3.058-4.456,7.092-4.456,12.119c0,4.987,1.515,9.02,4.553,12.124
		c3.393,3.454,8.238,5.183,14.544,5.183c4.841,0,8.838-1.102,11.983-3.303c3.038-2.15,4.726-4.862,5.098-8.165h-7.443
		c-0.58,2.11-1.814,3.715-3.713,4.801c-1.685,1.009-3.726,1.514-6.11,1.514c-7.839,0-11.76-4.123-11.76-12.389
		c0-4.07,1.184-7.139,3.541-9.219c2.014-1.808,4.635-2.706,7.849-2.706c6.405,0,10.179,2.873,11.352,8.616h-9.277v5.147H38.488z"/>
	<polygon points="45.153,-44.135 45.153,-11.341 53.078,-11.341 72.648,-35.945 72.648,-11.341 79.267,-11.341 79.267,-44.135 
		71.482,-44.135 51.759,-19.521 51.759,-44.135 	"/>
	<g>
		<polygon points="92.867,-44.131 92.867,-11.33 85.963,-11.33 85.963,-44.131 		"/>
	</g>
	<polygon points="99.55,-44.135 99.55,-11.341 126.815,-11.341 126.815,-16.488 106.462,-16.488 106.462,-24.743 125.718,-24.743 
		125.718,-29.896 106.462,-29.896 106.462,-44.135 	"/>
	<g>
		<polygon points="137.909,-44.131 137.909,-11.33 131.01,-11.33 131.01,-44.131 		"/>
	</g>
	<path d="M179.025-23.47h-7.438c-0.344,2.44-1.455,4.364-3.359,5.772c-1.894,1.404-4.29,2.101-7.205,2.101
		c-3.309,0-5.937-1.052-7.901-3.169c-2.103-2.264-3.169-5.452-3.169-9.581c0-3.427,1.073-6.21,3.218-8.356
		c2.146-2.145,4.913-3.207,8.312-3.207c3.207,0,5.722,0.938,7.536,2.847c1.377,1.435,2.226,3.258,2.569,5.464h7.438
		c-1.313-8.973-7.56-13.467-18.726-13.467c-5.635,0-10.036,1.739-13.182,5.197c-2.876,3.148-4.314,7.181-4.314,12.108
		c0,4.998,1.438,9.03,4.314,12.124c3.248,3.465,7.908,5.193,14.003,5.193c5.384,0,9.693-1.282,12.901-3.855
		C176.96-16.654,178.624-19.712,179.025-23.47"/>
	<path d="M180.809-44.135l14.606,32.794h8.169l14.606-32.794h-7.668l-3.438,8.119h-15.448l-3.391-8.119H180.809z M193.712-30.87
		h11.296l-5.595,13.851L193.712-30.87z"/>
	<path d="M221.077-44.135v32.789h20.729c7.378,0,11.059-2.962,11.059-8.906c0-2.046-0.514-3.778-1.545-5.188
		c-0.944-1.287-2.226-2.184-3.851-2.705v-0.095c1.846-0.394,3.128-1.395,3.872-2.989c0.621-1.347,0.911-3.303,0.911-5.885
		c0-3.451,0.46-5.794,1.372-7.021h-7.437c-0.55,1.007-0.821,2.666-0.821,4.963c0,2.695-0.332,4.599-0.974,5.738
		c-0.82,1.497-2.405,2.246-4.721,2.246h-11.689v-12.947H221.077z M227.982-26.042h11.871c1.984,0,3.457,0.372,4.419,1.083
		s1.446,1.971,1.446,3.733c0,3.166-1.957,4.737-5.865,4.737h-11.871V-26.042z"/>
	<g>
		<polygon points="-218.512,-93.018 257.696,-93.018 257.696,-90.662 -218.512,-90.662 		"/>
	</g>
	<g>
		<path d="M-211.305-115.798l-1.606-4.862h-2.064l5.252,15.459h2.408l5.275-15.459h-2.133l-1.651,4.862H-211.305z M-206.236-114.238
			l-1.514,4.448c-0.344,1.011-0.573,1.928-0.803,2.822h-0.046c-0.229-0.917-0.481-1.858-0.78-2.798l-1.513-4.473H-206.236z"/>
		<path d="M-199.907-104.377h2.018v-16.283h-2.018V-104.377z"/>
		<path d="M-192.063-106.899v-2.661h2.89v-1.536h-2.89v-5.985c0-1.377,0.39-2.155,1.514-2.155c0.55,0,0.871,0.045,1.169,0.136
			l0.092-1.512c-0.391-0.161-1.009-0.299-1.79-0.299c-0.94,0-1.696,0.321-2.178,0.871c-0.574,0.596-0.78,1.582-0.78,2.89v6.055
			h-1.72v1.536h1.72v2.042L-192.063-106.899z"/>
		<path d="M-179.105-117.999c0-0.964,0.046-1.904,0.185-2.661h-1.836l-0.16,1.399h-0.069c-0.62-0.872-1.812-1.651-3.394-1.651
			c-2.248,0-3.395,1.582-3.395,3.188c0,2.684,2.386,4.151,6.674,4.129v0.229c0,0.918-0.253,2.569-2.523,2.569
			c-1.032,0-2.11-0.321-2.89-0.825l-0.458,1.33c0.917,0.596,2.248,0.986,3.646,0.986c3.394,0,4.22-2.316,4.22-4.542V-117.999z
			 M-181.055-114.995c-2.201,0.046-4.702-0.345-4.702-2.5c0-1.309,0.871-1.927,1.904-1.927c1.444,0,2.362,0.917,2.684,1.857
			c0.068,0.207,0.114,0.437,0.114,0.642V-114.995z"/>
		<path d="M-160.116-120.156c-0.733-0.366-2.201-0.756-4.082-0.756c-4.358,0-7.637,2.775-7.637,7.843c0,4.841,3.279,8.12,8.073,8.12
			c1.926,0,3.143-0.414,3.669-0.688l-0.481-1.628c-0.757,0.366-1.835,0.642-3.119,0.642c-3.624,0-6.033-2.315-6.033-6.376
			c0-3.783,2.179-6.215,5.94-6.215c1.216,0,2.454,0.252,3.257,0.642L-160.116-120.156z"/>
		<path d="M-147.868-115.019c0-4.104-2.845-5.894-5.528-5.894c-3.004,0-5.32,2.201-5.32,5.71c0,3.716,2.431,5.896,5.504,5.896
			C-150.025-109.307-147.868-111.623-147.868-115.019z M-156.675-115.132c0-2.433,1.398-4.268,3.372-4.268
			c1.926,0,3.372,1.813,3.372,4.313c0,1.881-0.941,4.266-3.326,4.266C-155.645-110.821-156.675-113.023-156.675-115.132z"/>
		<path d="M-145.323-112.563c0,1.146-0.022,2.087-0.091,3.003h1.789l0.115-1.834h0.046c0.55,1.056,1.834,2.088,3.669,2.088
			c1.537,0,3.921-0.917,3.921-4.726v-6.628h-2.017v6.399c0,1.789-0.665,3.279-2.569,3.279c-1.331,0-2.362-0.939-2.706-2.064
			c-0.092-0.252-0.138-0.596-0.138-0.94v-6.674h-2.019V-112.563z"/>
		<path d="M-132.87-118.595c0.596-0.391,1.652-0.805,2.661-0.805c1.467,0,2.156,0.735,2.156,1.652c0,0.964-0.574,1.489-2.064,2.042
			c-1.995,0.71-2.936,1.811-2.936,3.142c0,1.788,1.445,3.257,3.83,3.257c1.125,0,2.11-0.321,2.729-0.688l-0.505-1.468
			c-0.436,0.276-1.238,0.642-2.27,0.642c-1.192,0-1.858-0.688-1.858-1.514c0-0.917,0.666-1.331,2.11-1.88
			c1.927-0.734,2.913-1.698,2.913-3.35c0-1.949-1.514-3.348-4.151-3.348c-1.216,0-2.339,0.321-3.119,0.779L-132.87-118.595z"/>
		<path d="M-122.388-115.477c0.046-2.73,1.789-3.854,3.807-3.854c1.445,0,2.317,0.252,3.073,0.573l0.344-1.444
			c-0.71-0.321-1.926-0.711-3.692-0.711c-3.417,0-5.458,2.271-5.458,5.619s1.973,5.986,5.206,5.986c3.624,0,4.587-3.188,4.587-5.229
			c0-0.413-0.046-0.735-0.069-0.94H-122.388z M-116.471-114.032c0.023,1.285-0.527,3.279-2.798,3.279
			c-2.04,0-2.936-1.881-3.096-3.279H-116.471z"/>
		<path d="M-114.729-123.916c0.917,0.068,1.721,0.319,2.202,0.847c0.55,0.62,0.757,1.515,0.757,4.177v9.332h2.017v-10.113
			c0-2.155-0.344-3.556-1.329-4.564c-0.896-0.895-2.363-1.261-3.441-1.261L-114.729-123.916z M-109.522-106.439
			c0.023-0.666-0.459-1.239-1.261-1.239c-0.757,0-1.239,0.573-1.239,1.239c0,0.71,0.528,1.261,1.285,1.261
			C-110.004-105.179-109.522-105.729-109.522-106.439z"/>
		<path d="M-105.325-115.477c0.046-2.73,1.789-3.854,3.808-3.854c1.445,0,2.316,0.252,3.073,0.573l0.344-1.444
			c-0.711-0.321-1.927-0.711-3.693-0.711c-3.417,0-5.458,2.271-5.458,5.619s1.972,5.986,5.207,5.986
			c3.623,0,4.585-3.188,4.585-5.229c0-0.413-0.044-0.735-0.068-0.94H-105.325z M-99.408-114.032
			c0.023,1.285-0.527,3.279-2.798,3.279c-2.042,0-2.936-1.881-3.097-3.279H-99.408z"/>
		<path d="M-94.958-113.023c0,1.309-0.023,2.432-0.092,3.463h1.766l0.069-2.179h0.092c0.504,1.491,1.72,2.433,3.073,2.433
			c0.229,0,0.39-0.023,0.573-0.068v-1.904c-0.207,0.047-0.413,0.068-0.688,0.068c-1.422,0-2.431-1.077-2.707-2.591
			c-0.045-0.276-0.091-0.597-0.091-0.941v-5.917h-1.996V-113.023z"/>
		<path d="M-83.285-104.767l-2.799-3.278h-1.444l2.019,3.278H-83.285z M-87.39-120.66v11.1h2.018v-11.1H-87.39z"/>
		<path d="M-74.226-117.999c0-0.964,0.046-1.904,0.184-2.661h-1.835l-0.16,1.399h-0.069c-0.619-0.872-1.812-1.651-3.395-1.651
			c-2.247,0-3.394,1.582-3.394,3.188c0,2.684,2.386,4.151,6.674,4.129v0.229c0,0.918-0.252,2.569-2.523,2.569
			c-1.032,0-2.11-0.321-2.89-0.825l-0.458,1.33c0.917,0.596,2.247,0.986,3.646,0.986c3.395,0,4.22-2.316,4.22-4.542V-117.999z
			 M-76.175-114.995c-2.202,0.046-4.702-0.345-4.702-2.5c0-1.309,0.872-1.927,1.904-1.927c1.445,0,2.363,0.917,2.684,1.857
			c0.069,0.207,0.115,0.437,0.115,0.642V-114.995z"/>
		<path d="M-66.107-113.183c0,1.422-0.046,2.568-0.092,3.622h1.813l0.092-1.902h0.045c0.826,1.354,2.133,2.156,3.945,2.156
			c2.684,0,4.702-2.271,4.702-5.643c0-3.99-2.431-5.963-5.046-5.963c-1.467,0-2.751,0.642-3.417,1.742h-0.046v-6.031h-1.995
			V-113.183z M-64.112-116.142c0-0.298,0.046-0.573,0.092-0.826c0.367-1.398,1.583-2.362,3.028-2.362
			c2.132,0,3.371,1.743,3.371,4.289c0,2.226-1.169,4.129-3.303,4.129c-1.376,0-2.661-0.987-3.05-2.501
			c-0.068-0.253-0.138-0.55-0.138-0.825V-116.142z"/>
		<path d="M-45.26-117.999c0-0.964,0.046-1.904,0.184-2.661h-1.834l-0.161,1.399h-0.069c-0.619-0.872-1.811-1.651-3.394-1.651
			c-2.248,0-3.394,1.582-3.394,3.188c0,2.684,2.384,4.151,6.673,4.129v0.229c0,0.918-0.251,2.569-2.523,2.569
			c-1.031,0-2.109-0.321-2.889-0.825l-0.459,1.33c0.917,0.596,2.248,0.986,3.647,0.986c3.394,0,4.219-2.316,4.219-4.542V-117.999z
			 M-47.21-114.995c-2.2,0.046-4.701-0.345-4.701-2.5c0-1.309,0.87-1.927,1.903-1.927c1.444,0,2.362,0.917,2.684,1.857
			c0.068,0.207,0.114,0.437,0.114,0.642V-114.995z"/>
		<path d="M-42.003-113.023c0,1.309-0.023,2.432-0.092,3.463h1.767l0.069-2.179h0.091c0.505,1.491,1.721,2.433,3.074,2.433
			c0.229,0,0.39-0.023,0.572-0.068v-1.904c-0.205,0.047-0.413,0.068-0.686,0.068c-1.423,0-2.432-1.077-2.707-2.591
			c-0.046-0.276-0.092-0.597-0.092-0.941v-5.917h-1.995V-113.023z"/>
		<path d="M-26.821-117.999c0-0.964,0.046-1.904,0.184-2.661h-1.834l-0.161,1.399h-0.069c-0.619-0.872-1.812-1.651-3.394-1.651
			c-2.248,0-3.394,1.582-3.394,3.188c0,2.684,2.384,4.151,6.673,4.129v0.229c0,0.918-0.251,2.569-2.523,2.569
			c-1.03,0-2.109-0.321-2.888-0.825l-0.46,1.33c0.918,0.596,2.248,0.986,3.647,0.986c3.395,0,4.219-2.316,4.219-4.542V-117.999z
			 M-28.771-114.995c-2.2,0.046-4.701-0.345-4.701-2.5c0-1.309,0.871-1.927,1.903-1.927c1.445,0,2.362,0.917,2.684,1.857
			c0.068,0.207,0.114,0.437,0.114,0.642V-114.995z"/>
		<path d="M-18.702-104.377h2.019v-16.283h-2.019V-104.377z"/>
		<path d="M-3.243-115.019c0-4.104-2.845-5.894-5.527-5.894c-3.006,0-5.322,2.201-5.322,5.71c0,3.716,2.43,5.896,5.504,5.896
			C-5.4-109.307-3.243-111.623-3.243-115.019z M-12.05-115.132c0-2.433,1.399-4.268,3.372-4.268c1.926,0,3.371,1.813,3.371,4.313
			c0,1.881-0.941,4.266-3.327,4.266C-11.02-110.821-12.05-113.023-12.05-115.132z"/>
		<path d="M-0.974-118.595c0.596-0.391,1.652-0.805,2.66-0.805c1.47,0,2.157,0.735,2.157,1.652c0,0.964-0.573,1.489-2.064,2.042
			c-1.996,0.71-2.936,1.811-2.936,3.142c0,1.788,1.444,3.257,3.83,3.257c1.124,0,2.109-0.321,2.729-0.688l-0.505-1.468
			c-0.436,0.276-1.238,0.642-2.269,0.642c-1.195,0-1.859-0.688-1.859-1.514c0-0.917,0.664-1.331,2.108-1.88
			c1.928-0.734,2.914-1.698,2.914-3.35c0-1.949-1.513-3.348-4.151-3.348c-1.216,0-2.339,0.321-3.119,0.779L-0.974-118.595z"/>
		<path d="M13.314-105.407c1.216,0.183,2.66,0.321,4.243,0.321c2.867,0,4.908-0.665,6.261-1.928c1.376-1.261,2.179-3.05,2.179-5.55
			c0-2.523-0.78-4.588-2.224-6.01c-1.445-1.444-3.83-2.226-6.835-2.226c-1.423,0-2.615,0.069-3.624,0.186V-105.407z M15.311-119.078
			c0.504-0.092,1.238-0.114,2.019-0.114c4.266,0,6.581,2.385,6.581,6.559c0.023,3.648-2.041,5.965-6.262,5.965
			c-1.032,0-1.811-0.093-2.338-0.208V-119.078z"/>
		<path d="M29.645-115.477c0.046-2.73,1.788-3.854,3.807-3.854c1.445,0,2.316,0.252,3.073,0.573l0.344-1.444
			c-0.71-0.321-1.926-0.711-3.692-0.711c-3.417,0-5.459,2.271-5.459,5.619s1.974,5.986,5.207,5.986c3.623,0,4.588-3.188,4.588-5.229
			c0-0.413-0.047-0.735-0.069-0.94H29.645z M35.563-114.032c0.021,1.285-0.528,3.279-2.8,3.279c-2.041,0-2.935-1.881-3.097-3.279
			H35.563z"/>
		<path d="M40.011-113.023c0,1.309-0.022,2.432-0.092,3.463h1.765l0.069-2.179h0.093c0.504,1.491,1.719,2.433,3.072,2.433
			c0.231,0,0.391-0.023,0.574-0.068v-1.904c-0.205,0.047-0.412,0.068-0.688,0.068c-1.422,0-2.432-1.077-2.706-2.591
			c-0.046-0.276-0.091-0.597-0.091-0.941v-5.917h-1.996V-113.023z"/>
		<path d="M48.404-115.477c0.046-2.73,1.789-3.854,3.809-3.854c1.444,0,2.314,0.252,3.072,0.573l0.343-1.444
			c-0.71-0.321-1.926-0.711-3.692-0.711c-3.416,0-5.457,2.271-5.457,5.619s1.972,5.986,5.205,5.986c3.625,0,4.587-3.188,4.587-5.229
			c0-0.413-0.045-0.735-0.067-0.94H48.404z M54.321-114.032c0.022,1.285-0.527,3.279-2.797,3.279c-2.042,0-2.938-1.881-3.098-3.279
			H54.321z"/>
		<path d="M66.684-120.247c-0.527-0.275-1.698-0.665-3.188-0.665c-3.349,0-5.527,2.293-5.527,5.688c0,3.417,2.341,5.895,5.963,5.895
			c1.192,0,2.249-0.298,2.799-0.573l-0.46-1.56c-0.481,0.276-1.238,0.528-2.339,0.528c-2.545,0-3.922-1.881-3.922-4.197
			c0-2.568,1.65-4.151,3.854-4.151c1.146,0,1.902,0.298,2.477,0.55L66.684-120.247z"/>
		<path d="M69.045-104.377h2.019v-6.926h0.046c0.321,0.574,0.827,1.079,1.446,1.424c0.597,0.342,1.307,0.572,2.063,0.572
			c1.491,0,3.876-0.917,3.876-4.748v-6.605h-2.02v6.376c0,1.789-0.663,3.303-2.565,3.303c-1.308,0-2.342-0.918-2.707-2.019
			c-0.115-0.275-0.139-0.573-0.139-0.963v-6.697h-2.019V-104.377z"/>
		<path d="M91.818-115.019c0-4.104-2.843-5.894-5.527-5.894c-3.002,0-5.321,2.201-5.321,5.71c0,3.716,2.433,5.896,5.506,5.896
			C89.664-109.307,91.818-111.623,91.818-115.019z M83.012-115.132c0-2.433,1.399-4.268,3.372-4.268
			c1.928,0,3.372,1.813,3.372,4.313c0,1.881-0.94,4.266-3.325,4.266S83.012-113.023,83.012-115.132z"/>
		<path d="M94.091-118.595c0.597-0.391,1.65-0.805,2.658-0.805c1.469,0,2.158,0.735,2.158,1.652c0,0.964-0.574,1.489-2.064,2.042
			c-1.995,0.71-2.936,1.811-2.936,3.142c0,1.788,1.445,3.257,3.83,3.257c1.123,0,2.111-0.321,2.73-0.688l-0.507-1.468
			c-0.435,0.276-1.238,0.642-2.27,0.642c-1.193,0-1.857-0.688-1.857-1.514c0-0.917,0.664-1.331,2.11-1.88
			c1.927-0.734,2.913-1.698,2.913-3.35c0-1.949-1.516-3.348-4.153-3.348c-1.215,0-2.339,0.321-3.12,0.779L94.091-118.595z"/>
		<path d="M117.896-104.377v-13.416c0-0.986,0.021-2.11,0.091-2.867h-1.812l-0.092,1.927h-0.046
			c-0.618-1.238-1.971-2.179-3.783-2.179c-2.684,0-4.748,2.271-4.748,5.641c-0.024,3.694,2.271,5.965,4.979,5.965
			c1.696,0,2.843-0.803,3.347-1.697h0.044v6.627H117.896z M115.875-114.078c0,0.253-0.022,0.598-0.09,0.849
			c-0.297,1.285-1.398,2.34-2.913,2.34c-2.087,0-3.326-1.836-3.326-4.289c0-2.248,1.101-4.104,3.28-4.104
			c1.354,0,2.592,0.894,2.958,2.407c0.068,0.274,0.09,0.551,0.09,0.872V-114.078z"/>
		<path d="M122.367-115.477c0.046-2.73,1.791-3.854,3.808-3.854c1.445,0,2.317,0.252,3.075,0.573l0.344-1.444
			c-0.713-0.321-1.928-0.711-3.692-0.711c-3.419,0-5.46,2.271-5.46,5.619s1.972,5.986,5.206,5.986c3.626,0,4.588-3.188,4.588-5.229
			c0-0.413-0.046-0.735-0.07-0.94H122.367z M128.285-114.032c0.023,1.285-0.526,3.279-2.799,3.279c-2.038,0-2.936-1.881-3.095-3.279
			H128.285z"/>
		<path d="M137.596-104.377h2.02v-16.283h-2.02V-104.377z"/>
		<path d="M150.806-117.999c0-0.964,0.046-1.904,0.185-2.661h-1.835l-0.161,1.399h-0.069c-0.619-0.872-1.812-1.651-3.393-1.651
			c-2.249,0-3.396,1.582-3.396,3.188c0,2.684,2.386,4.151,6.677,4.129v0.229c0,0.918-0.254,2.569-2.526,2.569
			c-1.03,0-2.107-0.321-2.888-0.825l-0.458,1.33c0.916,0.596,2.247,0.986,3.646,0.986c3.395,0,4.219-2.316,4.219-4.542V-117.999z
			 M148.856-114.995c-2.201,0.046-4.7-0.345-4.7-2.5c0-1.309,0.87-1.927,1.903-1.927c1.445,0,2.361,0.917,2.684,1.857
			c0.07,0.207,0.113,0.437,0.113,0.642V-114.995z"/>
		<path d="M153.789-118.595c0.596-0.391,1.649-0.805,2.658-0.805c1.468,0,2.157,0.735,2.157,1.652c0,0.964-0.572,1.489-2.064,2.042
			c-1.996,0.71-2.935,1.811-2.935,3.142c0,1.788,1.444,3.257,3.83,3.257c1.123,0,2.11-0.321,2.729-0.688l-0.506-1.468
			c-0.435,0.276-1.237,0.642-2.27,0.642c-1.191,0-1.857-0.688-1.857-1.514c0-0.917,0.666-1.331,2.111-1.88
			c1.927-0.734,2.911-1.698,2.911-3.35c0-1.949-1.514-3.348-4.153-3.348c-1.214,0-2.337,0.321-3.117,0.779L153.789-118.595z"/>
		<path d="M171.472-120.66l-5.046,15.459h2.154l2.407-7.614c0.666-2.088,1.242-3.968,1.653-5.779h0.046
			c0.436,1.787,1.077,3.737,1.766,5.756l2.615,7.638h2.134l-5.53-15.459H171.472z"/>
		<path d="M184.911-104.767l-2.799-3.278h-1.446l2.018,3.278H184.911z M180.805-120.66v11.1h2.019v-11.1H180.805z"/>
		<path d="M194.083-120.247c-0.526-0.275-1.696-0.665-3.187-0.665c-3.349,0-5.527,2.293-5.527,5.688
			c0,3.417,2.338,5.895,5.964,5.895c1.193,0,2.247-0.298,2.797-0.573l-0.458-1.56c-0.481,0.276-1.239,0.528-2.339,0.528
			c-2.545,0-3.921-1.881-3.921-4.197c0-2.568,1.649-4.151,3.854-4.151c1.146,0,1.903,0.298,2.477,0.55L194.083-120.247z"/>
		<path d="M199.175-106.899v-2.661h2.892v-1.536h-2.892v-5.985c0-1.377,0.392-2.155,1.515-2.155c0.551,0,0.873,0.045,1.17,0.136
			l0.091-1.512c-0.388-0.161-1.008-0.299-1.787-0.299c-0.942,0-1.699,0.321-2.18,0.871c-0.574,0.596-0.78,1.582-0.78,2.89v6.055
			h-1.72v1.536h1.72v2.042L199.175-106.899z"/>
		<path d="M206.584-106.439c0.023-0.688-0.484-1.239-1.284-1.239c-0.713,0-1.217,0.551-1.217,1.239c0,0.71,0.529,1.261,1.263,1.261
			C206.101-105.179,206.584-105.729,206.584-106.439z M204.336-120.66v11.1h2.019v-11.1H204.336z"/>
		<path d="M209.703-112.563c0,1.146-0.022,2.087-0.092,3.003h1.765l0.092-1.788h0.069c0.618,1.056,1.65,2.042,3.485,2.042
			c1.514,0,2.66-0.917,3.141-2.224h0.046c0.345,0.618,0.779,1.1,1.237,1.442c0.666,0.507,1.401,0.781,2.457,0.781
			c1.466,0,3.646-0.963,3.646-4.817v-6.536h-1.973v6.283c0,2.134-0.779,3.419-2.408,3.419c-1.147,0-2.041-0.85-2.387-1.835
			c-0.089-0.276-0.159-0.643-0.159-1.009v-6.858h-1.971v6.651c0,1.766-0.781,3.051-2.319,3.051c-1.262,0-2.178-1.01-2.499-2.02
			c-0.116-0.298-0.159-0.643-0.159-0.985v-6.697h-1.974V-112.563z"/>
		<path d="M236.626-117.999c0-0.964,0.046-1.904,0.185-2.661h-1.835l-0.16,1.399h-0.07c-0.618-0.872-1.811-1.651-3.392-1.651
			c-2.25,0-3.396,1.582-3.396,3.188c0,2.684,2.384,4.151,6.675,4.129v0.229c0,0.918-0.253,2.569-2.524,2.569
			c-1.032,0-2.109-0.321-2.89-0.825l-0.458,1.33c0.917,0.596,2.247,0.986,3.646,0.986c3.395,0,4.218-2.316,4.218-4.542V-117.999z
			 M234.677-114.995c-2.199,0.046-4.699-0.345-4.699-2.5c0-1.309,0.869-1.927,1.903-1.927c1.445,0,2.361,0.917,2.684,1.857
			c0.069,0.207,0.112,0.437,0.112,0.642V-114.995z"/>
		<path d="M239.61-118.595c0.596-0.391,1.651-0.805,2.658-0.805c1.469,0,2.157,0.735,2.157,1.652c0,0.964-0.573,1.489-2.065,2.042
			c-1.995,0.71-2.935,1.811-2.935,3.142c0,1.788,1.446,3.257,3.831,3.257c1.122,0,2.11-0.321,2.729-0.688l-0.507-1.468
			c-0.435,0.276-1.238,0.642-2.269,0.642c-1.192,0-1.858-0.688-1.858-1.514c0-0.917,0.666-1.331,2.11-1.88
			c1.928-0.734,2.912-1.698,2.912-3.35c0-1.949-1.513-3.348-4.151-3.348c-1.217,0-2.34,0.321-3.12,0.779L239.61-118.595z"/>
		<path d="M247.452-123.481c0.481,1.354,1.101,3.808,1.354,5.482l2.247,0.229c-0.528-1.949-1.536-4.494-2.178-5.573L247.452-123.481
			z"/>
	</g>
	<g>
		<path d="M-97.134-135.915h2.018v-16.283h-2.018V-135.915z"/>
		<path d="M-83.924-149.537c0-0.963,0.045-1.904,0.183-2.661h-1.834l-0.161,1.399h-0.069c-0.62-0.872-1.812-1.651-3.394-1.651
			c-2.248,0-3.395,1.583-3.395,3.188c0,2.685,2.385,4.152,6.674,4.129v0.229c0,0.917-0.252,2.568-2.523,2.568
			c-1.032,0-2.11-0.321-2.89-0.825l-0.459,1.331c0.918,0.595,2.248,0.985,3.647,0.985c3.395,0,4.221-2.316,4.221-4.541V-149.537z
			 M-85.874-146.533c-2.202,0.046-4.702-0.344-4.702-2.5c0-1.307,0.872-1.926,1.903-1.926c1.445,0,2.363,0.917,2.684,1.856
			c0.069,0.208,0.115,0.437,0.115,0.643V-146.533z"/>
		<path d="M-75.737-136.922c0.963,0.16,2.225,0.298,3.83,0.298c1.973,0,3.417-0.459,4.334-1.285
			c0.849-0.733,1.354-1.857,1.354-3.233c0-1.399-0.413-2.501-1.192-3.303c-1.055-1.125-2.776-1.697-4.725-1.697
			c-0.597,0-1.147,0.021-1.605,0.138v-6.193h-1.996V-136.922z M-73.742-144.377c0.436-0.114,0.986-0.161,1.651-0.161
			c2.408,0,3.876,1.172,3.876,3.303c0,2.043-1.445,3.028-3.647,3.028c-0.872,0-1.537-0.068-1.88-0.161V-144.377z"/>
		<path d="M-55.807-149.537c0-0.963,0.046-1.904,0.183-2.661h-1.835l-0.16,1.399h-0.069c-0.619-0.872-1.812-1.651-3.394-1.651
			c-2.248,0-3.395,1.583-3.395,3.188c0,2.685,2.385,4.152,6.674,4.129v0.229c0,0.917-0.252,2.568-2.523,2.568
			c-1.033,0-2.11-0.321-2.89-0.825l-0.459,1.331c0.917,0.595,2.248,0.985,3.647,0.985c3.394,0,4.22-2.316,4.22-4.541V-149.537z
			 M-57.756-146.533c-2.203,0.046-4.702-0.344-4.702-2.5c0-1.307,0.871-1.926,1.903-1.926c1.444,0,2.362,0.917,2.684,1.856
			c0.069,0.208,0.115,0.437,0.115,0.643V-146.533z"/>
		<path d="M-53.812-151.028l5.022,6.537c0.481,0.596,0.94,1.125,1.446,1.721v0.046h-6.01v1.628h8.463l-0.022-1.263l-4.954-6.445
			c-0.459-0.618-0.918-1.168-1.422-1.742v-0.046h6.491v-1.605h-9.014V-151.028z"/>
		<path d="M-37.139-141.097l2.432-6.56c0.25-0.733,0.527-1.606,0.71-2.271h0.046c0.206,0.664,0.436,1.513,0.71,2.315l2.202,6.515
			h2.133l-3.028-7.913c-1.444-3.807-2.431-5.756-3.807-6.948c-0.985-0.873-1.973-1.217-2.477-1.309l-0.504,1.696
			c0.504,0.162,1.17,0.482,1.766,0.986c0.55,0.437,1.238,1.217,1.697,2.248c0.092,0.207,0.16,0.367,0.16,0.482
			s-0.045,0.275-0.136,0.527l-4.105,10.229H-37.139z"/>
		<path d="M-22.208-135.915h2.019v-16.283h-2.019V-135.915z"/>
		<path d="M-8.999-149.537c0-0.963,0.047-1.904,0.184-2.661h-1.834l-0.162,1.399h-0.069c-0.62-0.872-1.811-1.651-3.394-1.651
			c-2.248,0-3.394,1.583-3.394,3.188c0,2.685,2.384,4.152,6.672,4.129v0.229c0,0.917-0.25,2.568-2.522,2.568
			c-1.031,0-2.11-0.321-2.889-0.825l-0.458,1.331c0.917,0.595,2.248,0.985,3.646,0.985c3.394,0,4.219-2.316,4.219-4.541V-149.537z
			 M-10.948-146.533c-2.2,0.046-4.701-0.344-4.701-2.5c0-1.307,0.871-1.926,1.903-1.926c1.445,0,2.363,0.917,2.684,1.856
			c0.068,0.208,0.114,0.437,0.114,0.643V-146.533z"/>
		<path d="M-0.812-136.945c1.012,0.206,2.454,0.321,3.83,0.321c2.135,0,3.512-0.391,4.474-1.261
			c0.779-0.688,1.214-1.744,1.214-2.937c0-2.042-1.283-3.396-2.912-3.946v-0.068c1.192-0.412,1.903-1.514,2.271-3.119
			c0.504-2.155,0.871-3.646,1.192-4.243H7.195c-0.254,0.46-0.597,1.768-1.034,3.693c-0.458,2.133-1.285,2.935-3.096,3.004H1.185
			v-6.697h-1.996V-136.945z M1.185-143.987h2.042c2.132,0,3.485,1.17,3.485,2.936c0,1.995-1.444,2.868-3.555,2.89
			c-0.964,0-1.649-0.091-1.973-0.183V-143.987z"/>
		<path d="M12.376-147.015c0.045-2.729,1.789-3.853,3.807-3.853c1.445,0,2.317,0.252,3.073,0.572l0.344-1.443
			c-0.711-0.321-1.926-0.712-3.691-0.712c-3.418,0-5.459,2.271-5.459,5.619c0,3.349,1.972,5.986,5.205,5.986
			c3.625,0,4.589-3.188,4.589-5.229c0-0.413-0.047-0.734-0.07-0.94H12.376z M18.292-145.57c0.024,1.285-0.526,3.28-2.797,3.28
			c-2.04,0-2.936-1.881-3.097-3.28H18.292z"/>
		<path d="M30.656-151.784c-0.528-0.275-1.698-0.666-3.188-0.666c-3.35,0-5.528,2.294-5.528,5.688c0,3.417,2.34,5.895,5.964,5.895
			c1.191,0,2.247-0.298,2.798-0.573l-0.458-1.56c-0.483,0.276-1.241,0.528-2.34,0.528c-2.547,0-3.923-1.881-3.923-4.197
			c0-2.568,1.651-4.151,3.853-4.151c1.146,0,1.903,0.298,2.477,0.551L30.656-151.784z"/>
		<path d="M42.949-146.557c0-4.104-2.844-5.894-5.527-5.894c-3.005,0-5.32,2.201-5.32,5.712c0,3.714,2.43,5.894,5.503,5.894
			C40.792-140.845,42.949-143.161,42.949-146.557z M34.142-146.67c0-2.433,1.399-4.267,3.372-4.267c1.926,0,3.372,1.812,3.372,4.313
			c0,1.881-0.942,4.265-3.326,4.265C35.173-142.359,34.142-144.561,34.142-146.67z"/>
		<path d="M45.493-144.101c0,1.146-0.021,2.086-0.09,3.004h1.789l0.113-1.836h0.047c0.55,1.057,1.834,2.088,3.67,2.088
			c1.534,0,3.92-0.917,3.92-4.726v-6.628h-2.017v6.399c0,1.789-0.665,3.28-2.568,3.28c-1.331,0-2.363-0.94-2.707-2.065
			c-0.092-0.252-0.139-0.596-0.139-0.939v-6.675h-2.019V-144.101z"/>
		<path d="M66.135-151.784c-0.526-0.275-1.695-0.666-3.187-0.666c-3.35,0-5.527,2.294-5.527,5.688c0,3.417,2.339,5.895,5.962,5.895
			c1.192,0,2.249-0.298,2.799-0.573l-0.458-1.56c-0.483,0.276-1.239,0.528-2.341,0.528c-2.545,0-3.922-1.881-3.922-4.197
			c0-2.568,1.651-4.151,3.853-4.151c1.149,0,1.903,0.298,2.479,0.551L66.135-151.784z"/>
		<path d="M70.746-137.978c0.023-0.688-0.483-1.239-1.284-1.239c-0.712,0-1.216,0.551-1.216,1.239c0,0.711,0.527,1.261,1.262,1.261
			C70.263-136.717,70.746-137.267,70.746-137.978z M68.497-152.198v11.102h2.019v-11.102H68.497z"/>
		<path d="M73.865-135.915h2.016v-16.283h-2.016V-135.915z"/>
		<path d="M81.524-137.978c0.024-0.688-0.483-1.239-1.283-1.239c-0.712,0-1.216,0.551-1.216,1.239c0,0.711,0.527,1.261,1.263,1.261
			C81.042-136.717,81.524-137.267,81.524-137.978z M79.276-152.198v11.102h2.019v-11.102H79.276z"/>
		<path d="M92.44-149.537c0-0.963,0.046-1.904,0.183-2.661H90.79l-0.161,1.399H90.56c-0.619-0.872-1.812-1.651-3.393-1.651
			c-2.249,0-3.395,1.583-3.395,3.188c0,2.685,2.385,4.152,6.676,4.129v0.229c0,0.917-0.253,2.568-2.525,2.568
			c-1.03,0-2.108-0.321-2.89-0.825l-0.456,1.331c0.915,0.595,2.245,0.985,3.646,0.985c3.395,0,4.219-2.316,4.219-4.541V-149.537z
			 M90.491-146.533c-2.201,0.046-4.701-0.344-4.701-2.5c0-1.307,0.871-1.926,1.904-1.926c1.445,0,2.361,0.917,2.684,1.856
			c0.069,0.208,0.113,0.437,0.113,0.643V-146.533z"/>
		<path d="M103.611-151.784c-0.528-0.275-1.699-0.666-3.188-0.666c-3.35,0-5.529,2.294-5.529,5.688c0,3.417,2.342,5.895,5.965,5.895
			c1.192,0,2.249-0.298,2.799-0.573l-0.461-1.56c-0.481,0.276-1.239,0.528-2.338,0.528c-2.546,0-3.923-1.881-3.923-4.197
			c0-2.568,1.653-4.151,3.854-4.151c1.146,0,1.903,0.298,2.477,0.551L103.611-151.784z"/>
		<path d="M108.221-137.978c0.023-0.688-0.483-1.239-1.283-1.239c-0.712,0-1.216,0.551-1.216,1.239c0,0.711,0.527,1.261,1.262,1.261
			C107.737-136.717,108.221-137.267,108.221-137.978z M105.972-152.198v11.102h2.021v-11.102H105.972z"/>
		<path d="M121.385-146.557c0-4.104-2.845-5.894-5.525-5.894c-3.007,0-5.322,2.201-5.322,5.712c0,3.714,2.43,5.894,5.503,5.894
			C119.229-140.845,121.385-143.161,121.385-146.557z M112.578-146.67c0-2.433,1.397-4.267,3.369-4.267
			c1.927,0,3.373,1.812,3.373,4.313c0,1.881-0.939,4.265-3.326,4.265C113.609-142.359,112.578-144.561,112.578-146.67z
			 M118.977-136.303l-2.799-3.28h-1.444l2.017,3.28H118.977z"/>
		<path d="M123.931-144.101c0,1.146-0.023,2.086-0.092,3.004h1.788l0.116-1.836h0.046c0.551,1.057,1.834,2.088,3.668,2.088
			c1.539,0,3.922-0.917,3.922-4.726v-6.628h-2.018v6.399c0,1.789-0.666,3.28-2.57,3.28c-1.331,0-2.361-0.94-2.708-2.065
			c-0.089-0.252-0.136-0.596-0.136-0.939v-6.675h-2.017V-144.101z"/>
	</g>
</symbol>
<use xlink:href="#LogoDignifcar"  width="515.392" height="314.532" id="XMLID_1_" x="-257.696" y="-157.267" transform="matrix(1 0 0 -1 297.6987 187.1035)" overflow="visible"/>
</svg>
