<?xml version="1.0" encoding="utf-8"?>
<!-- Generator: Adobe Illustrator 14.0.0, SVG Export Plug-In . SVG Version: 6.00 Build 43363)  -->
<!DOCTYPE svg PUBLIC "-//W3C//DTD SVG 1.1//EN" "http://www.w3.org/Graphics/SVG/1.1/DTD/svg11.dtd">
<svg version="1.1" id="Capa_1" xmlns="http://www.w3.org/2000/svg" xmlns:xlink="http://www.w3.org/1999/xlink" x="0px" y="0px"
	 width="424.324px" height="294.595px" viewBox="0 0 424.324 294.595" enable-background="new 0 0 424.324 294.595"
	 xml:space="preserve">
<rect x="23.96" y="211.554" fill="#1A171B" width="381" height="36.022"/>
<g>
	<path fill="#FFFFFF" d="M71.845,226.58c-1.617-2.353-4.675-3.797-8.204-3.797c-5.322,0-9.526,3.209-9.526,8.012
		c0,4.729,4.204,7.99,9.526,7.99c3.735,0,6.94-1.668,8.527-4.289l1.118,0.27c-1.735,3.039-5.352,4.95-9.645,4.95
		c-5.91,0-10.673-3.749-10.673-8.921c0-5.17,4.763-8.92,10.673-8.92c4.029,0,7.498,1.74,9.35,4.461L71.845,226.58z"/>
	<path fill="#FFFFFF" d="M63.641,240.615c-6.598,0-11.574-4.222-11.574-9.819c0-5.599,4.976-9.821,11.574-9.821
		c4.251,0,8.025,1.814,10.094,4.854l0.755,1.107l-3.046,0.652l-0.342-0.497c-1.466-2.134-4.255-3.408-7.461-3.408
		c-4.999,0-8.626,2.992-8.626,7.113c0,4.106,3.627,7.089,8.626,7.089c3.345,0,6.317-1.477,7.756-3.855l0.342-0.563l2.923,0.705
		l-0.594,1.041C72.136,238.596,68.238,240.615,63.641,240.615"/>
	<polygon fill="#FFFFFF" points="90.719,238.467 90.719,239.372 77.428,239.372 77.428,222.219 90.542,222.219 90.542,223.125 
		78.546,223.125 78.546,229.668 88.279,229.668 88.279,230.551 78.546,230.551 78.546,238.467 	"/>
	<polygon fill="#FFFFFF" points="91.619,240.273 76.528,240.273 76.528,221.318 91.443,221.318 91.443,224.025 79.446,224.025 
		79.446,228.768 89.179,228.768 89.179,231.451 79.446,231.451 79.446,237.566 91.619,237.566 	"/>
	<path fill="#FFFFFF" d="M112.211,222.219v17.154h-1.059L99.567,226.36c-1.764-1.985-2.294-2.696-2.323-2.696h-0.029
		c-0.029,0,0.058,1.887,0.058,4.094v11.615h-1.117v-17.154h1.059l11.526,12.914c1.676,1.862,2.382,2.695,2.411,2.695h0.03
		c0.029,0-0.089-1.91-0.089-4.066v-11.543H112.211z"/>
	<path fill="#FFFFFF" d="M113.111,240.273h-2.363l-11.854-13.314c-0.273-0.309-0.517-0.585-0.735-0.833
		c0.009,0.503,0.014,1.058,0.014,1.631v12.517h-2.917v-18.955h2.362l11.795,13.216c0.296,0.329,0.562,0.626,0.8,0.894
		c-0.012-0.517-0.02-1.082-0.02-1.666v-12.443h2.918V240.273z"/>
	<polygon fill="#FFFFFF" points="132.29,222.219 132.29,223.125 125.086,223.125 125.086,239.373 123.939,239.373 123.939,223.125 
		116.735,223.125 116.735,222.219 	"/>
	<polygon fill="#FFFFFF" points="125.986,240.273 123.039,240.273 123.039,224.025 115.835,224.025 115.835,221.318 133.19,221.318 
		133.19,224.025 125.986,224.025 	"/>
	<path fill="#FFFFFF" d="M149.107,239.373l-5.087-6.911c-0.529,0.074-1.088,0.099-1.676,0.099h-4.411v6.813h-1.117v-17.154h5.528
		c4.646,0,7.439,1.961,7.439,5.195c0,2.523-1.705,4.239-4.646,4.876l5.293,7.083H149.107z M142.344,231.727
		c4.087,0,6.292-1.715,6.292-4.313c0-2.818-2.44-4.289-6.292-4.289h-4.411v8.602H142.344z"/>
	<path fill="#FFFFFF" d="M152.228,240.273h-3.576l-5.049-6.859c-0.377,0.031-0.789,0.047-1.259,0.047h-3.51v6.813h-2.918v-18.955
		h6.428c5.145,0,8.34,2.336,8.34,6.096c0,2.521-1.456,4.432-4.046,5.381L152.228,240.273z M138.833,230.826h3.51
		c1.621,0,5.392-0.332,5.392-3.412c0-2.947-3.378-3.389-5.392-3.389h-3.51V230.826z"/>
	<path fill="#FFFFFF" d="M164.159,221.875c5.91,0,10.703,3.749,10.703,8.92c0,5.172-4.793,8.92-10.703,8.92
		s-10.674-3.748-10.674-8.92C153.485,225.624,158.249,221.875,164.159,221.875 M164.159,238.809c5.292,0,9.556-3.283,9.556-8.014
		c0-4.802-4.264-8.012-9.556-8.012c-5.322,0-9.527,3.21-9.527,8.012C154.632,235.525,158.837,238.809,164.159,238.809"/>
	<path fill="#FFFFFF" d="M164.159,240.616c-6.599,0-11.574-4.222-11.574-9.821c0-5.598,4.975-9.82,11.574-9.82
		c6.615,0,11.604,4.223,11.604,9.82C175.763,236.395,170.774,240.616,164.159,240.616 M164.159,223.684
		c-4.999,0-8.626,2.99-8.626,7.111c0,4.122,3.627,7.114,8.626,7.114c4.935,0,8.656-3.06,8.656-7.114
		C172.815,226.674,169.174,223.684,164.159,223.684"/>
	<path fill="#FFFFFF" d="M196.557,222.219c5.882,0,10.646,3.528,10.646,8.676c0,5.023-4.705,8.478-10.38,8.478h-8.762v-17.153
		H196.557z M196.822,238.467c4.971,0,9.232-2.867,9.232-7.572c0-4.756-4.262-7.77-9.498-7.77h-7.379v15.342H196.822z"/>
	<path fill="#FFFFFF" d="M196.822,240.273h-9.662v-18.955h9.396c6.584,0,11.545,4.117,11.545,9.576
		C208.102,236.241,203.253,240.273,196.822,240.273 M190.078,237.566h6.744c4.141,0,8.332-2.293,8.332-6.672
		c0-4.045-3.535-6.869-8.598-6.869h-6.479V237.566z"/>
	<polygon fill="#FFFFFF" points="225.31,238.467 225.31,239.372 212.021,239.372 212.021,222.219 225.134,222.219 225.134,223.125 
		213.138,223.125 213.138,229.668 222.87,229.668 222.87,230.551 213.138,230.551 213.138,238.467 	"/>
	<polygon fill="#FFFFFF" points="226.21,240.273 211.12,240.273 211.12,221.318 226.034,221.318 226.034,224.025 214.038,224.025 
		214.038,228.768 223.771,228.768 223.771,231.451 214.038,231.451 214.038,237.566 226.21,237.566 	"/>
	<path fill="#FFFFFF" d="M257.063,222.219v17.154h-1.117v-9.484c0-1.937,0.117-6.027,0.088-6.027h-0.029
		c-0.029,0-0.764,1.15-1.736,2.598l-6.025,8.698h-0.588l-6.029-8.698c-0.969-1.447-1.705-2.598-1.734-2.598h-0.029
		c-0.029,0,0.088,4.091,0.088,6.027v9.484h-1.117v-17.154h1.059l5.734,8.283c1.91,2.719,2.264,3.529,2.293,3.529h0.029
		c0.029,0,0.412-0.811,2.324-3.529l5.732-8.283H257.063z"/>
	<path fill="#FFFFFF" d="M257.964,240.273h-2.918v-10.385c0-0.791,0.02-1.945,0.039-3.031c-0.021,0.035-0.045,0.068-0.066,0.103
		l-6.305,9.099h-1.531l-6.297-9.086c-0.025-0.039-0.051-0.076-0.074-0.115c0.02,1.088,0.039,2.24,0.039,3.031v10.385h-2.918v-18.955
		h2.43l6.002,8.671c0.723,1.026,1.229,1.79,1.578,2.342c0.355-0.549,0.863-1.31,1.592-2.349l5.998-8.664h2.432V240.273z"/>
	<polygon fill="#FFFFFF" points="277.026,238.467 277.026,239.372 263.735,239.372 263.735,222.219 276.849,222.219 
		276.849,223.125 264.853,223.125 264.853,229.668 274.585,229.668 274.585,230.551 264.853,230.551 264.853,238.467 	"/>
	<polygon fill="#FFFFFF" points="277.927,240.273 262.835,240.273 262.835,221.318 277.749,221.318 277.749,224.025 
		265.753,224.025 265.753,228.768 275.485,228.768 275.485,231.451 265.753,231.451 265.753,237.566 277.927,237.566 	"/>
	<path fill="#FFFFFF" d="M300.243,222.219v17.154h-1.096v-9.484c0-1.937,0.115-6.027,0.088-6.027h-0.029
		c-0.027,0-0.748,1.15-1.697,2.598l-5.9,8.698h-0.574l-5.9-8.698c-0.951-1.447-1.668-2.598-1.699-2.598h-0.027
		c-0.029,0,0.086,4.091,0.086,6.027v9.484h-1.094v-17.154h1.035l5.613,8.283c1.871,2.719,2.215,3.529,2.244,3.529h0.029
		c0.027,0,0.402-0.811,2.273-3.529l5.611-8.283H300.243z"/>
	<path fill="#FFFFFF" d="M301.144,240.273h-2.896v-10.385c0-0.779,0.02-1.906,0.041-2.976c-0.01,0.013-0.018,0.026-0.027,0.04
		l-6.176,9.105h-1.529l-6.168-9.095c-0.012-0.017-0.021-0.034-0.033-0.051c0.02,1.069,0.039,2.196,0.039,2.976v10.385h-2.895
		v-18.955h2.414l5.879,8.678c0.693,1.007,1.182,1.759,1.525,2.309c0.346-0.547,0.836-1.298,1.535-2.313l5.877-8.673h2.414V240.273z"
		/>
	<path fill="#FFFFFF" d="M315.526,221.875c5.785,0,10.477,3.749,10.477,8.92c0,5.172-4.691,8.92-10.477,8.92
		c-5.783,0-10.445-3.748-10.445-8.92C305.081,225.624,309.743,221.875,315.526,221.875 M315.526,238.809
		c5.182,0,9.354-3.283,9.354-8.014c0-4.802-4.172-8.012-9.354-8.012c-5.209,0-9.322,3.21-9.322,8.012
		C306.204,235.525,310.317,238.809,315.526,238.809"/>
	<path fill="#FFFFFF" d="M315.526,240.616c-6.469,0-11.348-4.222-11.348-9.821c0-5.598,4.879-9.82,11.348-9.82
		c6.381,0,11.375,4.313,11.375,9.82C326.901,236.303,321.907,240.616,315.526,240.616 M315.526,223.684
		c-4.881,0-8.424,2.99-8.424,7.111c0,4.122,3.543,7.114,8.424,7.114c4.818,0,8.453-3.06,8.453-7.114
		C323.979,226.674,320.425,223.684,315.526,223.684"/>
	<path fill="#FFFFFF" d="M342.755,239.373l-4.977-6.911c-0.52,0.074-1.066,0.099-1.641,0.099h-4.316v6.813h-1.094v-17.154h5.41
		c4.547,0,7.279,1.961,7.279,5.195c0,2.523-1.668,4.239-4.547,4.876l5.18,7.083H342.755z M336.138,231.727
		c4,0,6.158-1.715,6.158-4.313c0-2.818-2.389-4.289-6.158-4.289h-4.316v8.602H336.138z"/>
	<path fill="#FFFFFF" d="M345.825,240.273h-3.531l-4.939-6.857c-0.365,0.031-0.764,0.045-1.219,0.045h-3.414v6.813h-2.896v-18.955
		h6.311c5.049,0,8.184,2.336,8.184,6.096c0,2.519-1.428,4.428-3.965,5.378L345.825,240.273z M332.722,230.826h3.414
		c1.582,0,5.26-0.332,5.26-3.412c0-2.947-3.295-3.389-5.26-3.389h-3.414V230.826z"/>
	<rect x="349.146" y="222.219" fill="#FFFFFF" width="1.096" height="17.154"/>
	<rect x="348.245" y="221.317" fill="#FFFFFF" width="2.895" height="18.955"/>
	<path fill="#FFFFFF" d="M369.554,233.98h-11.08l-2.82,5.393h-1.18l9.064-17.154h0.949l9.066,17.154h-1.182L369.554,233.98z
		 M369.093,233.123l-4.145-7.914c-0.432-0.834-0.893-1.862-0.92-1.862h-0.031c-0.027,0-0.488,1.028-0.92,1.862l-4.143,7.914H369.093
		z"/>
	<path fill="#FFFFFF" d="M375.048,240.273h-3.221l-2.818-5.393h-9.99l-2.822,5.393h-3.217l10.016-18.955h2.035L375.048,240.273z
		 M360.423,232.223h7.182l-3.453-6.597c-0.047-0.089-0.092-0.179-0.139-0.27c-0.045,0.09-0.09,0.18-0.137,0.267L360.423,232.223z"/>
	<path fill="#1A171B" d="M58.991,258.307c4.329,0,6.91,1.875,6.91,5.011c0,3.11-2.581,5.01-6.91,5.01h-3.818v5.995H53.64v-16.016
		H58.991z M58.991,267.069c3.442,0,5.324-1.44,5.324-3.752c0-2.448-2.07-3.752-5.324-3.752h-3.818v7.504H58.991z"/>
	<path fill="#1A171B" d="M56.069,275.219h-3.324V257.41h6.246c4.816,0,7.807,2.264,7.807,5.907s-2.991,5.905-7.807,5.905h-2.922
		V275.219z M56.069,266.174h2.922c1.654,0,4.429-0.371,4.429-2.856s-2.775-2.856-4.429-2.856h-2.922V266.174z"/>
	<path fill="#1A171B" d="M79.776,269.654h-9.922l-2.393,4.668h-1.694l8.362-16.017H75.5l8.363,16.017h-1.694L79.776,269.654z
		 M79.157,268.488l-3.468-6.75c-0.404-0.823-0.834-1.854-0.861-1.854h-0.027c-0.027,0-0.457,1.03-0.86,1.854l-3.469,6.75H79.157z"/>
	<path fill="#1A171B" d="M85.34,275.219h-3.719l-2.394-4.668H70.4l-2.393,4.668h-3.72l9.298-17.809h2.458L85.34,275.219z
		 M71.939,267.592h5.75l-2.798-5.443c-0.026-0.053-0.052-0.105-0.077-0.159c-0.023,0.048-0.046,0.097-0.07,0.144L71.939,267.592z"/>
	<path fill="#1A171B" d="M101.688,259.52L89.83,271.852c-0.753,0.778-1.317,1.234-1.317,1.258l0.026,0.023
		c0.027,0,0.995-0.068,2.286-0.068h10.863v1.258H86.522v-1.213l11.965-12.379c0.511-0.525,1.318-1.166,1.318-1.189l-0.027-0.021
		c-0.027,0-0.861,0.045-2.286,0.045H86.792v-1.258h14.896V259.52z"/>
	<polygon fill="#1A171B" points="102.583,275.219 85.626,275.219 85.626,272.748 97.502,260.461 97.493,260.461 85.896,260.461 
		85.896,257.41 102.583,257.41 102.583,259.881 90.769,272.168 90.825,272.168 102.583,272.168 	"/>
	<path fill="#1A171B" d="M128.009,258.307l-7.314,7.938v8.077h-1.532v-8.077l-7.314-7.938h1.801l5.082,5.492
		c0.457,0.502,1.183,1.303,1.211,1.303h0.026c0.027,0,0.726-0.801,1.183-1.303l5.055-5.492H128.009z"/>
	<path fill="#1A171B" d="M121.591,275.219h-3.324v-8.623l-8.462-9.186h4.237l5.418,5.856c0.15,0.165,0.322,0.354,0.485,0.534
		l0.544-0.605l5.325-5.785h4.239l-8.462,9.186V275.219z"/>
	<path fill="#1A171B" d="M150.296,274.322l-4.49-6.246c-0.403,0.046-0.833,0.068-1.264,0.068h-3.818v6.178h-1.532v-16.016h5.35
		c4.302,0,6.911,1.898,6.911,4.942c0,2.333-1.506,3.935-4.087,4.575l4.678,6.498H150.296z M144.623,266.979
		c3.415,0,5.243-1.533,5.243-3.729c0-2.356-2.016-3.685-5.243-3.685h-3.899v7.414H144.623z"/>
	<path fill="#1A171B" d="M153.793,275.218h-3.956l-4.461-6.204c-0.271,0.019-0.55,0.027-0.834,0.027h-2.922v6.177h-3.324V257.41
		h6.246c4.815,0,7.806,2.236,7.806,5.839c0,2.317-1.273,4.106-3.54,5.045L153.793,275.218z M141.62,266.082h3.003
		c2.722,0,4.347-1.059,4.347-2.833c0-2.517-3.04-2.788-4.347-2.788h-3.003V266.082z"/>
	<polygon fill="#1A171B" points="169.036,273.064 169.036,274.322 156.64,274.322 156.64,258.307 168.874,258.307 168.874,259.564 
		158.172,259.564 158.172,265.146 166.805,265.146 166.805,266.359 158.172,266.359 158.172,273.064 	"/>
	<polygon fill="#1A171B" points="169.932,275.219 155.744,275.219 155.744,257.41 169.77,257.41 169.77,260.461 159.069,260.461 
		159.069,264.252 167.701,264.252 167.701,267.256 159.069,267.256 159.069,272.168 169.932,272.168 	"/>
	<path fill="#1A171B" d="M188.259,262.517c-1.398-2.015-4.033-3.25-6.991-3.25c-4.625,0-8.174,2.838-8.174,7.048
		c0,4.164,3.603,7.023,8.174,7.023c3.2,0,5.943-1.465,7.287-3.705l1.533,0.365c-1.56,2.836-4.894,4.645-8.82,4.645
		c-5.404,0-9.76-3.501-9.76-8.328c0-4.828,4.356-8.328,9.76-8.328c3.684,0,6.857,1.647,8.55,4.187L188.259,262.517z"/>
	<path fill="#1A171B" d="M181.269,275.539c-6.076,0-10.656-3.965-10.656-9.225c0-5.258,4.58-9.225,10.656-9.225
		c3.905,0,7.38,1.715,9.295,4.586l0.728,1.09l-3.425,0.754l-0.342-0.492c-1.227-1.766-3.624-2.864-6.255-2.864
		c-4.285,0-7.278,2.53-7.278,6.151c0,3.551,3.061,6.128,7.278,6.128c2.811,0,5.308-1.253,6.518-3.271l0.337-0.563l3.315,0.791
		l-0.565,1.03C189.141,273.581,185.459,275.539,181.269,275.539"/>
	<path fill="#1A171B" d="M202.642,257.986c5.405,0,9.787,3.5,9.787,8.328s-4.382,8.329-9.787,8.329
		c-5.403,0-9.761-3.501-9.761-8.329S197.238,257.986,202.642,257.986 M202.642,273.361c4.571,0,8.201-2.883,8.201-7.047
		c0-4.21-3.63-7.047-8.201-7.047c-4.599,0-8.174,2.837-8.174,7.047C194.468,270.479,198.043,273.361,202.642,273.361"/>
	<path fill="#1A171B" d="M202.642,275.539c-6.075,0-10.655-3.965-10.655-9.225c0-5.258,4.58-9.225,10.655-9.225
		c5.991,0,10.684,4.053,10.684,9.225C213.325,271.487,208.633,275.539,202.642,275.539 M202.642,260.163
		c-4.217,0-7.278,2.587-7.278,6.151c0,3.563,3.062,6.15,7.278,6.15c4.233,0,7.305-2.587,7.305-6.15
		C209.946,262.75,206.875,260.163,202.642,260.163"/>
	<path fill="#1A171B" d="M231.706,258.307v16.016h-1.453l-9.598-11.005c-1.615-1.876-2.422-2.906-2.448-2.906h-0.026
		c-0.027,0,0.053,1.876,0.053,4.165v9.746h-1.531v-16.016h1.451l9.572,10.959c1.479,1.693,2.447,2.838,2.473,2.838h0.029
		c0.025,0-0.082-1.922-0.082-4.073v-9.724H231.706z"/>
	<path fill="#1A171B" d="M232.603,275.219h-2.756l-9.867-11.313c-0.318-0.371-0.607-0.708-0.861-1.011
		c0.006,0.515,0.012,1.084,0.012,1.681v10.643h-3.324V257.41h2.755l9.841,11.266c0.313,0.359,0.604,0.693,0.867,0.998
		c-0.012-0.511-0.02-1.069-0.02-1.644v-10.62h3.354V275.219z M230.661,273.428h0.148v-0.639l-0.203,0.21h-0.318L230.661,273.428z
		 M217.598,259.202v0.522l0.205-0.209h0.218l-0.273-0.313H217.598z"/>
	<path fill="#1A171B" d="M252.81,262.517c-1.396-2.015-4.031-3.25-6.988-3.25c-4.625,0-8.174,2.838-8.174,7.048
		c0,4.164,3.602,7.023,8.174,7.023c3.199,0,5.941-1.465,7.287-3.705l1.531,0.365c-1.559,2.836-4.893,4.645-8.818,4.645
		c-5.406,0-9.762-3.501-9.762-8.328c0-4.828,4.355-8.328,9.762-8.328c3.682,0,6.855,1.647,8.549,4.187L252.81,262.517z"/>
	<path fill="#1A171B" d="M245.821,275.539c-6.076,0-10.656-3.965-10.656-9.225c0-5.258,4.58-9.225,10.656-9.225
		c3.904,0,7.379,1.715,9.295,4.586l0.727,1.09l-3.426,0.754l-0.342-0.492c-1.227-1.766-3.621-2.864-6.254-2.864
		c-4.285,0-7.277,2.53-7.277,6.151c0,3.551,3.059,6.128,7.277,6.128c2.811,0,5.309-1.253,6.518-3.271l0.338-0.563l3.314,0.791
		l-0.566,1.03C253.692,273.581,250.013,275.539,245.821,275.539"/>
	<rect x="258.376" y="258.307" fill="#1A171B" width="1.533" height="16.016"/>
	<rect x="257.479" y="257.41" fill="#1A171B" width="3.324" height="17.809"/>
	<polygon fill="#1A171B" points="277.813,273.064 277.813,274.322 265.849,274.322 265.849,258.307 267.38,258.307 267.38,273.064 	
		"/>
	<polygon fill="#1A171B" points="278.71,275.219 264.952,275.219 264.952,257.41 268.276,257.41 268.276,272.168 278.71,272.168 	
		"/>
	<rect x="281.659" y="258.307" fill="#1A171B" width="1.531" height="16.016"/>
	<rect x="280.763" y="257.41" fill="#1A171B" width="3.324" height="17.809"/>
	<path fill="#1A171B" d="M300.907,269.654h-9.92l-2.393,4.668h-1.695l8.363-16.017h1.371l8.361,16.017h-1.693L300.907,269.654z
		 M300.29,268.488l-3.469-6.75c-0.402-0.823-0.834-1.854-0.859-1.854h-0.027c-0.027,0-0.457,1.03-0.861,1.854l-3.469,6.75H300.29z"
		/>
	<path fill="#1A171B" d="M306.474,275.219h-3.719l-2.395-4.668h-8.824l-2.395,4.668h-3.721l9.299-17.809h2.457L306.474,275.219z
		 M293.073,267.592h5.748l-2.797-5.443c-0.025-0.053-0.053-0.105-0.078-0.158c-0.021,0.048-0.045,0.096-0.066,0.143L293.073,267.592
		z"/>
	<path fill="#1A171B" d="M323.169,262.517c-1.395-2.015-4.031-3.25-6.988-3.25c-4.625,0-8.174,2.838-8.174,7.048
		c0,4.164,3.602,7.023,8.174,7.023c3.199,0,5.941-1.465,7.287-3.705l1.531,0.365c-1.559,2.836-4.893,4.645-8.818,4.645
		c-5.406,0-9.762-3.501-9.762-8.328c0-4.828,4.355-8.328,9.762-8.328c3.682,0,6.855,1.647,8.549,4.187L323.169,262.517z"/>
	<path fill="#1A171B" d="M316.181,275.539c-6.074,0-10.656-3.965-10.656-9.225c0-5.258,4.582-9.225,10.656-9.225
		c3.904,0,7.379,1.715,9.295,4.586l0.727,1.09l-3.424,0.754l-0.344-0.492c-1.227-1.766-3.621-2.864-6.254-2.864
		c-4.285,0-7.277,2.53-7.277,6.151c0,3.551,3.059,6.128,7.277,6.128c2.811,0,5.309-1.253,6.518-3.271l0.338-0.563l3.314,0.791
		l-0.566,1.03C324.052,273.581,320.372,275.539,316.181,275.539"/>
	<rect x="328.733" y="258.307" fill="#1A171B" width="1.533" height="16.016"/>
	<rect x="327.839" y="257.41" fill="#1A171B" width="3.324" height="17.809"/>
	<path fill="#1A171B" d="M344.409,257.986c5.406,0,9.787,3.5,9.787,8.328c0,4.827-4.381,8.328-9.787,8.328
		c-5.404,0-9.76-3.501-9.76-8.328C334.649,261.486,339.005,257.986,344.409,257.986 M344.409,273.361
		c4.572,0,8.201-2.883,8.201-7.047c0-4.209-3.629-7.048-8.201-7.048c-4.598,0-8.174,2.839-8.174,7.048
		C336.235,270.479,339.812,273.361,344.409,273.361 M348.308,254.988l-5.646,2.381l-0.537-0.801l5.566-2.563L348.308,254.988z"/>
	<path fill="#1A171B" d="M344.409,275.539c-6.074,0-10.656-3.965-10.656-9.225c0-4.409,3.221-7.91,7.844-8.926l-0.803-1.195
		l7.236-3.331l1.598,2.543l-4.109,1.731c5.451,0.465,9.574,4.33,9.574,9.178C355.093,271.487,350.399,275.539,344.409,275.539
		 M344.409,260.163c-4.217,0-7.277,2.587-7.277,6.151c0,3.563,3.061,6.15,7.277,6.15c4.232,0,7.307-2.587,7.307-6.15
		C351.716,262.75,348.642,260.163,344.409,260.163"/>
	<path fill="#1A171B" d="M373.474,258.307v16.016h-1.453l-9.598-11.005c-1.613-1.876-2.422-2.906-2.449-2.906h-0.025
		c-0.027,0,0.053,1.876,0.053,4.165v9.746h-1.531v-16.016h1.451l9.572,10.959c1.479,1.693,2.447,2.838,2.475,2.838h0.027
		c0.025,0-0.082-1.922-0.082-4.073v-9.724H373.474z"/>
	<path fill="#1A171B" d="M374.37,275.219h-2.758l-9.865-11.313c-0.318-0.371-0.607-0.708-0.861-1.011
		c0.008,0.515,0.012,1.084,0.012,1.681v10.643h-3.324V257.41h2.756l9.84,11.266c0.313,0.359,0.604,0.693,0.867,0.998
		c-0.012-0.511-0.02-1.069-0.02-1.644v-10.62h3.354V275.219z M372.429,273.428h0.15v-0.639l-0.203,0.21h-0.32L372.429,273.428z
		 M359.364,259.202v0.522l0.205-0.209h0.219l-0.273-0.313H359.364z"/>
	<path fill="#E4362E" d="M56.928,58.693l-0.001,139.71h226.912V12.811L56.928,58.693z M71.79,85.303h8.105v22.965H71.79V85.303z
		 M86.184,155.504h-8.105V132.54h8.105V155.504z M104.898,187.809h-8.105v-22.963h8.105V187.809z M114.172,93.239h-8.105V70.274
		h8.105V93.239z M124.796,141.021h-8.105v-22.965h8.105V141.021z M137.994,81.992h8.105v22.963h-8.105V81.992z M146.28,171.434
		h-8.105v-22.965h8.105V171.434z M174.05,77.521h-8.105V54.558h8.105V77.521z M179.83,130.539h-8.105v-22.963h8.105V130.539z
		 M198.938,166.51h-8.105v-22.964h8.105V166.51z M208.68,88.902h-8.105V65.938h8.105V88.902z M234.019,119.205h-8.104V96.241h8.104
		V119.205z M234.632,182.955h-8.105V159.99h8.105V182.955z M249.31,71.274h-8.104V48.31h8.104V71.274z M258.792,152.339h-8.105
		v-22.964h8.105V152.339z"/>
	<polygon fill="#E7521F" points="288.294,198.404 288.294,13.808 363.595,32.071 363.595,198.404 335.923,198.404 335.923,34.348 
		305.821,28.269 305.821,198.404 	"/>
</g>
</svg>
