<?xml version="1.0" encoding="utf-8"?>
<!-- Generator: Adobe Illustrator 14.0.0, SVG Export Plug-In . SVG Version: 6.00 Build 43363)  -->
<!DOCTYPE svg PUBLIC "-//W3C//DTD SVG 1.1//EN" "http://www.w3.org/Graphics/SVG/1.1/DTD/svg11.dtd">
<svg version="1.1" id="Capa_2" xmlns="http://www.w3.org/2000/svg" xmlns:xlink="http://www.w3.org/1999/xlink" x="0px" y="0px"
	 width="497.117px" height="157.932px" viewBox="0 0 497.117 157.932" enable-background="new 0 0 497.117 157.932"
	 xml:space="preserve">
<polygon fill="#ECECEC" points="-61.958,58.321 128.172,68.532 133.299,52.509 134.351,36.928 137.081,30.445 145.911,29.483 
	145.467,25.407 140.282,15.663 135.526,16.181 130.65,2.965 96.007,6.741 93.307,-5.421 82.065,-1.362 82.953,6.789 67.935,7.738 
	42.361,0.131 41.112,-11.334 23.096,-12.668 20.625,2.5 16.549,2.943 14.917,-5.73 10.545,-8.003 2.233,-2.286 0.552,7.521 
	-11.301,5.979 -18.898,-0.67 -26.37,0.144 -27.169,-7.19 -34.641,-6.376 -41.092,3.811 -36.995,28.795 -44.38,24.102 
	-61.893,27.384 -64.845,31.831 "/>
<polygon fill="#ECECEC" points="135.334,71.188 140.882,52.713 141.749,35.435 150.579,34.473 150.061,29.718 175.873,26.905 
	177.354,40.49 184.442,42.467 190.926,45.198 196.669,41.135 202.708,39.79 209.105,48.028 221.332,46.695 224.938,54.55 
	229.692,54.032 232.78,57.133 236.411,52.613 245.92,51.576 248.881,78.748 "/>
<path fill="#ECECEC" d="M250.44,55.208l3.701,33.963l12.919-7.594l52.535,27.954l24.197-23.944l2.594-14.029l-18.549-6.227
	l-10.35,5.939l1.925,17.661l-4.237,5.273c0,0-7.755-8.09-9.236-21.675l-19.699,2.147l-2.925-7.93l-14.87,2.308L250.44,55.208z"/>
<polygon fill="#ECECEC" points="288.17,54.533 324.172,50.609 325.134,59.44 315.612,66.664 314.745,83.941 307.911,68.534 
	289.91,70.495 "/>
<polygon fill="#ECECEC" points="330.464,108.347 348.016,86.502 350.537,71.793 365.309,62.278 380.932,60.576 389.49,63.424 
	383.896,68.845 385.968,87.865 407.025,85.57 406.304,78.946 435.863,78.991 452.053,95.097 453.386,107.324 424.177,110.507 
	423.484,116.769 413.431,125.425 405.279,126.313 388.977,128.089 380.282,136.598 383.948,151.319 379.872,151.764 376.28,137.722 
	"/>
<polygon fill="#ECECEC" points="507.113,70.539 530.752,60.402 535.194,101.158 508.023,104.119 "/>
<polygon fill="#ECECEC" points="502.271,76.565 504.788,99.661 493.24,100.919 492.481,93.956 487.727,94.474 488.485,101.437 
	483.73,101.956 484.767,111.465 500.39,109.762 509.281,115.667 536.452,112.706 535.745,125.139 524.791,131.847 526.642,148.83 
	505.894,147.653 501.274,155.718 499.963,168.92 470.311,168.027 467.359,172.473 448.5,169.717 447.76,162.924 422.183,161.588 
	417.676,151.768 397.106,155.386 396.218,147.233 388.702,150.801 387.296,137.896 394.515,131.61 405.723,130.389 419.604,131.625 
	427.547,122.512 428.845,115.497 453.978,112.758 461.915,97.287 476.179,95.732 482.263,82.182 485.659,81.812 485.968,78.342 "/>
<polygon fill="#ECECEC" points="255.03,97.322 268.555,88.975 318.588,112.906 301.351,137.639 259.228,110.611 "/>
<polygon fill="#ECECEC" points="306.742,139.801 325.381,112.166 352.457,127.258 331.115,147.439 333.782,171.908 326.453,185.078 
	323.492,157.908 "/>
<polygon fill="#ECECEC" points="357.051,131.569 372.042,142.979 373.375,155.221 386.282,153.814 393.593,157.83 415.02,158.931 
	415.612,164.365 390.479,167.104 379.053,182.096 367.445,176.488 346.893,189.725 337.792,175.594 337.422,172.199 
	334.896,149.018 "/>
<polygon fill="#ECECEC" points="324.477,192.168 334.744,180.738 340.013,195.975 368.186,183.281 378.479,186.283 398.809,171.008 
	430.395,167.566 416.796,175.232 417.13,178.291 340.592,234.4 342.221,249.346 330.843,250.586 "/>
<path fill="#ECECEC" d="M331.657,258.057l14.648-4.344l-1.703-15.625l77.306-53.787l-0.74-6.795l18.737-10.977l4.063,5.742
	l-11.648,12.955l-2.965,10.633l17.833,5.963l4.778,6.008l-4.311,4.594l0.518,4.754l4.754-0.518l0.37,3.396l-4.397,10.102
	l-11.474,1.938l0.37,3.396l-8.225,0.211l0.309-3.473l-6.644,2.1l-2.051,6.41l6.113-0.666l7.607,6.73L422,248.211l-3.335,7.236
	l-12.083-13.115l5.403-4.027l1.594-4.297l-5.051-2.199l-0.061-6.867l-11.548,1.258l1.036,9.51l-9.819,4.51l-4.846-9.783
	l-14.308,4.309c0,0-1.446,5.656,0.666,6.113c2.111,0.457,10.102,4.398,10.102,4.398l-1.224,7.693l8.391,10.77l-4.96,8.102
	l-3.396,0.369l-1.036-9.508l-3.396,0.369l-5.757,10.25l-4.075,0.443l-3.31-5.137l-16.25,3.832l-4.524,7.367l0.37,3.396l5.783,4.182
	l-4.45,8.045c0,0-6.719,1.418-10.133-7.832L331.657,258.057z"/>
<polygon fill="#ECECEC" points="267.91,322.74 254.762,334.535 248.891,324.813 263.552,314.279 260.269,296.768 272.199,292.717 
	284.761,291.348 287.204,313.764 291.61,319.469 298.478,319.408 303.468,314.742 302.209,303.193 299.123,300.102 322.509,284.484 
	320.732,268.184 317.009,262.402 315.22,252.287 323.324,238.35 329.69,296.771 333.264,301.184 328.708,341.375 278.103,346.889 
	"/>
<polygon fill="#ECECEC" points="296.675,315.482 290.819,310.621 288.996,293.896 291.628,293.611 288.598,290.244 275.683,286.84 
	266.347,276.857 245.412,292.887 235.915,287.734 247.489,274.102 238.462,260.652 247.01,250.785 238.676,231.072 229.549,229.318 
	224.054,223.043 214.544,224.08 203.393,216.359 238.841,188.441 270.135,198.09 288.415,189.223 293.23,195.572 323.345,210.162 
	325.491,229.859 309.785,252.881 311.488,268.502 315.934,271.455 316.291,281.039 297.319,296.166 297.898,307.787 300.38,311.639 
	"/>
<polygon fill="#ECECEC" points="221.912,165.542 238.179,144.523 231.56,134.247 257.103,116.342 317.719,158.537 322.382,201.332 
	296.183,191.127 289.786,182.889 272.961,190.908 237.2,179.684 "/>
<polygon fill="#ECECEC" points="98.585,251.15 134.233,199.84 145.768,204.768 228.46,137.334 229.349,145.485 213.155,167.183 
	233.124,180.129 199.095,214.768 189.745,229.877 198.438,240.27 196.844,244.566 190.731,245.232 194.262,252.414 197.423,256.189 
	194.31,265.465 188.875,266.057 185.897,282.877 174.04,287.605 174.589,295.793 164.74,296.867 158.504,283.799 146.957,285.057 
	144.227,291.541 131.247,292.268 132.161,288.045 121.071,287.193 114.835,274.125 112.119,274.422 107.316,261.889 99.844,262.703 
	103.179,255.461 "/>
<polygon fill="#ECECEC" points="82.91,277.604 76.117,278.344 82.021,269.451 80.763,257.904 73.97,258.645 63.185,238.514 
	66.181,231.313 65.588,225.879 68.902,220.02 68.458,215.943 59.854,207.945 55.425,214.613 43.877,215.871 42.323,201.609 
	98.505,136.89 122.28,134.299 136.824,116.391 196.805,155.905 145.102,198.656 132.901,187.613 90.286,250.68 99.104,255.906 
	93.73,263.369 87.617,264.035 "/>
<polygon fill="#ECECEC" points="37.381,219.33 30.292,217.352 26.229,211.609 22.896,181.027 -10.939,160.673 -16.756,164.057 
	-40.065,151.991 -17.505,125.647 33.44,120.096 28.254,110.351 13.854,104.36 -26.902,108.801 -42.042,96.017 -46.052,65.523 
	116.995,73.187 121.362,113.264 131.699,113.512 119.631,128.917 94.078,134.108 38.705,199.939 "/>
<polygon fill="#ECECEC" points="131.254,109.436 122.873,76.67 192.774,81.081 194.514,97.044 166.76,126.188 139.702,111.265 "/>
<polygon fill="#ECECEC" points="169.829,129.117 202.578,101.664 200.246,80.267 249.156,82.841 252.265,111.37 200.14,148.668 "/>
</svg>
