<?xml version="1.0" encoding="utf-8"?>
<!-- Generator: Adobe Illustrator 14.0.0, SVG Export Plug-In . SVG Version: 6.00 Build 43363)  -->
<!DOCTYPE svg PUBLIC "-//W3C//DTD SVG 1.1//EN" "http://www.w3.org/Graphics/SVG/1.1/DTD/svg11.dtd">
<svg version="1.1" id="Capa_1" xmlns="http://www.w3.org/2000/svg" xmlns:xlink="http://www.w3.org/1999/xlink" x="0px" y="0px"
	 width="1000px" height="687.222px" viewBox="0 0 1000 687.222" enable-background="new 0 0 1000 687.222" xml:space="preserve">
<g>
	<polygon fill="#EF6600" points="22.296,130.831 327.096,180.708 338.179,155.77 342.613,130.831 348.154,120.855 362.563,120.855 
		362.563,114.206 355.914,97.581 348.154,97.581 342.613,75.413 286.087,75.413 283.869,55.327 265.028,59.896 265.028,73.196 
		240.644,72.088 200.743,55.327 200.743,36.62 171.925,31.303 165.274,55.327 158.625,55.327 157.517,41.054 150.866,36.62 
		136.458,44.38 132.024,59.896 113.182,55.327 102.099,43.271 89.907,43.271 89.907,31.304 77.715,31.304 65.522,46.597 
		67.739,87.605 56.655,78.738 27.838,80.955 22.296,87.605 	"/>
	<polygon fill="#EF6600" points="338.179,186.249 350.371,157.432 354.805,129.723 369.213,129.723 369.213,121.964 
		411.332,121.964 411.332,144.132 422.416,148.564 432.391,154.106 442.366,148.564 452.341,147.457 461.208,161.865 
		481.158,161.865 485.592,175.165 493.35,175.165 497.784,180.708 504.434,174.057 519.95,174.057 519.95,218.393 	"/>
	<path fill="#EF6600" d="M526.602,180.708v55.418l22.166-9.976l79.804,54.31l43.226-34.359l6.649-22.167l-28.817-13.301
		l-17.732,7.76v28.816l-7.76,7.76c0,0-11.084-14.409-11.084-36.576h-32.142l-3.325-13.301l-24.384,1.108L526.602,180.708z"/>
	<polygon fill="#EF6600" points="587.561,186.249 646.305,186.249 646.305,200.657 629.679,210.633 625.245,238.342 
		616.932,212.295 587.561,212.295 	"/>
	<polygon fill="#EF6600" points="646.305,280.46 678.446,248.317 685.098,225.042 710.589,212.295 736.081,212.295 749.382,218.393 
		739.406,226.15 739.406,257.185 773.766,257.185 773.766,246.377 821.425,251.643 844.701,280.46 844.701,300.41 797.041,300.41 
		794.824,310.386 777.091,322.578 763.79,322.578 737.189,322.578 721.673,334.77 724.998,359.153 718.348,359.153 715.023,335.879 
			"/>
	<polygon fill="#EF6600" points="937.804,250.534 977.704,238.342 977.704,304.844 933.37,304.844 	"/>
	<polygon fill="#EF6600" points="928.936,259.401 928.936,297.086 910.094,297.086 910.094,285.725 902.336,285.725 
		902.336,297.086 894.577,297.086 894.577,312.603 920.07,312.603 933.37,323.687 977.704,323.687 974.38,343.612 955.537,352.504 
		955.537,380.214 922.286,374.671 913.419,386.863 908.986,407.922 861.326,401.272 855.784,407.922 825.859,400.163 
		825.859,389.08 784.849,382.431 779.308,365.804 745.502,368.021 745.502,354.72 732.756,359.153 732.756,338.096 745.502,329.228 
		763.79,329.228 785.957,333.662 800.366,320.361 803.691,309.278 844.701,309.278 860.218,285.725 883.494,285.725 
		895.686,264.943 901.228,264.943 902.336,259.401 	"/>
	<polygon fill="#EF6600" points="526.602,249.426 549.877,238.342 626.354,285.725 594.211,322.578 531.035,271.593 	"/>
	<polygon fill="#EF6600" points="602.523,327.012 637.438,285.725 678.446,314.819 640.484,343.612 640.484,383.537 
		626.354,403.489 626.354,359.153 	"/>
	<polygon fill="#EF6600" points="685.098,322.578 707.264,343.612 707.264,363.587 728.322,363.587 739.406,371.346 
		773.766,376.888 773.766,385.754 732.756,385.754 711.697,407.922 693.965,396.839 658.496,414.571 646.305,390.188 
		646.305,384.646 646.305,346.822 	"/>
	<polygon fill="#EF6600" points="621.92,414.571 640.484,397.946 646.305,423.439 693.965,407.922 710.034,414.571 745.502,393.513 
		797.041,393.513 773.766,403.489 773.766,408.476 640.484,485.508 640.484,509.892 621.92,509.892 	"/>
	<path fill="#EF6600" d="M621.92,522.083l24.385-4.433v-25.494l134.111-73.15v-11.084l32.143-14.409l5.542,9.977l-21.06,18.841
		l-6.65,16.625l27.71,12.747l6.649,10.53l-7.758,6.65v7.758h7.758v5.541l-8.866,15.518l-18.843,1.109v5.54l-13.301-1.106
		l1.108-5.543l-11.083,2.217l-4.434,9.976h9.976l11.083,12.191h-21.059l-6.65,11.083l-17.18-23.274l9.421-5.543l3.325-6.649
		l-7.758-4.434l1.107-11.084h-18.842v15.518l-16.625,5.543l-6.097-16.626l-23.828,4.434c0,0-3.325,8.868,0,9.975
		c3.324,1.108,15.517,8.867,15.517,8.867l-3.325,12.191l11.637,18.842l-9.42,12.192h-5.541v-15.516h-5.543l-11.084,15.516h-6.649
		l-4.434-8.866l-26.879,3.324l-8.588,11.084v5.542l8.588,7.759l-8.588,12.191c0,0-11.085,1.107-14.965-14.409L621.92,522.083z"/>
	<polygon fill="#EF6600" points="507.759,615.185 484.483,631.896 476.725,615.185 502.217,600.776 500,571.96 519.95,567.525 
		540.447,567.525 540.447,604.101 546.552,614.077 557.635,615.185 566.502,608.534 566.502,589.693 562.068,584.167 
		602.523,563.093 602.523,536.492 597.536,526.517 596.428,509.892 611.944,488.84 611.944,584.167 616.932,591.91 602.523,655.92 
		519.95,655.92 	"/>
	<polygon fill="#EF6600" points="555.418,608.534 546.829,599.668 546.829,572.381 551.123,572.381 546.829,566.417 
		526.602,558.659 513.301,540.925 476.725,563.093 462.316,553.117 483.375,533.166 471.183,509.892 486.7,495.482 476.725,462.232 
		462.316,457.797 454.557,446.714 439.04,446.714 422.416,432.306 484.483,393.513 533.251,414.571 564.285,403.489 
		570.936,414.571 616.932,443.389 616.932,475.531 587.561,509.892 587.561,535.383 594.211,540.925 593.104,556.443 
		559.852,577.502 558.743,596.343 562.068,602.993 	"/>
	<polygon fill="#EF6600" points="461.208,353.613 491.133,322.578 482.266,304.844 526.602,280.46 616.932,359.153 616.932,428.98 
		576.478,407.922 567.61,393.513 539.069,403.489 483.375,379.104 	"/>
	<polygon fill="#EF6600" points="247.294,469.989 313.796,393.513 331.529,403.489 476.725,309.278 476.725,322.578 446.799,354.72 
		476.725,379.104 415.765,428.98 398.031,451.702 410.223,469.989 406.898,476.641 396.923,476.641 401.356,488.84 405.79,495.482 
		399.14,509.892 390.272,509.892 382.514,536.492 362.563,542.034 362.01,555.334 345.938,555.334 338.179,533.166 319.337,533.166 
		313.796,543.143 292.736,542.034 294.953,535.383 277.22,532.06 269.46,509.892 265.028,509.892 259.485,488.84 247.294,488.84 
		253.944,477.748 	"/>
	<polygon fill="#EF6600" points="217.368,509.892 206.284,509.892 217.368,496.59 217.368,477.748 206.284,477.748 192.43,443.389 
		198.526,432.306 198.526,423.439 204.899,414.571 204.899,407.922 192.43,393.513 184.117,403.489 165.274,403.489 
		165.274,380.214 267.244,285.725 306.037,285.725 332.638,259.401 422.416,333.662 331.529,393.513 313.796,373.562 
		233.994,467.772 247.294,477.748 237.319,488.84 227.343,488.84 	"/>
	<polygon fill="#EF6600" points="154.191,407.922 143.108,403.489 137.565,393.513 137.565,343.612 86.581,304.844 76.606,309.278 
		41.139,285.725 82.148,247.209 165.274,247.209 158.625,230.583 136.458,218.393 69.956,218.393 47.788,195.116 46.68,145.24 
		308.254,186.249 308.254,251.643 324.879,253.859 302.712,276.581 260.595,280.461 159.733,376.888 	"/>
	<polygon fill="#EF6600" points="324.879,247.209 317.121,192.899 429.064,212.295 429.064,238.342 379.189,280.461 
		338.179,251.643 	"/>
	<polygon fill="#EF6600" points="383.622,285.725 441.257,247.209 441.257,212.295 519.674,225.042 519.674,271.593 
		429.064,322.578 	"/>
</g>
</svg>
