<?xml version="1.0" encoding="utf-8"?>
<!-- Generator: Adobe Illustrator 14.0.0, SVG Export Plug-In . SVG Version: 6.00 Build 43363)  -->
<!DOCTYPE svg PUBLIC "-//W3C//DTD SVG 1.1//EN" "http://www.w3.org/Graphics/SVG/1.1/DTD/svg11.dtd">
<svg version="1.1" id="Capa_1" xmlns="http://www.w3.org/2000/svg" xmlns:xlink="http://www.w3.org/1999/xlink" x="0px" y="0px"
	 width="500px" height="300px" viewBox="0 0 500 300" enable-background="new 0 0 500 300" xml:space="preserve">
<polygon fill="#EF6600" points="390.149,8.796 390.149,80.454 354.323,80.454 354.323,58.852 339.568,58.852 339.568,80.454 
	324.817,80.454 324.817,109.957 373.289,109.957 398.58,131.034 482.88,131.034 476.559,168.92 440.73,185.828 440.73,238.518 
	377.505,227.98 360.644,251.162 352.216,291.203 261.592,278.559 251.055,291.203 194.152,276.451 194.152,255.377 116.173,242.732 
	105.637,211.117 41.357,215.336 41.357,190.043 17.12,198.473 17.12,158.432 41.357,141.568 76.132,141.568 118.28,150.001 
	145.68,124.709 152.002,103.636 229.979,103.636 259.484,58.852 303.742,58.852 326.925,19.334 337.462,19.334 339.568,8.796 "/>
</svg>
