<?xml version="1.0" encoding="utf-8"?>
<!-- Generator: Adobe Illustrator 14.0.0, SVG Export Plug-In . SVG Version: 6.00 Build 43363)  -->
<!DOCTYPE svg PUBLIC "-//W3C//DTD SVG 1.1//EN" "http://www.w3.org/Graphics/SVG/1.1/DTD/svg11.dtd">
<svg version="1.1" id="Capa_1" xmlns="http://www.w3.org/2000/svg" xmlns:xlink="http://www.w3.org/1999/xlink" x="0px" y="0px"
	 width="150px" height="150px" viewBox="0 0 150 150" enable-background="new 0 0 150 150" xml:space="preserve">
<path fill="none" stroke="#606060" stroke-width="2" d="M123.91,103.451c0,3.849-3.12,6.97-6.971,6.97H33.06
	c-3.849,0-6.97-3.121-6.97-6.97V19.57c0-3.85,3.121-6.97,6.97-6.97h83.88c3.851,0,6.971,3.12,6.971,6.97V103.451z"/>
<rect x="34.585" y="26.508" fill="#606060" width="80.83" height="11.975"/>
<rect x="34.585" y="55.523" fill="#606060" width="80.83" height="11.974"/>
<rect x="34.585" y="85.46" fill="#606060" width="80.83" height="11.976"/>
<g>
	<path fill="#606060" d="M39.313,144.4l-5.944-19.368h-0.152c0.214,3.94,0.321,6.569,0.321,7.886V144.4H28.86v-24.687h7.125
		l5.843,18.878h0.101l6.197-18.878h7.125V144.4h-4.88v-11.685c0-0.552,0.008-1.188,0.025-1.908c0.017-0.721,0.093-2.634,0.228-5.741
		h-0.152L44.108,144.4H39.313z"/>
	<path fill="#606060" d="M69.605,144.738c-3.039,0-5.415-0.839-7.125-2.517c-1.711-1.677-2.566-4.052-2.566-7.125
		c0-3.163,0.791-5.608,2.372-7.337c1.582-1.728,3.768-2.592,6.56-2.592c2.668,0,4.745,0.76,6.231,2.279
		c1.485,1.52,2.229,3.619,2.229,6.299v2.499H65.13c0.056,1.463,0.49,2.605,1.3,3.428c0.811,0.821,1.947,1.232,3.411,1.232
		c1.137,0,2.212-0.118,3.226-0.354c1.013-0.236,2.071-0.613,3.174-1.132v3.985c-0.901,0.45-1.863,0.785-2.888,1.005
		C72.329,144.628,71.08,144.738,69.605,144.738z M68.879,128.832c-1.092,0-1.947,0.346-2.566,1.038s-0.974,1.675-1.064,2.947h7.227
		c-0.022-1.272-0.354-2.255-0.996-2.947S69.971,128.832,68.879,128.832z"/>
	<path fill="#606060" d="M98.918,144.4h-5.15v-11.026c0-1.362-0.242-2.384-0.726-3.064c-0.484-0.681-1.256-1.021-2.313-1.021
		c-1.441,0-2.482,0.481-3.124,1.443c-0.642,0.963-0.962,2.559-0.962,4.787v8.882h-5.15v-18.878h3.935l0.692,2.414h0.287
		c0.574-0.911,1.364-1.601,2.372-2.068c1.008-0.467,2.153-0.7,3.437-0.7c2.194,0,3.86,0.594,4.998,1.781
		c1.137,1.188,1.705,2.901,1.705,5.142V144.4z"/>
	<path fill="#606060" d="M117.594,144.4l-0.692-2.415h-0.271c-0.552,0.879-1.334,1.557-2.347,2.035
		c-1.014,0.479-2.167,0.718-3.462,0.718c-2.218,0-3.89-0.594-5.015-1.781c-1.126-1.188-1.688-2.896-1.688-5.125v-12.31h5.149v11.026
		c0,1.362,0.242,2.384,0.727,3.064c0.483,0.682,1.255,1.021,2.313,1.021c1.44,0,2.482-0.481,3.124-1.443
		c0.642-0.963,0.962-2.559,0.962-4.787v-8.882h5.15V144.4H117.594z M109.928,123.445v-0.456c1.936-2.251,3.259-3.945,3.968-5.082
		h5.775v0.354c-0.586,0.585-1.585,1.455-2.998,2.608c-1.412,1.154-2.519,2.013-3.317,2.575H109.928z"/>
</g>
</svg>
